<svg width="143" height="48" viewBox="0 0 143 48" fill="none" xmlns="http://www.w3.org/2000/svg">
<rect x="0.335047" y="0.893152" width="141.972" height="46.772" rx="5.0257" fill="#0C0D10"/>
<rect x="0.335047" y="0.893152" width="141.972" height="46.772" rx="5.0257" stroke="#A6A6A6" stroke-width="0.670094"/>
<path d="M96.9089 23.3316V26.0488H95.2019V27.8308H96.9089V33.8856C96.9089 35.9531 97.8463 36.7801 100.204 36.7801C100.619 36.7801 101.014 36.7308 101.359 36.6718V34.9095C101.063 34.939 100.875 34.9587 100.55 34.9587C99.494 34.9587 99.0303 34.4665 99.0303 33.3441V27.8308H101.359V26.0488H99.0303V23.3316H96.9089Z" fill="white"/>
<path d="M107.366 36.9277C110.504 36.9277 112.428 34.8307 112.428 31.3554C112.428 27.8997 110.494 25.7929 107.366 25.7929C104.229 25.7929 102.295 27.8997 102.295 31.3554C102.295 34.8307 104.219 36.9277 107.366 36.9277ZM107.366 35.0473C105.521 35.0473 104.485 33.6985 104.485 31.3554C104.485 29.0319 105.521 27.6733 107.366 27.6733C109.202 27.6733 110.248 29.0319 110.248 31.3554C110.248 33.6887 109.202 35.0473 107.366 35.0473Z" fill="white"/>
<path d="M114.074 36.721H116.196V30.3906C116.196 28.8843 117.33 27.8702 118.939 27.8702C119.314 27.8702 119.945 27.9391 120.123 27.9982V25.911C119.896 25.8519 119.491 25.8224 119.176 25.8224C117.775 25.8224 116.581 26.5903 116.275 27.6438H116.117V25.9996H114.074V36.721Z" fill="white"/>
<path d="M125.39 27.5945C126.959 27.5945 127.985 28.6873 128.035 30.3709H122.608C122.726 28.6972 123.821 27.5945 125.39 27.5945ZM128.025 33.8265C127.63 34.6634 126.752 35.1261 125.469 35.1261C123.772 35.1261 122.677 33.9348 122.608 32.0544V31.9363H130.196V31.1979C130.196 27.8308 128.39 25.7929 125.4 25.7929C122.371 25.7929 120.447 27.9687 120.447 31.3948C120.447 34.8209 122.332 36.9277 125.41 36.9277C127.867 36.9277 129.584 35.7463 130.067 33.8265H128.025Z" fill="white"/>
<path d="M82.997 32.7618C83.1606 35.3945 85.3594 37.0781 88.632 37.0781C92.1296 37.0781 94.3181 35.3128 94.3181 32.4965C94.3181 30.2821 93.0705 29.0576 90.0433 28.3535L88.4172 27.9556C86.4946 27.5066 85.7173 26.9045 85.7173 25.8535C85.7173 24.527 86.9241 23.6596 88.7343 23.6596C90.4524 23.6596 91.6387 24.5065 91.8535 25.8637H94.0829C93.95 23.3841 91.7614 21.6392 88.7649 21.6392C85.5435 21.6392 83.3958 23.3841 83.3958 26.0066C83.3958 28.1699 84.6128 29.4556 87.282 30.0781L89.1842 30.5372C91.1376 30.9964 91.9966 31.6699 91.9966 32.7924C91.9966 34.0985 90.6467 35.0475 88.8059 35.0475C86.8321 35.0475 85.4617 34.1597 85.2673 32.7618H82.997Z" fill="white"/>
<path d="M61.0213 25.8224C59.561 25.8224 58.298 26.5509 57.6468 27.7717H57.4889V25.9996H55.4464V40.2849H57.5678V35.0965H57.7356C58.298 36.2287 59.5116 36.8982 61.041 36.8982C63.7545 36.8982 65.4812 34.7618 65.4812 31.3554C65.4812 27.949 63.7545 25.8224 61.0213 25.8224ZM60.4194 34.9981C58.6433 34.9981 57.5284 33.6001 57.5284 31.3652C57.5284 29.1205 58.6433 27.7225 60.4293 27.7225C62.2251 27.7225 63.3006 29.091 63.3006 31.3554C63.3006 33.6296 62.2251 34.9981 60.4194 34.9981Z" fill="white"/>
<path d="M72.9044 25.8224C71.444 25.8224 70.1811 26.5509 69.5298 27.7717H69.372V25.9996H67.3295V40.2849H69.4509V35.0965H69.6186C70.1811 36.2287 71.3947 36.8982 72.9241 36.8982C75.6375 36.8982 77.3643 34.7618 77.3643 31.3554C77.3643 27.949 75.6375 25.8224 72.9044 25.8224ZM72.3025 34.9981C70.5264 34.9981 69.4114 33.6001 69.4114 31.3652C69.4114 29.1205 70.5264 27.7225 72.3123 27.7225C74.1081 27.7225 75.1837 29.091 75.1837 31.3554C75.1837 33.6296 74.1081 34.9981 72.3025 34.9981Z" fill="white"/>
<path d="M51.6402 36.721H54.0742L48.746 21.9963H46.2813L40.9531 36.721H43.3053L44.6655 32.8128H50.2903L51.6402 36.721ZM47.3961 24.6698H47.5699L49.7073 30.8944H45.2484L47.3961 24.6698Z" fill="white"/>
<path d="M42.377 10.89V17.9933H44.9473C47.0687 17.9933 48.2972 16.6888 48.2972 14.4195C48.2972 12.1847 47.0589 10.89 44.9473 10.89H42.377ZM43.4821 11.8942H44.824C46.2991 11.8942 47.1723 12.8295 47.1723 14.4343C47.1723 16.0637 46.3139 16.9891 44.824 16.9891H43.4821V11.8942Z" fill="white"/>
<path d="M52.0595 18.0967C53.6283 18.0967 54.5904 17.0482 54.5904 15.3105C54.5904 13.5827 53.6234 12.5293 52.0595 12.5293C50.4906 12.5293 49.5237 13.5827 49.5237 15.3105C49.5237 17.0482 50.4857 18.0967 52.0595 18.0967ZM52.0595 17.1565C51.1369 17.1565 50.6189 16.4821 50.6189 15.3105C50.6189 14.1488 51.1369 13.4695 52.0595 13.4695C52.9771 13.4695 53.5001 14.1488 53.5001 15.3105C53.5001 16.4772 52.9771 17.1565 52.0595 17.1565Z" fill="white"/>
<path d="M62.783 12.6326H61.7223L60.7652 16.7233H60.6813L59.5762 12.6326H58.5599L57.4548 16.7233H57.3758L56.4138 12.6326H55.3383L56.8184 17.9933H57.9087L59.0138 14.0454H59.0976L60.2077 17.9933H61.3079L62.783 12.6326Z" fill="white"/>
<path d="M64.0045 17.9933H65.0652V14.8576C65.0652 14.0208 65.5635 13.499 66.3479 13.499C67.1324 13.499 67.5073 13.9273 67.5073 14.7887V17.9933H68.568V14.5229C68.568 13.2479 67.9069 12.5293 66.7081 12.5293C65.899 12.5293 65.3662 12.8886 65.1047 13.4842H65.0258V12.6326H64.0045V17.9933Z" fill="white"/>
<path d="M70.2385 17.9933H71.2992V10.5405H70.2385V17.9933Z" fill="white"/>
<path d="M75.2885 18.0967C76.8573 18.0967 77.8194 17.0482 77.8194 15.3105C77.8194 13.5827 76.8524 12.5293 75.2885 12.5293C73.7196 12.5293 72.7526 13.5827 72.7526 15.3105C72.7526 17.0482 73.7147 18.0967 75.2885 18.0967ZM75.2885 17.1565C74.3659 17.1565 73.8479 16.4821 73.8479 15.3105C73.8479 14.1488 74.3659 13.4695 75.2885 13.4695C76.2061 13.4695 76.7291 14.1488 76.7291 15.3105C76.7291 16.4772 76.2061 17.1565 75.2885 17.1565Z" fill="white"/>
<path d="M80.9798 17.1909C80.4025 17.1909 79.9832 16.9103 79.9832 16.4279C79.9832 15.9554 80.3187 15.7043 81.0587 15.6551L82.371 15.5714V16.0194C82.371 16.6839 81.779 17.1909 80.9798 17.1909ZM80.7084 18.0819C81.4139 18.0819 82.001 17.7767 82.3217 17.2402H82.4056V17.9933H83.4268V14.3309C83.4268 13.1987 82.667 12.5293 81.3202 12.5293C80.1016 12.5293 79.2333 13.12 79.1248 14.0405H80.1509C80.2693 13.6614 80.6788 13.4449 81.2709 13.4449C81.9961 13.4449 82.371 13.7648 82.371 14.3309V14.7936L80.9156 14.8773C79.6379 14.9561 78.9176 15.5123 78.9176 16.4772C78.9176 17.4568 79.6724 18.0819 80.7084 18.0819Z" fill="white"/>
<path d="M87.0263 18.0819C87.7663 18.0819 88.3929 17.7324 88.7136 17.1466H88.7974V17.9933H89.8137V10.5405H88.753V13.4842H88.6741C88.383 12.8935 87.7614 12.544 87.0263 12.544C85.6696 12.544 84.7963 13.6171 84.7963 15.3105C84.7963 17.0088 85.6597 18.0819 87.0263 18.0819ZM87.3272 13.4941C88.2153 13.4941 88.7728 14.198 88.7728 15.3154C88.7728 16.4378 88.2202 17.1319 87.3272 17.1319C86.4293 17.1319 85.8916 16.4476 85.8916 15.3105C85.8916 14.1832 86.4343 13.4941 87.3272 13.4941Z" fill="white"/>
<path d="M96.6921 18.0967C98.2609 18.0967 99.2229 17.0482 99.2229 15.3105C99.2229 13.5827 98.256 12.5293 96.6921 12.5293C95.1232 12.5293 94.1562 13.5827 94.1562 15.3105C94.1562 17.0482 95.1183 18.0967 96.6921 18.0967ZM96.6921 17.1565C95.7695 17.1565 95.2515 16.4821 95.2515 15.3105C95.2515 14.1488 95.7695 13.4695 96.6921 13.4695C97.6097 13.4695 98.1326 14.1488 98.1326 15.3105C98.1326 16.4772 97.6097 17.1565 96.6921 17.1565Z" fill="white"/>
<path d="M100.627 17.9933H101.688V14.8576C101.688 14.0208 102.186 13.499 102.97 13.499C103.755 13.499 104.13 13.9273 104.13 14.7887V17.9933H105.191V14.5229C105.191 13.2479 104.529 12.5293 103.331 12.5293C102.521 12.5293 101.989 12.8886 101.727 13.4842H101.648V12.6326H100.627V17.9933Z" fill="white"/>
<path d="M110.076 11.2986V12.6572H109.222V13.5482H110.076V16.5756C110.076 17.6094 110.544 18.0229 111.723 18.0229C111.931 18.0229 112.128 17.9982 112.301 17.9687V17.0876C112.153 17.1023 112.059 17.1122 111.896 17.1122C111.368 17.1122 111.136 16.866 111.136 16.3049V13.5482H112.301V12.6572H111.136V11.2986H110.076Z" fill="white"/>
<path d="M113.725 17.9933H114.785V14.8626C114.785 14.0503 115.269 13.5039 116.137 13.5039C116.887 13.5039 117.287 13.9371 117.287 14.7936V17.9933H118.347V14.5327C118.347 13.2578 117.642 12.5342 116.497 12.5342C115.688 12.5342 115.121 12.8935 114.859 13.4941H114.775V10.5405H113.725V17.9933Z" fill="white"/>
<path d="M122.174 13.4301C122.958 13.4301 123.471 13.9765 123.496 14.8183H120.782C120.842 13.9814 121.389 13.4301 122.174 13.4301ZM123.491 16.5461C123.294 16.9645 122.854 17.1959 122.213 17.1959C121.365 17.1959 120.817 16.6002 120.782 15.66V15.6009H124.576V15.2317C124.576 13.5482 123.673 12.5293 122.179 12.5293C120.664 12.5293 119.702 13.6171 119.702 15.3302C119.702 17.0433 120.644 18.0967 122.184 18.0967C123.412 18.0967 124.27 17.506 124.512 16.5461H123.491Z" fill="white"/>
<path d="M29.4429 24.6358C29.4687 22.642 30.5418 20.7555 32.2441 19.7112C31.1702 18.1808 29.3714 17.2105 27.4999 17.1521C25.5038 16.9431 23.5687 18.3439 22.5515 18.3439C21.5146 18.3439 19.9485 17.1729 18.2621 17.2075C16.0639 17.2783 14.0147 18.5253 12.9452 20.4429C10.6463 24.4143 12.3611 30.2509 14.5632 33.4611C15.665 35.033 16.9527 36.7889 18.6376 36.7267C20.2864 36.6584 20.9022 35.6776 22.8924 35.6776C24.8642 35.6776 25.4419 36.7267 27.161 36.6871C28.9302 36.6584 30.0449 35.1081 31.108 33.5213C31.8997 32.4013 32.5088 31.1633 32.913 29.8534C30.8338 28.976 29.4453 26.8883 29.4429 24.6358Z" fill="white"/>
<path d="M26.1958 15.0409C27.1605 13.8855 27.6357 12.4003 27.5206 10.9009C26.0469 11.0553 24.6855 11.7581 23.7078 12.8693C22.7518 13.9549 22.2542 15.4139 22.3483 16.856C23.8226 16.8712 25.272 16.1874 26.1958 15.0409Z" fill="white"/>
</svg>
