<svg width="152" height="47" viewBox="0 0 152 47" fill="none" xmlns="http://www.w3.org/2000/svg">
<rect width="152" height="47" rx="5.36075" fill="white"/>
<path d="M103.318 16.1343V18.8516H101.499V20.6336H103.318V26.6883C103.318 28.7558 104.317 29.5828 106.83 29.5828C107.271 29.5828 107.692 29.5336 108.06 29.4745V27.7122C107.744 27.7418 107.545 27.7614 107.198 27.7614C106.073 27.7614 105.578 27.2692 105.578 26.1468V20.6336H108.06V18.8516H105.578V16.1343H103.318Z" fill="black"/>
<path d="M114.461 29.7305C117.805 29.7305 119.855 27.6335 119.855 24.1581C119.855 20.7025 117.794 18.5956 114.461 18.5956C111.118 18.5956 109.057 20.7025 109.057 24.1581C109.057 27.6335 111.107 29.7305 114.461 29.7305ZM114.461 27.8501C112.495 27.8501 111.391 26.5013 111.391 24.1581C111.391 21.8347 112.495 20.476 114.461 20.476C116.417 20.476 117.532 21.8347 117.532 24.1581C117.532 26.4914 116.417 27.8501 114.461 27.8501Z" fill="black"/>
<path d="M121.609 29.5237H123.87V23.1933C123.87 21.687 125.079 20.6729 126.793 20.6729C127.193 20.6729 127.865 20.7418 128.055 20.8009V18.7137C127.813 18.6547 127.382 18.6251 127.045 18.6251C125.552 18.6251 124.28 19.3931 123.954 20.4465H123.786V18.8024H121.609V29.5237Z" fill="black"/>
<path d="M133.668 20.3973C135.339 20.3973 136.433 21.4901 136.486 23.1736H130.703C130.829 21.4999 131.996 20.3973 133.668 20.3973ZM136.475 26.6293C136.054 27.4661 135.119 27.9288 133.752 27.9288C131.943 27.9288 130.776 26.7376 130.703 24.8571V24.739H138.788V24.0006C138.788 20.6336 136.864 18.5956 133.678 18.5956C130.45 18.5956 128.4 20.7714 128.4 24.1975C128.4 27.6236 130.408 29.7305 133.689 29.7305C136.307 29.7305 138.136 28.5491 138.651 26.6293H136.475Z" fill="black"/>
<path d="M88.4933 25.5645C88.6677 28.1972 91.0107 29.8809 94.498 29.8809C98.2251 29.8809 100.557 28.1156 100.557 25.2992C100.557 23.0849 99.2277 21.8604 96.0019 21.1563L94.2692 20.7583C92.2204 20.3093 91.3922 19.7073 91.3922 18.6562C91.3922 17.3297 92.6781 16.4623 94.607 16.4623C96.4378 16.4623 97.702 17.3093 97.9308 18.6664H100.307C100.165 16.1868 97.8328 14.4419 94.6397 14.4419C91.2069 14.4419 88.9184 16.1868 88.9184 18.8093C88.9184 20.9726 90.2152 22.2583 93.0595 22.8808L95.0865 23.34C97.168 23.7992 98.0834 24.4726 98.0834 25.5951C98.0834 26.9012 96.6449 27.8502 94.6833 27.8502C92.58 27.8502 91.1197 26.9625 90.9127 25.5645H88.4933Z" fill="black"/>
<path d="M65.0761 18.6251C63.5199 18.6251 62.1741 19.3537 61.4802 20.5745H61.3119V18.8024H59.1355V33.0877H61.396V27.8993H61.5748C62.1741 29.0315 63.4674 29.7009 65.0971 29.7009C67.9885 29.7009 69.8285 27.5645 69.8285 24.1581C69.8285 20.7517 67.9885 18.6251 65.0761 18.6251ZM64.4347 27.8008C62.5421 27.8008 61.354 26.4028 61.354 24.168C61.354 21.9233 62.5421 20.5253 64.4452 20.5253C66.3588 20.5253 67.5049 21.8937 67.5049 24.1581C67.5049 26.4324 66.3588 27.8008 64.4347 27.8008Z" fill="black"/>
<path d="M77.7387 18.6251C76.1825 18.6251 74.8367 19.3537 74.1428 20.5745H73.9745V18.8024H71.7981V33.0877H74.0587V27.8993H74.2374C74.8367 29.0315 76.13 29.7009 77.7597 29.7009C80.6511 29.7009 82.4911 27.5645 82.4911 24.1581C82.4911 20.7517 80.6511 18.6251 77.7387 18.6251ZM77.0973 27.8008C75.2047 27.8008 74.0166 26.4028 74.0166 24.168C74.0166 21.9233 75.2047 20.5253 77.1078 20.5253C79.0214 20.5253 80.1675 21.8937 80.1675 24.1581C80.1675 26.4324 79.0214 27.8008 77.0973 27.8008Z" fill="black"/>
<path d="M55.0796 29.5237H57.6733L51.9955 14.799H49.3692L43.6914 29.5237H46.1979L47.6473 25.6155H53.6411L55.0796 29.5237ZM50.557 17.4725H50.7423L53.0199 23.6971H48.2685L50.557 17.4725Z" fill="black"/>
<path d="M31.3761 23.8535C31.4035 21.8783 32.547 20.0094 34.3611 18.9748C33.2167 17.4587 31.2998 16.4974 29.3056 16.4396C27.1785 16.2325 25.1165 17.6202 24.0326 17.6202C22.9277 17.6202 21.2589 16.4601 19.4618 16.4944C17.1194 16.5646 14.9357 17.8 13.7961 19.6997C11.3464 23.6341 13.1737 29.4163 15.5203 32.5966C16.6944 34.1538 18.0665 35.8934 19.862 35.8317C21.6189 35.7641 22.2751 34.7924 24.3959 34.7924C26.497 34.7924 27.1126 35.8317 28.9445 35.7925C30.8297 35.7641 32.0176 34.2283 33.1504 32.6562C33.994 31.5466 34.6431 30.3202 35.0738 29.0225C32.8582 28.1533 31.3787 26.085 31.3761 23.8535Z" fill="black"/>
<path d="M27.916 14.3481C28.9439 13.2034 29.4503 11.7321 29.3277 10.2466C27.7572 10.3996 26.3066 11.0958 25.2648 12.1966C24.246 13.2721 23.7158 14.7176 23.8161 16.1463C25.3871 16.1613 26.9315 15.4839 27.916 14.3481Z" fill="black"/>
</svg>
