<svg width="40" height="40" viewBox="0 0 40 40" fill="none" xmlns="http://www.w3.org/2000/svg">
<path d="M19.9948 0L20.2308 0.0139999L20.3488 0.0300002L20.4708 0.0560002L20.6928 0.124C20.8461 0.180526 20.9919 0.255762 21.1268 0.348L21.3348 0.512L21.8448 0.948C25.8794 4.29913 30.9785 6.09861 36.2228 6.022L36.9068 6.002C37.354 5.9816 37.7951 6.11181 38.1595 6.3718C38.5239 6.63178 38.7906 7.00651 38.9168 7.436C39.8996 10.7792 40.2003 14.2858 39.8012 17.7474C39.402 21.2091 38.311 24.5552 36.5931 27.587C34.8752 30.6187 32.5654 33.2741 29.8009 35.3955C27.0365 37.517 23.8738 39.061 20.5008 39.936C20.1716 40.0214 19.826 40.0214 19.4968 39.936C16.1237 39.0612 12.9608 37.5173 10.1961 35.396C7.43141 33.2747 5.12137 30.6193 3.40326 27.5875C1.68515 24.5558 0.594012 21.2096 0.194701 17.7478C-0.204611 14.286 0.0960481 10.7793 1.07881 7.436C1.20503 7.00651 1.47169 6.63178 1.83611 6.3718C2.20052 6.11181 2.64162 5.9816 3.08881 6.002C8.56374 6.25227 13.9349 4.44998 18.1508 0.948L18.6768 0.498L18.8688 0.348C19.0037 0.255762 19.1495 0.180526 19.3028 0.124L19.5268 0.0560002C19.6052 0.0370675 19.6847 0.02304 19.7648 0.0139999L19.9948 0ZM27.4148 14.586C27.2291 14.4 27.0085 14.2525 26.7657 14.1519C26.5229 14.0512 26.2626 13.9994 25.9998 13.9994C25.737 13.9994 25.4767 14.0512 25.2339 14.1519C24.9911 14.2525 24.7706 14.4 24.5848 14.586L17.9988 21.17L15.4128 18.586L15.2248 18.42C14.8228 18.1092 14.3176 17.963 13.8118 18.0112C13.3059 18.0594 12.8374 18.2983 12.5013 18.6794C12.1652 19.0606 11.9868 19.5553 12.0024 20.0632C12.0179 20.5711 12.2261 21.0541 12.5848 21.414L16.5848 25.414L16.7728 25.58C17.1576 25.8785 17.6381 26.0263 18.1242 25.9958C18.6102 25.9652 19.0684 25.7584 19.4128 25.414L27.4128 17.414L27.5788 17.226C27.8773 16.8412 28.0252 16.3607 27.9946 15.8746C27.964 15.3886 27.7572 14.9304 27.4128 14.586H27.4148Z" fill="#9CA3AF"/>
</svg>
