<svg width="152" height="47" viewBox="0 0 152 47" fill="none" xmlns="http://www.w3.org/2000/svg">
<rect width="152" height="47" rx="5.36075" fill="white"/>
<path d="M121.192 28.6612H123.293V13.9718H121.192V28.6612ZM140.116 19.2635L137.708 25.6319H137.635L135.136 19.2635H132.873L136.622 28.1642L134.484 33.1156H136.675L142.452 19.2635H140.116ZM128.2 26.9928C127.513 26.9928 126.553 26.6334 126.553 25.7453C126.553 24.6115 127.749 24.1769 128.78 24.1769C129.703 24.1769 130.139 24.3844 130.7 24.6681C130.537 26.0289 129.414 26.9928 128.2 26.9928ZM128.455 18.9422C126.934 18.9422 125.358 19.6416 124.706 21.1912L126.571 22.0036C126.97 21.1912 127.712 20.9269 128.491 20.9269C129.577 20.9269 130.682 21.6066 130.7 22.8165V22.9675C130.319 22.7407 129.504 22.4007 128.509 22.4007C126.498 22.4007 124.452 23.5531 124.452 25.7076C124.452 27.673 126.1 28.9393 127.947 28.9393C129.359 28.9393 130.139 28.2779 130.627 27.5028H130.7V28.6373H132.729V23.0051C132.729 20.3972 130.862 18.9422 128.455 18.9422ZM115.47 21.0517H112.482V16.0167H115.47C117.041 16.0167 117.933 17.3734 117.933 18.5341C117.933 19.6724 117.041 21.0517 115.47 21.0517ZM115.416 13.9718H110.382V28.6612H112.482V23.096H115.416C117.745 23.096 120.034 21.3372 120.034 18.5341C120.034 15.7316 117.745 13.9718 115.416 13.9718ZM87.9648 26.9955C86.5134 26.9955 85.2986 25.7269 85.2986 23.986C85.2986 22.2249 86.5134 20.9383 87.9648 20.9383C89.3978 20.9383 90.5223 22.2249 90.5223 23.986C90.5223 25.7269 89.3978 26.9955 87.9648 26.9955ZM90.3772 20.086H90.3046C89.8331 19.4994 88.9258 18.9693 87.7836 18.9693C85.3888 18.9693 83.1941 21.1655 83.1941 23.986C83.1941 26.7872 85.3888 28.9641 87.7836 28.9641C88.9258 28.9641 89.8331 28.4339 90.3046 27.8286H90.3772V28.5473C90.3772 30.4599 89.3978 31.4816 87.8197 31.4816C86.5323 31.4816 85.7341 30.5164 85.4072 29.7026L83.5755 30.4976C84.1011 31.8222 85.4974 33.4507 87.8197 33.4507C90.287 33.4507 92.373 31.936 92.373 28.2444V19.2722H90.3772V20.086ZM93.8244 28.6612H95.9277V13.9718H93.8244V28.6612ZM99.0297 23.8152C98.9756 21.8843 100.463 20.9002 101.533 20.9002C102.368 20.9002 103.075 21.3358 103.311 21.96L99.0297 23.8152ZM105.56 22.1491C105.161 21.0328 103.946 18.9693 101.46 18.9693C98.9931 18.9693 96.9436 20.9948 96.9436 23.9667C96.9436 26.7684 98.9756 28.9641 101.696 28.9641C103.89 28.9641 105.161 27.5637 105.687 26.7495L104.054 25.6135C103.51 26.4465 102.767 26.9955 101.696 26.9955C100.626 26.9955 99.864 26.4843 99.3749 25.4809L105.777 22.7173L105.56 22.1491ZM54.5464 20.5027V22.6227H59.4076C59.2625 23.8152 58.8816 24.6859 58.301 25.2918C57.5934 26.0298 56.4868 26.844 54.5464 26.844C51.5534 26.844 49.2136 24.3265 49.2136 21.2031C49.2136 18.0797 51.5534 15.5618 54.5464 15.5618C56.1609 15.5618 57.3396 16.2245 58.2104 17.0764L59.6438 15.5806C58.4281 14.3693 56.814 13.4418 54.5464 13.4418C50.4463 13.4418 47 16.9249 47 21.2031C47 25.4809 50.4463 28.9641 54.5464 28.9641C56.7591 28.9641 58.4282 28.2068 59.734 26.7872C61.0763 25.3863 61.4937 23.4177 61.4937 21.8274C61.4937 21.3358 61.4571 20.8814 61.3846 20.5027H54.5464ZM67.0204 26.9955C65.569 26.9955 64.3173 25.7461 64.3173 23.9667C64.3173 22.1684 65.569 20.9383 67.0204 20.9383C68.4713 20.9383 69.723 22.1684 69.723 23.9667C69.723 25.7461 68.4713 26.9955 67.0204 26.9955ZM67.0204 18.9693C64.3713 18.9693 62.2132 21.0704 62.2132 23.9667C62.2132 26.844 64.3713 28.9641 67.0204 28.9641C69.6685 28.9641 71.8271 26.844 71.8271 23.9667C71.8271 21.0704 69.6685 18.9693 67.0204 18.9693ZM77.5059 26.9955C76.0555 26.9955 74.8034 25.7461 74.8034 23.9667C74.8034 22.1684 76.0555 20.9383 77.5059 20.9383C78.9574 20.9383 80.2086 22.1684 80.2086 23.9667C80.2086 25.7461 78.9574 26.9955 77.5059 26.9955ZM77.5059 18.9693C74.8579 18.9693 72.6997 21.0704 72.6997 23.9667C72.6997 26.844 74.8579 28.9641 77.5059 28.9641C80.155 28.9641 82.3132 26.844 82.3132 23.9667C82.3132 21.0704 80.155 18.9693 77.5059 18.9693Z" fill="black"/>
<path d="M23.3231 22.8217L11.3359 36.0992C11.3364 36.102 11.3373 36.1043 11.3377 36.107C11.7054 37.5487 12.9672 38.6104 14.4648 38.6104C15.0634 38.6104 15.6255 38.4414 16.1075 38.1449L16.1458 38.1215L29.6389 29.9962L23.3231 22.8217Z" fill="#EA4335"/>
<path d="M35.4505 20.5607L35.439 20.5524L29.6137 17.0283L23.0508 23.1228L29.6365 29.9946L35.4311 26.5055C36.447 25.9331 37.1367 24.8155 37.1367 23.5266C37.1367 22.247 36.4563 21.1349 35.4505 20.5607Z" fill="#FBBC04"/>
<path d="M11.3365 10.899C11.2644 11.1763 11.2266 11.4667 11.2266 11.7684V35.2303C11.2266 35.5314 11.264 35.8228 11.3369 36.0991L23.7367 23.1613L11.3365 10.899Z" fill="#4285F4"/>
<path d="M23.4119 23.499L29.6165 17.0259L16.1387 8.87121C15.6488 8.56501 15.0771 8.38829 14.4652 8.38829C12.9676 8.38829 11.7041 9.45178 11.3364 10.8953C11.3359 10.8967 11.3359 10.8976 11.3359 10.8989L23.4119 23.499Z" fill="#34A853"/>
</svg>
