<svg width="143" height="43" viewBox="0 0 143 43" fill="none" xmlns="http://www.w3.org/2000/svg">
<rect x="0.335047" y="0.436609" width="141.972" height="42.0278" rx="5.0257" fill="#0C0D10"/>
<rect x="0.335047" y="0.436609" width="141.972" height="42.0278" rx="5.0257" stroke="#A6A6A6" stroke-width="0.670094"/>
<path d="M112.988 32.125H114.96V18.7802H112.988V32.125ZM130.747 23.5875L128.487 29.373H128.419L126.073 23.5875H123.95L127.468 31.6734L125.462 36.1717H127.518L132.939 23.5875H130.747ZM119.565 30.6093C118.92 30.6093 118.019 30.2828 118.019 29.476C118.019 28.446 119.141 28.0512 120.109 28.0512C120.975 28.0512 121.384 28.2397 121.91 28.4974C121.757 29.7337 120.704 30.6093 119.565 30.6093ZM119.803 23.2956C118.376 23.2956 116.898 23.931 116.286 25.3388L118.036 26.0768C118.41 25.3388 119.106 25.0986 119.837 25.0986C120.857 25.0986 121.893 25.7161 121.91 26.8153V26.9524C121.553 26.7464 120.788 26.4375 119.854 26.4375C117.967 26.4375 116.047 27.4845 116.047 29.4417C116.047 31.2273 117.594 32.3777 119.327 32.3777C120.652 32.3777 121.384 31.7768 121.842 31.0726H121.91V32.1033H123.814V26.9866C123.814 24.6174 122.062 23.2956 119.803 23.2956ZM107.619 25.212H104.814V20.6379H107.619C109.093 20.6379 109.929 21.8704 109.929 22.9249C109.929 23.959 109.093 25.212 107.619 25.212ZM107.568 18.7802H102.844V32.125H104.814V27.0692H107.568C109.753 27.0692 111.901 25.4714 111.901 22.9249C111.901 20.3789 109.753 18.7802 107.568 18.7802ZM81.8062 30.6118C80.4441 30.6118 79.3041 29.4592 79.3041 27.8777C79.3041 26.2778 80.4441 25.109 81.8062 25.109C83.1509 25.109 84.2063 26.2778 84.2063 27.8777C84.2063 29.4592 83.1509 30.6118 81.8062 30.6118ZM84.0701 24.3347H84.0019C83.5595 23.8018 82.708 23.3202 81.6362 23.3202C79.3888 23.3202 77.3292 25.3154 77.3292 27.8777C77.3292 30.4225 79.3888 32.4002 81.6362 32.4002C82.708 32.4002 83.5595 31.9185 84.0019 31.3686H84.0701V32.0215C84.0701 33.7591 83.1509 34.6873 81.67 34.6873C80.4619 34.6873 79.7128 33.8104 79.4061 33.0711L77.6871 33.7933C78.1803 34.9967 79.4907 36.4761 81.67 36.4761C83.9855 36.4761 85.943 35.1001 85.943 31.7464V23.5954H84.0701V24.3347ZM87.3051 32.125H89.2789V18.7802H87.3051V32.125ZM92.1899 27.7226C92.1391 25.9684 93.5354 25.0744 94.5392 25.0744C95.3226 25.0744 95.9858 25.4701 96.2079 26.0372L92.1899 27.7226ZM98.3179 26.209C97.9435 25.1949 96.8031 23.3202 94.4711 23.3202C92.1556 23.3202 90.2323 25.1603 90.2323 27.8602C90.2323 30.4054 92.1391 32.4002 94.6919 32.4002C96.7514 32.4002 97.9435 31.128 98.4375 30.3882L96.9054 29.3562C96.3945 30.1131 95.6969 30.6118 94.6919 30.6118C93.6881 30.6118 92.9729 30.1473 92.5139 29.2358L98.5221 26.7252L98.3179 26.209ZM50.4451 24.7133V26.6393H55.007C54.8708 27.7226 54.5134 28.5136 53.9686 29.064C53.3045 29.7344 52.2661 30.4742 50.4451 30.4742C47.6363 30.4742 45.4406 28.1871 45.4406 25.3496C45.4406 22.5121 47.6363 20.2246 50.4451 20.2246C51.9602 20.2246 53.0664 20.8267 53.8835 21.6006L55.2287 20.2417C54.0879 19.1413 52.5731 18.2987 50.4451 18.2987C46.5975 18.2987 43.3633 21.463 43.3633 25.3496C43.3633 29.2358 46.5975 32.4002 50.4451 32.4002C52.5216 32.4002 54.0879 31.7122 55.3134 30.4225C56.573 29.1499 56.9647 27.3615 56.9647 25.9167C56.9647 25.4701 56.9304 25.0573 56.8623 24.7133H50.4451ZM62.1512 30.6118C60.7891 30.6118 59.6145 29.4767 59.6145 27.8602C59.6145 26.2265 60.7891 25.109 62.1512 25.109C63.5128 25.109 64.6874 26.2265 64.6874 27.8602C64.6874 29.4767 63.5128 30.6118 62.1512 30.6118ZM62.1512 23.3202C59.6652 23.3202 57.6399 25.2291 57.6399 27.8602C57.6399 30.4742 59.6652 32.4002 62.1512 32.4002C64.6363 32.4002 66.662 30.4742 66.662 27.8602C66.662 25.2291 64.6363 23.3202 62.1512 23.3202ZM71.9912 30.6118C70.6301 30.6118 69.455 29.4767 69.455 27.8602C69.455 26.2265 70.6301 25.109 71.9912 25.109C73.3533 25.109 74.5275 26.2265 74.5275 27.8602C74.5275 29.4767 73.3533 30.6118 71.9912 30.6118ZM71.9912 23.3202C69.5062 23.3202 67.4809 25.2291 67.4809 27.8602C67.4809 30.4742 69.5062 32.4002 71.9912 32.4002C74.4772 32.4002 76.5025 30.4742 76.5025 27.8602C76.5025 25.2291 74.4772 23.3202 71.9912 23.3202Z" fill="white"/>
<path d="M46.9952 14.228C46.0479 14.228 45.233 13.8913 44.5761 13.2277C43.9188 12.5637 43.5859 11.7323 43.5859 10.7655C43.5859 9.79871 43.919 8.96877 44.5761 8.30327C45.233 7.63958 46.0479 7.30296 46.9952 7.30296C47.4778 7.30296 47.9282 7.38717 48.3586 7.56252C48.7893 7.73789 49.1415 7.98134 49.419 8.29994L49.4844 8.3752L48.7454 9.12158L48.6715 9.02984C48.4875 8.80147 48.2535 8.62405 47.957 8.49508C47.6616 8.36643 47.3381 8.30702 46.9952 8.30702C46.3279 8.30702 45.7743 8.53593 45.312 9.00128C45.3119 9.00139 45.3117 9.00138 45.3116 9.0015C44.8598 9.47624 44.6326 10.0542 44.6326 10.7655C44.6326 11.4773 44.8601 12.0554 45.3124 12.5303C45.7747 12.9955 46.3283 13.2256 46.9952 13.2256C47.6059 13.2256 48.1111 13.0534 48.5083 12.7123H48.5085C48.8782 12.395 49.1001 11.966 49.1785 11.4193H46.8895V10.4353H50.1679L50.1819 10.5253C50.2088 10.6983 50.2277 10.8653 50.2277 11.0257C50.2277 11.9439 49.9506 12.6934 49.407 13.2448C48.7933 13.902 47.9862 14.228 46.9952 14.228L46.9952 14.228ZM75.4622 14.228C74.5134 14.228 73.7081 13.8911 73.0596 13.2277C73.0596 13.2276 73.0595 13.2276 73.0594 13.2275C73.0593 13.2274 73.0593 13.2274 73.0592 13.2273C72.4098 12.571 72.0876 11.7394 72.0876 10.7655C72.0876 9.79155 72.4098 8.95994 73.0592 8.30368C73.0593 8.30361 73.0593 8.30357 73.0594 8.30347L73.0596 8.30325C73.7082 7.63973 74.5135 7.30294 75.4622 7.30294C76.4091 7.30294 77.2146 7.63981 77.8631 8.31326C78.5127 8.96942 78.8351 9.79945 78.8351 10.7655C78.8351 11.7394 78.5129 12.571 77.8635 13.2273L77.8633 13.2275C77.2144 13.8914 76.4014 14.228 75.4622 14.228L75.4622 14.228ZM51.1659 14.0846V7.44639H51.2715H55.0902V8.45046H52.1944V10.2735H54.8062V11.2575H52.1944V13.0822H55.0902V14.0846H51.1659ZM57.4919 14.0846V8.45046H55.7155V7.44639H60.2969V8.45046H60.1913H58.5205V14.0846H57.4919ZM63.2249 14.0846V7.44639H64.2534V7.55314V14.0846H63.2249ZM66.8425 14.0846V8.45046H65.0661V7.44639H69.6475V8.45046H69.5419H67.8711V14.0846H66.8425ZM79.7481 14.0846V7.44639H80.9079L83.8596 12.2203L83.8342 11.314V7.44639H84.8627V14.0846H83.8449L80.7512 9.06946L80.7766 9.97512V9.97658V14.0846H79.7481ZM75.4622 13.2256C76.1294 13.2256 76.6741 12.9957 77.1181 12.5312L77.1187 12.5303L77.1194 12.5297C77.5697 12.0746 77.7901 11.4888 77.7901 10.7655C77.7901 10.0439 77.5696 9.4561 77.1194 9.00125L77.1187 9.00061L77.1181 8.99997C76.6742 8.53549 76.1296 8.30696 75.4622 8.30696C74.7937 8.30696 74.2491 8.53509 73.7968 8.99955L73.7964 8.99998C73.3544 9.46587 73.1343 10.0441 73.1343 10.7654C73.1343 11.4885 73.3543 12.0649 73.7964 12.5309L73.7968 12.5313C74.2492 12.9959 74.7938 13.2256 75.4622 13.2256V13.2256Z" fill="white"/>
<path d="M21.8879 20.8343L10.6387 32.8965C10.6391 32.899 10.6399 32.9011 10.6404 32.9036C10.9853 34.2133 12.1695 35.1777 13.5749 35.1777C14.1367 35.1777 14.6642 35.0243 15.1165 34.7549L15.1524 34.7337L27.8148 27.352L21.8879 20.8343Z" fill="#EA4335"/>
<path d="M33.2692 18.7802L33.2584 18.7727L27.7917 15.5711L21.6328 21.1077L27.8131 27.3506L33.251 24.1808C34.2044 23.6608 34.8516 22.6455 34.8516 21.4746C34.8516 20.3122 34.213 19.3018 33.2692 18.7802Z" fill="#FBBC04"/>
<path d="M10.6383 10.003C10.5707 10.2549 10.5352 10.5188 10.5352 10.7928V32.1072C10.5352 32.3807 10.5703 32.6455 10.6387 32.8965L22.2751 21.1429L10.6383 10.003Z" fill="#4285F4"/>
<path d="M21.9713 21.4497L27.7938 15.5691L15.1458 8.16084C14.686 7.88266 14.1495 7.72212 13.5753 7.72212C12.1699 7.72212 10.9842 8.68827 10.6391 9.99963C10.6387 10.0009 10.6387 10.0018 10.6387 10.0029L21.9713 21.4497Z" fill="#34A853"/>
</svg>
