<svg width="518" height="479" viewBox="0 0 518 479" fill="none" xmlns="http://www.w3.org/2000/svg">
<g clip-path="url(#clip0_857_16313)">
<rect width="517.908" height="479" fill="#3F517A"/>
<rect width="517.908" height="479" fill="#FFD83D"/>
<g style="mix-blend-mode:soft-light" clip-path="url(#clip1_857_16313)">
<path fill-rule="evenodd" clip-rule="evenodd" d="M556.625 230.107L572.179 257.048C580.765 271.919 575.675 290.941 560.796 299.531C545.917 308.121 526.903 303.027 518.313 288.148L502.759 261.207L556.625 230.107Z" fill="black"/>
<path fill-rule="evenodd" clip-rule="evenodd" d="M435.82 299.855L422.358 307.628C414.918 311.923 412.377 321.432 416.668 328.863C420.963 336.302 430.471 338.843 437.903 334.553C445.342 330.258 447.883 320.749 443.593 313.318L435.82 299.855Z" fill="black"/>
<path fill-rule="evenodd" clip-rule="evenodd" d="M474.424 304.503L486.087 324.704L526.483 301.382L514.82 281.18C508.377 270.021 494.113 266.199 482.954 272.642C471.795 279.085 467.973 293.348 474.416 304.507L474.424 304.503Z" fill="black"/>
<path fill-rule="evenodd" clip-rule="evenodd" d="M488.283 300.386C488.649 300.174 488.935 299.824 489.06 299.383C490.73 293.308 497.029 289.671 503.125 291.263C504.006 291.492 504.918 290.966 505.16 290.088C505.402 289.21 504.881 288.307 503.999 288.077C496.149 286.022 488.018 290.717 485.865 298.547C485.623 299.425 486.144 300.329 487.026 300.558C487.47 300.67 487.916 300.597 488.283 300.386Z" fill="white"/>
<path fill-rule="evenodd" clip-rule="evenodd" d="M494.393 301.982C494.759 301.77 495.046 301.421 495.166 300.971C495.525 299.657 496.377 298.557 497.566 297.871C498.754 297.185 500.132 296.997 501.45 297.343C502.331 297.573 503.243 297.046 503.485 296.169C503.727 295.291 503.205 294.387 502.324 294.158C500.151 293.59 497.887 293.898 495.926 295.031C493.964 296.163 492.565 297.969 491.975 300.144C491.733 301.022 492.255 301.925 493.136 302.154C493.573 302.271 494.027 302.193 494.393 301.982Z" fill="white"/>
<path fill-rule="evenodd" clip-rule="evenodd" d="M498.183 303.374C497.577 302.324 497.951 300.98 499.009 300.369C500.067 299.758 501.418 300.106 502.025 301.156C502.631 302.206 502.257 303.551 501.199 304.162C500.14 304.773 498.789 304.424 498.183 303.374Z" fill="white"/>
<path fill-rule="evenodd" clip-rule="evenodd" d="M482.08 298.758C482.446 298.547 482.732 298.197 482.857 297.755C485.467 288.272 495.316 282.586 504.826 285.072C505.707 285.301 506.618 284.775 506.86 283.897C507.103 283.02 506.581 282.116 505.7 281.887C500.236 280.451 494.523 281.231 489.607 284.07C484.691 286.908 481.158 291.466 479.67 296.915C479.428 297.793 479.95 298.696 480.831 298.926C481.275 299.038 481.73 298.96 482.096 298.749L482.08 298.758Z" fill="white"/>
<path fill-rule="evenodd" clip-rule="evenodd" d="M482.471 380.654L455.538 396.204L439.988 369.271C431.402 354.4 436.493 335.378 451.371 326.788C466.242 318.203 485.264 323.293 493.854 338.171C502.44 353.042 497.35 372.064 482.471 380.654Z" fill="black"/>
<path fill-rule="evenodd" clip-rule="evenodd" d="M471.432 370.781C470.154 368.567 470.91 365.743 473.124 364.464C475.338 363.186 478.163 363.943 479.441 366.157C480.719 368.371 479.962 371.195 477.748 372.473C475.534 373.752 472.71 372.995 471.432 370.781Z" fill="white"/>
<path fill-rule="evenodd" clip-rule="evenodd" d="M464.498 358.775C463.22 356.561 463.977 353.737 466.191 352.459C468.405 351.18 471.229 351.937 472.507 354.151C473.786 356.365 473.029 359.189 470.815 360.468C468.601 361.746 465.776 360.989 464.498 358.775Z" fill="white"/>
<path fill-rule="evenodd" clip-rule="evenodd" d="M457.568 346.769C456.29 344.555 457.047 341.731 459.261 340.453C461.475 339.174 464.299 339.931 465.578 342.145C466.856 344.359 466.099 347.184 463.885 348.462C461.671 349.74 458.847 348.983 457.568 346.769Z" fill="white"/>
<path fill-rule="evenodd" clip-rule="evenodd" d="M469.572 339.838C468.294 337.624 469.051 334.799 471.265 333.521C473.479 332.243 476.303 333 477.582 335.213C478.86 337.427 478.103 340.252 475.889 341.53C473.675 342.808 470.851 342.051 469.572 339.838Z" fill="white"/>
<path fill-rule="evenodd" clip-rule="evenodd" d="M445.561 353.701C444.282 351.487 445.039 348.663 447.253 347.384C449.467 346.106 452.292 346.863 453.57 349.077C454.848 351.291 454.091 354.115 451.877 355.393C449.663 356.672 446.839 355.915 445.561 353.701Z" fill="white"/>
<path fill-rule="evenodd" clip-rule="evenodd" d="M421.715 318.775L431.214 313.29C433.859 311.763 437.391 312.937 439.111 315.916C440.831 318.895 440.081 322.54 437.436 324.067L432.674 326.816L427.937 329.551C425.292 331.078 421.752 329.91 420.032 326.931C418.317 323.96 419.07 320.302 421.715 318.775Z" fill="white"/>
<path fill-rule="evenodd" clip-rule="evenodd" d="M421.092 326.319C419.739 323.975 420.54 320.983 422.884 319.63C425.229 318.277 428.22 319.078 429.573 321.422C430.927 323.766 430.125 326.758 427.781 328.111C425.437 329.464 422.445 328.663 421.092 326.319Z" fill="black"/>
<path fill-rule="evenodd" clip-rule="evenodd" d="M464.846 319.018C472.285 314.723 474.826 305.214 470.536 297.783L462.754 284.305L435.821 299.855L443.598 313.325C447.893 320.764 457.402 323.305 464.833 319.015L464.846 319.018Z" fill="black"/>
<path fill-rule="evenodd" clip-rule="evenodd" d="M529.605 353.44C540.764 346.997 544.586 332.734 538.144 321.575L526.48 301.373L486.085 324.696L497.748 344.897C504.191 356.056 518.454 359.878 529.614 353.435L529.605 353.44Z" fill="black"/>
<path fill-rule="evenodd" clip-rule="evenodd" d="M505.331 337.057L506.895 335.763C506.736 335.073 506.648 334.376 506.618 333.666L504.765 332.825C503.981 332.464 503.563 331.588 503.786 330.753L504.432 328.319C504.556 327.857 504.849 327.481 505.256 327.246C505.573 327.063 505.939 326.982 506.307 327.019L508.34 327.213C508.733 326.595 509.17 326.018 509.677 325.486L508.978 323.599C508.673 322.788 508.997 321.885 509.754 321.448L511.927 320.193C512.676 319.76 513.621 319.931 514.179 320.597L515.495 322.181C516.177 322.026 516.879 321.946 517.581 321.921L518.413 320.073C518.566 319.735 518.818 319.459 519.136 319.276C519.543 319.041 520.028 318.978 520.477 319.099L522.916 319.752C523.751 319.976 524.303 320.764 524.221 321.636L524.028 323.69C524.628 324.071 525.18 324.501 525.69 324.988L527.576 324.289C528.387 323.984 529.296 324.317 529.728 325.066L530.987 327.247C531.42 327.996 531.254 328.949 530.584 329.499L528.999 330.815C529.154 331.496 529.247 332.202 529.264 332.908L531.099 333.737C531.883 334.099 532.302 334.975 532.078 335.809L531.433 338.244C531.309 338.706 531.016 339.081 530.609 339.316C530.291 339.5 529.925 339.581 529.557 339.544L527.511 339.346C527.15 339.924 526.732 340.459 526.265 340.967L526.978 342.878C527.283 343.689 526.959 344.592 526.202 345.029L524.02 346.289C523.272 346.721 522.327 346.551 521.769 345.885L520.47 344.312C519.781 344.472 519.083 344.56 518.381 344.585L517.541 346.438C517.388 346.775 517.135 347.052 516.818 347.235C516.411 347.47 515.934 347.528 515.477 347.412L513.046 346.754C512.211 346.53 511.659 345.743 511.741 344.87L511.935 342.837C511.335 342.457 510.775 342.031 510.262 341.557L508.359 342.265C507.548 342.57 506.64 342.237 506.207 341.489L504.948 339.307C504.508 338.563 504.673 337.61 505.344 337.06L505.331 337.057Z" fill="white"/>
<path fill-rule="evenodd" clip-rule="evenodd" d="M520.223 337.194C522.396 335.94 523.146 333.141 521.887 330.96C520.628 328.778 517.837 328.024 515.656 329.283C513.474 330.543 512.732 333.337 513.992 335.518C515.251 337.699 518.042 338.454 520.223 337.194ZM514.852 327.891C517.798 326.19 521.578 327.21 523.283 330.164C524.989 333.119 523.983 336.901 521.036 338.603C518.09 340.304 514.31 339.284 512.605 336.33C510.899 333.375 511.906 329.592 514.852 327.891Z" fill="black"/>
<path fill-rule="evenodd" clip-rule="evenodd" d="M450.787 294.665L463.612 298.102L463.636 298.143L461.87 299.162L466.545 307.261L462.305 309.709L459.039 304.052L454.79 306.505L458.056 312.162L453.815 314.61L449.14 306.512L447.365 307.536L447.342 307.496L450.787 294.665Z" fill="white"/>
<path fill-rule="evenodd" clip-rule="evenodd" d="M435.344 407.862L455.546 396.198L443.882 375.997C437.44 364.838 423.176 361.016 412.017 367.459C400.858 373.901 397.036 388.165 403.478 399.324C409.921 410.483 424.185 414.305 435.344 407.862Z" fill="black"/>
<path fill-rule="evenodd" clip-rule="evenodd" d="M416.468 394.514C416.834 394.303 417.112 393.958 417.229 393.521C418.871 387.549 425.073 383.968 431.058 385.537C431.939 385.766 432.846 385.232 433.063 384.347C433.28 383.484 432.727 382.62 431.859 382.394C424.169 380.409 416.217 385.001 414.091 392.653C413.852 393.518 414.341 394.44 415.201 394.67C415.638 394.787 416.089 394.722 416.455 394.511L416.468 394.514Z" fill="white"/>
<path fill-rule="evenodd" clip-rule="evenodd" d="M422.473 396.083C422.839 395.872 423.117 395.527 423.234 395.09C423.586 393.802 424.427 392.72 425.599 392.043C426.771 391.366 428.099 391.185 429.386 391.517C430.147 391.707 430.957 391.38 431.298 390.673C431.772 389.727 431.244 388.643 430.273 388.39C428.138 387.831 425.903 388.134 423.982 389.243C422.062 390.352 420.682 392.136 420.098 394.264C419.86 395.129 420.372 396.016 421.24 396.241C421.672 396.35 422.11 396.282 422.476 396.07L422.473 396.083Z" fill="white"/>
<path fill-rule="evenodd" clip-rule="evenodd" d="M426.21 397.455C425.613 396.421 425.98 395.102 427.022 394.5C428.064 393.899 429.394 394.249 429.986 395.274C430.578 396.3 430.216 397.627 429.174 398.228C428.132 398.83 426.802 398.48 426.21 397.455Z" fill="white"/>
<path fill-rule="evenodd" clip-rule="evenodd" d="M410.369 392.914C410.736 392.703 411.014 392.358 411.131 391.921C413.688 382.61 423.345 377.023 432.686 379.444C433.567 379.673 434.501 379.166 434.73 378.285C434.953 377.43 434.445 376.551 433.585 376.32C428.216 374.916 422.598 375.674 417.755 378.47C412.913 381.267 409.455 385.748 407.979 391.104C407.74 391.969 408.252 392.856 409.12 393.082C409.565 393.194 410.003 393.126 410.361 392.919L410.369 392.914Z" fill="white"/>
<path fill-rule="evenodd" clip-rule="evenodd" d="M386.088 400.507C393.528 396.212 403.033 398.766 407.323 406.197C411.618 413.636 409.064 423.141 401.633 427.432C394.194 431.727 384.689 429.173 380.398 421.742C376.103 414.303 378.657 404.797 386.088 400.507Z" fill="black"/>
<path fill-rule="evenodd" clip-rule="evenodd" d="M385.021 411.531L396.18 405.088C397.043 404.59 398.147 404.886 398.65 405.757L402.752 412.862C403.25 413.725 402.959 414.837 402.096 415.335L401.486 415.688L404.156 417.456C404.326 417.543 404.405 417.736 404.357 417.916C404.329 418.018 404.258 418.103 404.169 418.154C404.104 418.192 404.029 418.213 403.941 418.21L397.07 418.227L390.933 421.77C390.07 422.268 388.966 421.972 388.463 421.101L384.361 413.996C383.863 413.133 384.154 412.021 385.016 411.523L385.021 411.531ZM397.363 412.588C397.941 412.254 398.137 411.522 397.803 410.945C397.47 410.367 396.738 410.171 396.16 410.504C395.582 410.838 395.386 411.57 395.72 412.148C396.053 412.726 396.785 412.922 397.363 412.588ZM394.14 414.449C394.718 414.115 394.914 413.383 394.58 412.806C394.246 412.228 393.515 412.032 392.937 412.365C392.359 412.699 392.163 413.431 392.496 414.009C392.83 414.586 393.562 414.782 394.14 414.449ZM390.917 416.31C391.495 415.976 391.691 415.244 391.357 414.666C391.023 414.089 390.292 413.892 389.714 414.226C389.136 414.56 388.94 415.292 389.273 415.869C389.607 416.447 390.339 416.643 390.917 416.31Z" fill="white"/>
<path fill-rule="evenodd" clip-rule="evenodd" d="M513.611 434.386L486.678 449.936L471.129 423.003C462.543 408.133 467.633 389.111 482.512 380.521C497.383 371.935 516.405 377.025 524.995 391.904C533.58 406.774 528.49 425.796 513.611 434.386Z" fill="black"/>
<path fill-rule="evenodd" clip-rule="evenodd" d="M480.092 407.626C481.372 402.85 486.288 400.011 491.072 401.286L494.975 402.332L496.021 398.429C497.301 393.653 502.217 390.815 507.001 392.09C511.777 393.369 514.606 398.269 513.326 403.045L512.28 406.948L507.626 424.243L490.32 419.627L486.417 418.581C481.642 417.301 478.813 412.401 480.092 407.626Z" fill="white"/>
<path fill-rule="evenodd" clip-rule="evenodd" d="M368.41 338.773L383.965 365.714C392.55 380.585 387.46 399.607 372.581 408.197C357.702 416.787 338.688 411.693 330.098 396.814L314.544 369.873L368.41 338.773Z" fill="black"/>
<path fill-rule="evenodd" clip-rule="evenodd" d="M420.503 335.635C414.065 324.484 399.797 320.654 388.638 327.097L368.436 338.761L380.099 358.962C386.542 370.121 400.806 373.943 411.965 367.5C423.124 361.058 426.946 346.794 420.503 335.635Z" fill="black"/>
<path fill-rule="evenodd" clip-rule="evenodd" d="M385.386 345.393C386.451 341.447 390.512 339.102 394.462 340.154L397.692 341.012L398.564 337.785C399.628 333.839 403.69 331.494 407.639 332.546C411.589 333.597 413.929 337.65 412.865 341.596L411.993 344.824L408.143 359.114L393.842 355.303L390.612 354.444C386.662 353.393 384.322 349.339 385.386 345.393Z" fill="white"/>
<path fill-rule="evenodd" clip-rule="evenodd" d="M463.132 409.638C458.851 402.224 449.352 399.699 441.904 403.999L441.918 404.023C434.496 408.33 431.941 417.814 436.213 425.213L436.246 425.27C440.527 432.685 450.026 435.209 457.473 430.909L457.459 430.885C464.881 426.578 467.441 417.102 463.165 409.695L463.132 409.638Z" fill="black"/>
<path fill-rule="evenodd" clip-rule="evenodd" d="M376.792 477.501L392.323 504.402C399.745 500.095 402.292 490.615 398.02 483.217L397.987 483.16C393.711 475.753 384.233 473.227 376.792 477.501Z" fill="black"/>
<path fill-rule="evenodd" clip-rule="evenodd" d="M441.357 415.59L452.239 409.307C453.086 408.819 454.164 409.108 454.653 409.954L458.652 416.881C459.141 417.727 458.852 418.805 458.005 419.294L457.411 419.637L460.016 421.367C460.185 421.454 460.26 421.639 460.212 421.819C460.184 421.921 460.113 422.006 460.032 422.053C459.967 422.09 459.892 422.112 459.812 422.104L453.113 422.118L447.123 425.577C446.276 426.066 445.198 425.777 444.709 424.93L440.71 418.004C440.221 417.157 440.51 416.079 441.357 415.59ZM453.394 416.628C453.956 416.303 454.149 415.584 453.825 415.023C453.5 414.461 452.781 414.269 452.22 414.593C451.658 414.917 451.465 415.636 451.79 416.198C452.114 416.759 452.833 416.952 453.394 416.628ZM450.253 418.442C450.814 418.117 451.007 417.398 450.683 416.837C450.358 416.275 449.64 416.083 449.078 416.407C448.516 416.731 448.324 417.45 448.648 418.012C448.972 418.573 449.691 418.766 450.253 418.442ZM447.111 420.256C447.673 419.931 447.865 419.212 447.541 418.651C447.217 418.089 446.498 417.896 445.936 418.221C445.374 418.545 445.182 419.264 445.506 419.826C445.83 420.387 446.549 420.58 447.111 420.256Z" fill="white"/>
<path fill-rule="evenodd" clip-rule="evenodd" d="M401.647 427.318L401.37 427.477C386.572 436.021 381.502 454.945 390.045 469.742L390.205 470.019C398.748 484.816 417.672 489.886 432.469 481.343L459.541 465.713L443.911 438.642C435.368 423.845 416.444 418.774 401.647 427.318Z" fill="black"/>
<path fill-rule="evenodd" clip-rule="evenodd" d="M434.834 453.149L429.05 452.342C427.42 452.112 425.853 453.027 425.242 454.562L424.759 455.774C424.397 456.689 423.396 457.191 422.438 456.941L411.169 453.908C410.206 453.65 409.59 452.714 409.732 451.721L409.92 450.429C410.159 448.794 409.247 447.215 407.732 446.603L402.319 444.389C401.37 444.003 400.307 444.042 399.379 444.502C398.471 444.961 397.788 445.789 397.523 446.777L396.451 450.804C395.853 453.038 396.429 458.772 414.601 463.669C426.444 466.87 431.938 465.803 434.453 464.351C435.967 463.477 436.53 462.403 436.722 461.663L437.794 457.636C438.306 455.723 437.166 453.767 435.261 453.249C435.12 453.211 434.978 453.174 434.838 453.157L434.834 453.149Z" fill="white"/>
<path fill-rule="evenodd" clip-rule="evenodd" d="M486.522 450.134L473.059 457.906C465.62 462.201 456.114 459.648 451.824 452.217C447.529 444.777 450.083 435.272 457.514 430.982C464.953 426.686 474.459 429.24 478.749 436.671L486.522 450.134Z" fill="black"/>
<path fill-rule="evenodd" clip-rule="evenodd" d="M457.306 443.366L461.66 440.852L460.547 438.923C459.908 437.816 460.289 436.391 461.396 435.752C462.023 435.39 462.786 435.34 463.46 435.624L467.651 437.394L470.63 435.674L476.654 446.108L465.284 452.673C464.836 452.932 464.313 453.06 463.793 453.024L463.129 452.984C462.487 452.942 461.885 452.671 461.437 452.214L456.754 447.505C456.149 446.889 455.878 446.025 456.029 445.178C456.164 444.416 456.63 443.757 457.306 443.366ZM473.298 446.516L474.836 445.628L470.137 437.489L468.598 438.377L473.298 446.516Z" fill="white"/>
<path fill-rule="evenodd" clip-rule="evenodd" d="M388.236 435.255L374.774 443.027C367.334 447.322 357.829 444.769 353.539 437.338C349.244 429.898 351.798 420.393 359.229 416.103C366.668 411.808 376.174 414.361 380.464 421.792L388.236 435.255Z" fill="black"/>
<path fill-rule="evenodd" clip-rule="evenodd" d="M359.017 428.487L363.363 425.977L362.25 424.048C361.611 422.941 361.992 421.516 363.099 420.877C363.726 420.515 364.489 420.465 365.163 420.749L369.354 422.519L372.333 420.799L378.357 431.233L366.987 437.798C366.539 438.057 366.016 438.185 365.496 438.149L364.833 438.109C364.19 438.067 363.588 437.796 363.14 437.339L358.457 432.63C357.852 432.014 357.581 431.15 357.732 430.303C357.868 429.541 358.333 428.882 359.009 428.491L359.017 428.487ZM375.009 431.636L376.547 430.748L371.848 422.609L370.31 423.497L375.009 431.636Z" fill="white"/>
<path fill-rule="evenodd" clip-rule="evenodd" d="M337.867 371.547L351.386 394.964L346.315 397.892L332.796 374.475L337.867 371.547ZM350.859 374.464L359.872 390.075L354.785 393.012L345.772 377.401L350.859 374.464ZM362.327 374.778L368.332 385.18L363.253 388.112L357.248 377.71L362.327 374.778ZM372.969 373.68L376.789 380.298L371.71 383.23L367.89 376.613L372.969 373.68Z" fill="white"/>
<path fill-rule="evenodd" clip-rule="evenodd" d="M247.402 408.639L233.94 416.411C226.5 420.706 223.959 430.215 228.25 437.646C232.545 445.086 242.054 447.626 249.485 443.336C256.924 439.041 259.465 429.532 255.175 422.101L247.402 408.639Z" fill="black"/>
<path fill-rule="evenodd" clip-rule="evenodd" d="M285.998 413.29L297.662 433.491L338.057 410.169L326.394 389.967C319.951 378.808 305.688 374.987 294.529 381.429C283.369 387.872 279.547 402.136 285.99 413.294L285.998 413.29Z" fill="black"/>
<path fill-rule="evenodd" clip-rule="evenodd" d="M299.857 409.175C300.223 408.963 300.509 408.613 300.635 408.172C302.304 402.097 308.604 398.46 314.699 400.052C315.581 400.281 316.492 399.755 316.734 398.877C316.976 397.999 316.455 397.096 315.574 396.867C307.724 394.811 299.592 399.506 297.439 407.337C297.197 408.214 297.719 409.118 298.6 409.347C299.044 409.459 299.491 409.386 299.857 409.175Z" fill="white"/>
<path fill-rule="evenodd" clip-rule="evenodd" d="M305.967 410.769C306.334 410.558 306.62 410.208 306.741 409.758C307.1 408.444 307.951 407.345 309.14 406.658C310.328 405.972 311.706 405.784 313.024 406.131C313.905 406.36 314.817 405.833 315.059 404.956C315.301 404.078 314.779 403.175 313.898 402.945C311.725 402.377 309.461 402.685 307.5 403.818C305.538 404.95 304.139 406.757 303.55 408.931C303.308 409.809 303.829 410.712 304.71 410.941C305.147 411.058 305.601 410.98 305.967 410.769Z" fill="white"/>
<path fill-rule="evenodd" clip-rule="evenodd" d="M309.765 412.157C309.159 411.107 309.533 409.763 310.591 409.152C311.649 408.541 313 408.889 313.607 409.939C314.213 410.989 313.839 412.334 312.781 412.945C311.723 413.556 310.371 413.207 309.765 412.157Z" fill="white"/>
<path fill-rule="evenodd" clip-rule="evenodd" d="M293.654 407.547C294.02 407.336 294.307 406.986 294.432 406.545C297.042 397.061 306.89 391.375 316.4 393.861C317.281 394.09 318.193 393.564 318.435 392.686C318.677 391.809 318.155 390.905 317.274 390.676C311.811 389.24 306.097 390.021 301.181 392.859C296.265 395.697 292.732 400.255 291.244 405.704C291.002 406.582 291.524 407.485 292.405 407.715C292.85 407.827 293.304 407.749 293.67 407.538L293.654 407.547Z" fill="white"/>
<path fill-rule="evenodd" clip-rule="evenodd" d="M294.049 489.437L267.116 504.987L251.566 478.054C242.981 463.184 248.071 444.162 262.95 435.571C277.82 426.986 296.842 432.076 305.432 446.954C314.018 461.825 308.928 480.847 294.049 489.437Z" fill="black"/>
<path fill-rule="evenodd" clip-rule="evenodd" d="M283.002 479.568C281.724 477.354 282.481 474.53 284.695 473.252C286.909 471.973 289.733 472.73 291.011 474.944C292.289 477.158 291.533 479.982 289.319 481.261C287.105 482.539 284.28 481.782 283.002 479.568Z" fill="white"/>
<path fill-rule="evenodd" clip-rule="evenodd" d="M276.072 467.564C274.794 465.35 275.551 462.526 277.765 461.248C279.979 459.969 282.803 460.726 284.082 462.94C285.36 465.154 284.603 467.978 282.389 469.257C280.175 470.535 277.351 469.778 276.072 467.564Z" fill="white"/>
<path fill-rule="evenodd" clip-rule="evenodd" d="M269.139 455.558C267.861 453.344 268.617 450.52 270.831 449.242C273.045 447.964 275.87 448.72 277.148 450.934C278.426 453.148 277.669 455.973 275.455 457.251C273.241 458.529 270.417 457.772 269.139 455.558Z" fill="white"/>
<path fill-rule="evenodd" clip-rule="evenodd" d="M281.147 448.627C279.868 446.413 280.625 443.588 282.839 442.31C285.053 441.032 287.878 441.789 289.156 444.003C290.434 446.216 289.677 449.041 287.463 450.319C285.249 451.597 282.425 450.841 281.147 448.627Z" fill="white"/>
<path fill-rule="evenodd" clip-rule="evenodd" d="M257.135 462.49C255.857 460.276 256.614 457.452 258.827 456.173C261.041 454.895 263.866 455.652 265.144 457.866C266.422 460.08 265.665 462.904 263.451 464.182C261.238 465.461 258.413 464.704 257.135 462.49Z" fill="white"/>
<path fill-rule="evenodd" clip-rule="evenodd" d="M233.29 427.562L242.788 422.078C245.434 420.55 248.965 421.724 250.685 424.703C252.405 427.682 251.655 431.327 249.01 432.854L244.248 435.603L239.511 438.338C236.866 439.865 233.326 438.697 231.606 435.718C229.891 432.747 230.644 429.089 233.29 427.562Z" fill="white"/>
<path fill-rule="evenodd" clip-rule="evenodd" d="M232.666 435.108C231.313 432.764 232.114 429.772 234.459 428.419C236.803 427.066 239.794 427.867 241.148 430.211C242.501 432.555 241.699 435.547 239.355 436.9C237.011 438.254 234.02 437.452 232.666 435.108Z" fill="black"/>
<path fill-rule="evenodd" clip-rule="evenodd" d="M276.42 427.807C283.859 423.512 286.4 414.004 282.11 406.572L274.328 393.094L247.395 408.644L255.172 422.114C259.467 429.553 268.976 432.094 276.407 427.804L276.42 427.807Z" fill="black"/>
<path fill-rule="evenodd" clip-rule="evenodd" d="M341.18 462.227C352.339 455.784 356.161 441.521 349.718 430.362L338.055 410.16L297.659 433.483L309.322 453.684C315.765 464.843 330.029 468.665 341.188 462.222L341.18 462.227Z" fill="black"/>
<path fill-rule="evenodd" clip-rule="evenodd" d="M316.906 445.844L318.47 444.55C318.311 443.861 318.223 443.163 318.193 442.453L316.34 441.613C315.556 441.251 315.137 440.375 315.361 439.541L316.007 437.106C316.13 436.644 316.424 436.269 316.831 436.034C317.148 435.85 317.514 435.77 317.882 435.806L319.915 436C320.307 435.383 320.744 434.805 321.252 434.273L320.553 432.387C320.247 431.576 320.572 430.672 321.321 430.24L323.494 428.985C324.243 428.553 325.188 428.723 325.738 429.394L327.054 430.978C327.735 430.823 328.438 430.743 329.139 430.718L329.972 428.87C330.124 428.532 330.377 428.256 330.695 428.073C331.101 427.838 331.586 427.775 332.035 427.895L334.475 428.549C335.309 428.773 335.862 429.561 335.78 430.433L335.587 432.487C336.187 432.867 336.739 433.297 337.248 433.785L339.135 433.086C339.946 432.781 340.854 433.114 341.287 433.862L342.546 436.044C342.978 436.793 342.812 437.746 342.142 438.295L340.558 439.612C340.713 440.293 340.805 440.999 340.823 441.705L342.658 442.534C343.441 442.896 343.86 443.771 343.637 444.606L342.991 447.041C342.867 447.503 342.574 447.878 342.167 448.113C341.85 448.296 341.484 448.377 341.116 448.341L339.07 448.143C338.709 448.721 338.29 449.255 337.824 449.763L338.537 451.674C338.842 452.486 338.517 453.389 337.769 453.822L335.587 455.081C334.838 455.513 333.893 455.343 333.344 454.673L332.045 453.1C331.356 453.259 330.658 453.347 329.956 453.373L329.116 455.225C328.963 455.563 328.71 455.839 328.393 456.022C327.986 456.257 327.509 456.315 327.052 456.2L324.621 455.541C323.786 455.318 323.234 454.53 323.316 453.658L323.51 451.625C322.91 451.244 322.35 450.819 321.837 450.344L319.934 451.052C319.123 451.358 318.215 451.025 317.782 450.276L316.523 448.095C316.082 447.351 316.248 446.397 316.919 445.848L316.906 445.844Z" fill="white"/>
<path fill-rule="evenodd" clip-rule="evenodd" d="M331.797 445.982C333.971 444.727 334.721 441.928 333.461 439.747C332.202 437.565 329.411 436.811 327.23 438.07C325.048 439.33 324.307 442.124 325.566 444.305C326.825 446.486 329.616 447.241 331.797 445.982ZM326.426 436.678C329.373 434.977 333.152 435.997 334.858 438.951C336.564 441.906 335.557 445.689 332.61 447.39C329.664 449.091 325.885 448.071 324.179 445.117C322.473 442.162 323.48 438.38 326.426 436.678Z" fill="black"/>
<path fill-rule="evenodd" clip-rule="evenodd" d="M262.357 403.453L275.191 406.885L275.214 406.926L273.44 407.95L278.115 416.049L273.875 418.497L270.609 412.84L266.36 415.293L269.626 420.95L265.385 423.398L260.71 415.3L258.935 416.324L258.912 416.284L262.357 403.453Z" fill="white"/>
<path fill-rule="evenodd" clip-rule="evenodd" d="M246.914 516.651L267.116 504.987L255.452 484.786C249.01 473.627 234.746 469.805 223.587 476.248C212.428 482.69 208.606 496.954 215.049 508.113C221.491 519.272 235.755 523.094 246.914 516.651Z" fill="black"/>
<path fill-rule="evenodd" clip-rule="evenodd" d="M325.186 543.173L298.252 558.723L282.703 531.79C274.117 516.92 279.208 497.898 294.086 489.308C308.957 480.722 327.979 485.812 336.569 500.691C345.155 515.561 340.064 534.583 325.186 543.173Z" fill="black"/>
<path fill-rule="evenodd" clip-rule="evenodd" d="M179.984 447.562L195.539 474.503C204.124 489.374 199.034 508.396 184.155 516.986C169.285 525.572 150.262 520.482 141.672 505.603L126.118 478.662L179.984 447.562Z" fill="black"/>
<path fill-rule="evenodd" clip-rule="evenodd" d="M232.074 444.422C225.636 433.272 211.367 429.442 200.208 435.884L180.006 447.548L191.67 467.75C198.112 478.908 212.376 482.73 223.535 476.288C234.694 469.845 238.516 455.581 232.074 444.422Z" fill="black"/>
<path fill-rule="evenodd" clip-rule="evenodd" d="M196.957 454.182C198.021 450.236 202.082 447.891 206.032 448.943L209.263 449.801L210.134 446.574C211.198 442.628 215.26 440.283 219.21 441.335C223.159 442.386 225.499 446.439 224.435 450.385L223.563 453.613L219.714 467.903L205.413 464.092L202.182 463.233C198.232 462.182 195.892 458.129 196.957 454.182Z" fill="white"/>
<path fill-rule="evenodd" clip-rule="evenodd" d="M376.918 477.48L392.468 504.413C385.019 508.692 375.528 506.163 371.247 498.748L371.214 498.691C366.933 491.276 369.488 481.792 376.918 477.48Z" fill="black"/>
<path fill-rule="evenodd" clip-rule="evenodd" d="M149.449 480.33L162.968 503.747L157.897 506.675L144.378 483.258L149.449 480.33ZM162.441 483.248L171.454 498.859L166.367 501.796L157.354 486.185L162.441 483.248ZM173.909 483.561L179.914 493.963L174.835 496.896L168.83 486.494L173.909 483.561ZM184.551 482.463L188.371 489.081L183.292 492.013L179.472 485.396L184.551 482.463Z" fill="white"/>
<path fill-rule="evenodd" clip-rule="evenodd" d="M97.5607 522.151L109.224 542.353L149.62 519.03L137.956 498.829C131.514 487.67 117.25 483.848 106.091 490.291C94.932 496.733 91.1099 510.997 97.5525 522.156L97.5607 522.151Z" fill="black"/>
<path fill-rule="evenodd" clip-rule="evenodd" d="M565.161 368.842L538.317 384.34C530.877 388.635 521.372 386.081 517.082 378.65C512.787 371.211 515.341 361.706 522.772 357.415L549.616 341.917C557.055 337.622 566.56 340.176 570.851 347.607C575.146 355.046 572.592 364.551 565.161 368.842Z" fill="black"/>
<path fill-rule="evenodd" clip-rule="evenodd" d="M376.735 477.631L349.891 493.129C342.452 497.424 332.946 494.87 328.656 487.439C324.361 480 326.915 470.495 334.346 466.204L361.19 450.706C368.629 446.411 378.134 448.965 382.425 456.396C386.72 463.835 384.166 473.34 376.735 477.631Z" fill="black"/>
<path fill-rule="evenodd" clip-rule="evenodd" d="M343.603 467.035L352.696 482.784L349.286 484.753L340.193 469.004L343.603 467.035ZM352.332 468.995L358.389 479.487L354.962 481.465L348.905 470.974L352.332 468.995ZM360.042 469.21L364.079 476.202L360.66 478.176L356.623 471.184L360.042 469.21ZM367.202 468.473L369.773 472.925L366.362 474.894L363.792 470.442L367.202 468.473Z" fill="white"/>
<path fill-rule="evenodd" clip-rule="evenodd" d="M540.504 418.447L556.054 445.38C564.639 460.251 559.549 479.273 544.67 487.863C529.791 496.453 510.777 491.358 502.187 476.48L486.637 449.547L540.504 418.447Z" fill="black"/>
<path fill-rule="evenodd" clip-rule="evenodd" d="M509.968 451.215L523.488 474.632L518.417 477.56L504.897 454.143L509.968 451.215ZM522.961 454.132L531.974 469.743L526.887 472.68L517.873 457.069L522.961 454.132ZM534.428 454.446L540.434 464.848L535.355 467.78L529.349 457.378L534.428 454.446ZM545.07 453.348L548.891 459.965L543.812 462.898L539.991 456.281L545.07 453.348Z" fill="white"/>
<path fill-rule="evenodd" clip-rule="evenodd" d="M458.088 492.954L469.751 513.155L510.147 489.833L498.484 469.631C492.041 458.472 477.777 454.651 466.618 461.093C455.459 467.536 451.637 481.8 458.08 492.959L458.088 492.954Z" fill="black"/>
<path fill-rule="evenodd" clip-rule="evenodd" d="M471.947 488.839C472.313 488.627 472.599 488.277 472.724 487.836C474.394 481.761 480.693 478.124 486.789 479.716C487.67 479.945 488.582 479.419 488.824 478.541C489.066 477.663 488.545 476.76 487.663 476.531C479.813 474.475 471.682 479.17 469.529 487.001C469.287 487.878 469.808 488.782 470.69 489.011C471.134 489.123 471.58 489.05 471.947 488.839Z" fill="white"/>
<path fill-rule="evenodd" clip-rule="evenodd" d="M465.744 487.211C466.11 487 466.396 486.65 466.521 486.209C469.131 476.725 478.98 471.039 488.49 473.525C489.371 473.754 490.282 473.228 490.525 472.35C490.767 471.473 490.245 470.569 489.364 470.34C483.901 468.904 478.187 469.685 473.271 472.523C468.355 475.361 464.822 479.919 463.334 485.368C463.092 486.246 463.614 487.149 464.495 487.379C464.939 487.491 465.394 487.413 465.76 487.202L465.744 487.211Z" fill="white"/>
<path fill-rule="evenodd" clip-rule="evenodd" d="M448.508 507.471C455.948 503.176 458.489 493.667 454.198 486.236L446.426 472.773L419.493 488.323L427.265 501.786C431.56 509.225 441.069 511.766 448.5 507.475L448.508 507.471Z" fill="black"/>
<path fill-rule="evenodd" clip-rule="evenodd" d="M434.447 483.119L447.285 486.559L447.304 486.592L445.53 487.616L450.21 495.723L445.969 498.171L442.699 492.506L438.45 494.959L441.721 500.624L437.48 503.073L432.8 494.966L431.033 495.986L431.015 495.953L434.447 483.119Z" fill="white"/>
</g>
</g>
<defs>
<clipPath id="clip0_857_16313">
<rect width="517.908" height="479" fill="white"/>
</clipPath>
<clipPath id="clip1_857_16313">
<rect width="979" height="404" fill="white" transform="matrix(-0.866025 0.5 0.5 0.866025 879.84 43.5)"/>
</clipPath>
</defs>
</svg>
