<svg width="109" height="110" viewBox="0 0 109 110" fill="none" xmlns="http://www.w3.org/2000/svg">
<rect width="109" height="110" rx="5.44218" fill="white"/>
<rect width="100.7" height="100.7" transform="translate(4.09375 5)" fill="#CED9F4"/>
<g clip-path="url(#clip0_2061_19552)">
<rect width="100.7" height="100.7" transform="translate(4.09375 5)" fill="white"/>
<path d="M5.94019 38.5664C6.77441 38.5664 7.45069 37.8901 7.45069 37.0559C7.45069 36.2217 6.77441 35.5454 5.94019 35.5454C5.10596 35.5454 4.42969 36.2217 4.42969 37.0559C4.42969 37.8901 5.10596 38.5664 5.94019 38.5664Z" fill="black"/>
<path d="M5.94019 44.6084C6.77441 44.6084 7.45069 43.9321 7.45069 43.0979C7.45069 42.2637 6.77441 41.5874 5.94019 41.5874C5.10596 41.5874 4.42969 42.2637 4.42969 43.0979C4.42969 43.9321 5.10596 44.6084 5.94019 44.6084Z" fill="black"/>
<path d="M7.45312 56.6924V53.6714H5.94263C5.54202 53.6714 5.15781 53.8305 4.87454 54.1138C4.59127 54.3971 4.43213 54.7813 4.43213 55.1819C4.43213 55.5825 4.59127 55.9667 4.87454 56.25C5.15781 56.5332 5.54202 56.6924 5.94263 56.6924" fill="black"/>
<path d="M4.42969 68.7764H7.45069V65.7554C7.05396 65.7554 6.66112 65.8335 6.2946 65.9853C5.92808 66.1371 5.59504 66.3597 5.31452 66.6402C5.03399 66.9207 4.81147 67.2538 4.65965 67.6203C4.50783 67.9868 4.42969 68.3796 4.42969 68.7764Z" fill="black"/>
<path d="M7.45312 71.7976V68.7766H4.43213C4.43213 69.1733 4.51027 69.5662 4.66209 69.9327C4.8139 70.2992 5.03643 70.6323 5.31696 70.9128C5.59748 71.1933 5.93051 71.4158 6.29704 71.5676C6.66356 71.7195 7.0564 71.7976 7.45312 71.7976Z" fill="black"/>
<path d="M4.42969 77.8394H7.45069V74.8184C7.05396 74.8184 6.66112 74.8965 6.2946 75.0483C5.92808 75.2001 5.59504 75.4227 5.31452 75.7032C5.03399 75.9837 4.81147 76.3167 4.65965 76.6833C4.50783 77.0498 4.42969 77.4426 4.42969 77.8394Z" fill="black"/>
<path d="M7.45312 77.8394H4.43213V79.3499C4.43213 79.7505 4.59127 80.1347 4.87454 80.4179C5.15782 80.7012 5.54202 80.8604 5.94263 80.8604C6.34323 80.8604 6.72743 80.7012 7.01071 80.4179C7.29398 80.1347 7.45312 79.7505 7.45312 79.3499" fill="black"/>
<path d="M8.96362 35.5459C9.79785 35.5459 10.4741 34.8696 10.4741 34.0354C10.4741 33.2012 9.79785 32.5249 8.96362 32.5249C8.1294 32.5249 7.45312 33.2012 7.45312 34.0354C7.45312 34.8696 8.1294 35.5459 8.96362 35.5459Z" fill="black"/>
<path d="M10.4727 41.5874V38.5664H8.96216C8.56155 38.5664 8.17735 38.7255 7.89407 39.0088C7.6108 39.2921 7.45166 39.6763 7.45166 40.0769C7.45166 40.4775 7.6108 40.8617 7.89407 41.145C8.17735 41.4283 8.56155 41.5874 8.96216 41.5874" fill="black"/>
<path d="M10.4741 53.6716H7.45312V56.6926H10.4741V53.6716Z" fill="black"/>
<path d="M7.45312 62.7344H10.4741V59.7134C9.67291 59.7134 8.9045 60.0317 8.33795 60.5982C7.77141 61.1648 7.45312 61.9332 7.45312 62.7344Z" fill="black"/>
<path d="M10.4741 62.7344H7.45312V65.7554H10.4741V62.7344Z" fill="black"/>
<path d="M10.4741 65.7554H7.45312V68.7764H10.4741V65.7554Z" fill="black"/>
<path d="M10.4727 68.7764H7.45166V71.7974C8.25288 71.7974 9.02128 71.4791 9.58783 70.9125C10.1544 70.346 10.4727 69.5776 10.4727 68.7764Z" fill="black"/>
<path d="M10.4741 74.8186H7.45312V77.8396H10.4741V74.8186Z" fill="black"/>
<path d="M10.4727 38.5664H13.4937V35.5454C12.6924 35.5454 11.924 35.8637 11.3575 36.4302C10.7909 36.9968 10.4727 37.7652 10.4727 38.5664Z" fill="black"/>
<path d="M13.4922 38.5664H10.4712V41.5874C11.2724 41.5874 12.0408 41.2691 12.6074 40.7026C13.1739 40.136 13.4922 39.3676 13.4922 38.5664Z" fill="black"/>
<path d="M13.4922 47.6296V44.6086H11.9817C11.5811 44.6086 11.1969 44.7678 10.9136 45.0511C10.6303 45.3343 10.4712 45.7185 10.4712 46.1191C10.4712 46.5197 10.6303 46.904 10.9136 47.1872C11.1969 47.4705 11.5811 47.6296 11.9817 47.6296" fill="black"/>
<path d="M10.4727 53.6716V56.6926H11.9832C12.3838 56.6926 12.768 56.5335 13.0512 56.2502C13.3345 55.9669 13.4937 55.5827 13.4937 55.1821C13.4937 54.7815 13.3345 54.3973 13.0512 54.114C12.768 53.8308 12.3838 53.6716 11.9832 53.6716" fill="black"/>
<path d="M10.4727 59.7134V62.7344H13.4937C13.4937 61.9332 13.1754 61.1648 12.6088 60.5982C12.0423 60.0317 11.2739 59.7134 10.4727 59.7134Z" fill="black"/>
<path d="M13.4937 62.7344H10.4727V65.7554H13.4937V62.7344Z" fill="black"/>
<path d="M13.4937 65.7554H10.4727V68.7764H13.4937V65.7554Z" fill="black"/>
<path d="M13.4937 74.8186H10.4727V77.8396H13.4937V74.8186Z" fill="black"/>
<path d="M13.4922 35.5454V38.5664H15.0027C15.4033 38.5664 15.7875 38.4073 16.0708 38.124C16.354 37.8407 16.5132 37.4565 16.5132 37.0559C16.5132 36.6553 16.354 36.2711 16.0708 35.9878C15.7875 35.7046 15.4033 35.5454 15.0027 35.5454" fill="black"/>
<path d="M16.5132 44.6086H13.4922V47.6296H16.5132V44.6086Z" fill="black"/>
<path d="M16.5117 53.6716V50.6506H15.0012C14.6006 50.6506 14.2164 50.8098 13.9331 51.093C13.6499 51.3763 13.4907 51.7605 13.4907 52.1611C13.4907 52.5617 13.6499 52.9459 13.9331 53.2292C14.2164 53.5125 14.6006 53.6716 15.0012 53.6716" fill="black"/>
<path d="M16.5132 65.7554H13.4922V68.7764H16.5132V65.7554Z" fill="black"/>
<path d="M13.4922 74.8186H16.5132V73.3081C16.5132 72.9075 16.354 72.5233 16.0708 72.24C15.7875 71.9567 15.4033 71.7976 15.0027 71.7976C14.6021 71.7976 14.2179 71.9567 13.9346 72.24C13.6513 72.5233 13.4922 72.9075 13.4922 73.3081" fill="black"/>
<path d="M16.5132 74.8186H13.4922V77.8396H16.5132V74.8186Z" fill="black"/>
<path d="M18.0222 32.5244C18.8564 32.5244 19.5327 31.8481 19.5327 31.0139C19.5327 30.1797 18.8564 29.5034 18.0222 29.5034C17.188 29.5034 16.5117 30.1797 16.5117 31.0139C16.5117 31.8481 17.188 32.5244 18.0222 32.5244Z" fill="black"/>
<path d="M19.5327 44.6086H16.5117V47.6296H19.5327V44.6086Z" fill="black"/>
<path d="M19.5327 50.6504H16.5117V53.6714H19.5327V50.6504Z" fill="black"/>
<path d="M16.5117 59.7134H19.5327V56.6924C18.7315 56.6924 17.9631 57.0107 17.3965 57.5772C16.83 58.1438 16.5117 58.9122 16.5117 59.7134Z" fill="black"/>
<path d="M19.5352 59.7134H16.5142V61.2239C16.5142 61.6245 16.6733 62.0087 16.9566 62.292C17.2398 62.5752 17.624 62.7344 18.0247 62.7344C18.4253 62.7344 18.8095 62.5752 19.0927 62.292C19.376 62.0087 19.5352 61.6245 19.5352 61.2239" fill="black"/>
<path d="M16.5117 65.7554V68.7764H19.5327C19.5327 67.9752 19.2144 67.2067 18.6479 66.6402C18.0813 66.0737 17.3129 65.7554 16.5117 65.7554Z" fill="black"/>
<path d="M19.5352 71.7976V68.7766H16.5142C16.5142 69.5778 16.8324 70.3462 17.399 70.9128C17.9655 71.4793 18.7339 71.7976 19.5352 71.7976Z" fill="black"/>
<path d="M16.5117 74.8186V77.8396H18.0222C18.4228 77.8396 18.807 77.6805 19.0903 77.3972C19.3736 77.1139 19.5327 76.7297 19.5327 76.3291C19.5327 75.9285 19.3736 75.5443 19.0903 75.261C18.807 74.9777 18.4228 74.8186 18.0222 74.8186" fill="black"/>
<path d="M19.5352 38.5664H22.5562V35.5454C21.7549 35.5454 20.9865 35.8637 20.42 36.4302C19.8534 36.9968 19.5352 37.7652 19.5352 38.5664Z" fill="black"/>
<path d="M22.5547 38.5664H19.5337V40.0769C19.5337 40.4775 19.6928 40.8617 19.9761 41.145C20.2594 41.4283 20.6436 41.5874 21.0442 41.5874C21.4448 41.5874 21.829 41.4283 22.1123 41.145C22.3955 40.8617 22.5547 40.4775 22.5547 40.0769" fill="black"/>
<path d="M19.5352 44.6086V47.6296H22.5562C22.5562 46.8284 22.2379 46.06 21.6713 45.4935C21.1048 44.9269 20.3364 44.6086 19.5352 44.6086Z" fill="black"/>
<path d="M22.5562 47.6296H19.5352V50.6506H22.5562V47.6296Z" fill="black"/>
<path d="M22.5562 50.6504H19.5352V53.6714H22.5562V50.6504Z" fill="black"/>
<path d="M22.5562 53.6716H19.5352V56.6926H22.5562V53.6716Z" fill="black"/>
<path d="M22.5547 56.6924H19.5337V59.7134C20.3349 59.7134 21.1033 59.3951 21.6699 58.8286C22.2364 58.262 22.5547 57.4936 22.5547 56.6924Z" fill="black"/>
<path d="M21.0457 65.7554C21.8799 65.7554 22.5562 65.0791 22.5562 64.2449C22.5562 63.4106 21.8799 62.7344 21.0457 62.7344C20.2114 62.7344 19.5352 63.4106 19.5352 64.2449C19.5352 65.0791 20.2114 65.7554 21.0457 65.7554Z" fill="black"/>
<path d="M19.5352 68.7764V71.7974H22.5562C22.5562 70.9961 22.2379 70.2277 21.6713 69.6612C21.1048 69.0946 20.3364 68.7764 19.5352 68.7764Z" fill="black"/>
<path d="M22.5547 74.8186V71.7976H19.5337C19.5337 72.5988 19.852 73.3672 20.4185 73.9338C20.9851 74.5003 21.7535 74.8186 22.5547 74.8186Z" fill="black"/>
<path d="M22.5547 80.8604V77.8394H21.0442C20.6436 77.8394 20.2594 77.9985 19.9761 78.2818C19.6928 78.565 19.5337 78.9492 19.5337 79.3499C19.5337 79.7505 19.6928 80.1347 19.9761 80.4179C20.2594 80.7012 20.6436 80.8604 21.0442 80.8604" fill="black"/>
<path d="M25.5781 32.5249V29.5039H24.0676C23.667 29.5039 23.2828 29.663 22.9995 29.9463C22.7163 30.2296 22.5571 30.6138 22.5571 31.0144C22.5571 31.415 22.7163 31.7992 22.9995 32.0825C23.2828 32.3658 23.667 32.5249 24.0676 32.5249" fill="black"/>
<path d="M22.5547 35.5454V38.5664H24.0652C24.4658 38.5664 24.85 38.4073 25.1333 38.124C25.4165 37.8407 25.5757 37.4565 25.5757 37.0559C25.5757 36.6553 25.4165 36.2711 25.1333 35.9878C24.85 35.7046 24.4658 35.5454 24.0652 35.5454" fill="black"/>
<path d="M25.5781 44.6086V41.5876H24.0676C23.667 41.5876 23.2828 41.7468 22.9995 42.0301C22.7163 42.3133 22.5571 42.6975 22.5571 43.0981C22.5571 43.4988 22.7163 43.883 22.9995 44.1662C23.2828 44.4495 23.667 44.6086 24.0676 44.6086" fill="black"/>
<path d="M22.5547 47.6296V50.6506H24.0652C24.4658 50.6506 24.85 50.4915 25.1333 50.2082C25.4165 49.9249 25.5757 49.5407 25.5757 49.1401C25.5757 48.7395 25.4165 48.3553 25.1333 48.0721C24.85 47.7888 24.4658 47.6296 24.0652 47.6296" fill="black"/>
<path d="M25.5757 53.6716H22.5547V56.6926H25.5757V53.6716Z" fill="black"/>
<path d="M24.0652 62.7344C24.8994 62.7344 25.5757 62.0581 25.5757 61.2239C25.5757 60.3897 24.8994 59.7134 24.0652 59.7134C23.231 59.7134 22.5547 60.3897 22.5547 61.2239C22.5547 62.0581 23.231 62.7344 24.0652 62.7344Z" fill="black"/>
<path d="M24.0652 68.7764C24.8994 68.7764 25.5757 68.1001 25.5757 67.2659C25.5757 66.4316 24.8994 65.7554 24.0652 65.7554C23.231 65.7554 22.5547 66.4316 22.5547 67.2659C22.5547 68.1001 23.231 68.7764 24.0652 68.7764Z" fill="black"/>
<path d="M25.5757 71.7976H22.5547V74.8186H25.5757V71.7976Z" fill="black"/>
<path d="M22.5547 77.8394V80.8604H24.0652C24.4658 80.8604 24.85 80.7012 25.1333 80.4179C25.4165 80.1347 25.5757 79.7505 25.5757 79.3499C25.5757 78.9492 25.4165 78.565 25.1333 78.2818C24.85 77.9985 24.4658 77.8394 24.0652 77.8394" fill="black"/>
<path d="M28.5991 29.5034H25.5781V32.5244H28.5991V29.5034Z" fill="black"/>
<path d="M28.5977 32.5249H25.5767V34.0354C25.5767 34.436 25.7358 34.8202 26.0191 35.1035C26.3023 35.3868 26.6865 35.5459 27.0872 35.5459C27.4878 35.5459 27.872 35.3868 28.1552 35.1035C28.4385 34.8202 28.5977 34.436 28.5977 34.0354" fill="black"/>
<path d="M28.5991 41.5874H25.5781V44.6084H28.5991V41.5874Z" fill="black"/>
<path d="M28.5977 44.6086H25.5767V46.1191C25.5767 46.5198 25.7358 46.904 26.0191 47.1872C26.3023 47.4705 26.6865 47.6296 27.0872 47.6296C27.4878 47.6296 27.872 47.4705 28.1552 47.1872C28.4385 46.904 28.5977 46.5198 28.5977 46.1191" fill="black"/>
<path d="M25.5781 53.6716H28.5991V52.1611C28.5991 51.7605 28.44 51.3763 28.1567 51.093C27.8734 50.8098 27.4892 50.6506 27.0886 50.6506C26.688 50.6506 26.3038 50.8098 26.0205 51.093C25.7373 51.3763 25.5781 51.7605 25.5781 52.1611" fill="black"/>
<path d="M28.5977 53.6716H25.5767V56.6926C26.3779 56.6926 27.1463 56.3743 27.7128 55.8078C28.2794 55.2413 28.5977 54.4728 28.5977 53.6716Z" fill="black"/>
<path d="M27.0886 65.7554C27.9229 65.7554 28.5991 65.0791 28.5991 64.2449C28.5991 63.4106 27.9229 62.7344 27.0886 62.7344C26.2544 62.7344 25.5781 63.4106 25.5781 64.2449C25.5781 65.0791 26.2544 65.7554 27.0886 65.7554Z" fill="black"/>
<path d="M25.5781 71.7976V74.8186H28.5991C28.5991 74.0174 28.2808 73.249 27.7143 72.6824C27.1477 72.1159 26.3793 71.7976 25.5781 71.7976Z" fill="black"/>
<path d="M28.5977 74.8186H25.5767V76.3291C25.5767 76.7297 25.7358 77.1139 26.0191 77.3972C26.3023 77.6805 26.6865 77.8396 27.0872 77.8396C27.4878 77.8396 27.872 77.6805 28.1552 77.3972C28.4385 77.1139 28.5977 76.7297 28.5977 76.3291" fill="black"/>
<path d="M28.5977 14.3982H31.6187V11.3772C30.8174 11.3772 30.049 11.6955 29.4825 12.262C28.9159 12.8286 28.5977 13.597 28.5977 14.3982Z" fill="black"/>
<path d="M31.6211 17.4197V14.3987H28.6001C28.6001 15.1999 28.9184 15.9683 29.4849 16.5348C30.0515 17.1014 30.8199 17.4197 31.6211 17.4197Z" fill="black"/>
<path d="M28.5977 26.4827H31.6187V24.9722C31.6187 24.5716 31.4595 24.1874 31.1762 23.9041C30.893 23.6208 30.5088 23.4617 30.1082 23.4617C29.7075 23.4617 29.3233 23.6208 29.0401 23.9041C28.7568 24.1874 28.5977 24.5716 28.5977 24.9722" fill="black"/>
<path d="M31.6187 26.4827H28.5977V29.5037H31.6187V26.4827Z" fill="black"/>
<path d="M31.6211 29.5034H28.6001V32.5244C29.4013 32.5244 30.1697 32.2061 30.7363 31.6396C31.3028 31.073 31.6211 30.3046 31.6211 29.5034Z" fill="black"/>
<path d="M28.5977 41.5874H31.6187V38.5664C30.8174 38.5664 30.049 38.8847 29.4825 39.4512C28.9159 40.0178 28.5977 40.7862 28.5977 41.5874Z" fill="black"/>
<path d="M31.6187 41.5874H28.5977V44.6084H31.6187V41.5874Z" fill="black"/>
<path d="M30.1082 59.7134C30.9424 59.7134 31.6187 59.0371 31.6187 58.2029C31.6187 57.3687 30.9424 56.6924 30.1082 56.6924C29.2739 56.6924 28.5977 57.3687 28.5977 58.2029C28.5977 59.0371 29.2739 59.7134 30.1082 59.7134Z" fill="black"/>
<path d="M30.1082 71.7974C30.9424 71.7974 31.6187 71.1211 31.6187 70.2869C31.6187 69.4526 30.9424 68.7764 30.1082 68.7764C29.2739 68.7764 28.5977 69.4526 28.5977 70.2869C28.5977 71.1211 29.2739 71.7974 30.1082 71.7974Z" fill="black"/>
<path d="M28.5977 83.8813H31.6187V80.8603C30.8174 80.8603 30.049 81.1786 29.4825 81.7452C28.9159 82.3117 28.5977 83.0801 28.5977 83.8813Z" fill="black"/>
<path d="M31.6211 86.9023V83.8813H28.6001C28.6001 84.6826 28.9184 85.451 29.4849 86.0175C30.0515 86.5841 30.8199 86.9023 31.6211 86.9023Z" fill="black"/>
<path d="M30.1082 92.9446C30.9424 92.9446 31.6187 92.2683 31.6187 91.4341C31.6187 90.5999 30.9424 89.9236 30.1082 89.9236C29.2739 89.9236 28.5977 90.5999 28.5977 91.4341C28.5977 92.2683 29.2739 92.9446 30.1082 92.9446Z" fill="black"/>
<path d="M34.6421 11.3779H31.6211V14.3989H34.6421V11.3779Z" fill="black"/>
<path d="M34.6406 14.3982H31.6196V17.4192C32.4208 17.4192 33.1892 17.1009 33.7558 16.5344C34.3223 15.9678 34.6406 15.1994 34.6406 14.3982Z" fill="black"/>
<path d="M34.6406 23.4614V20.4404H33.1301C32.7295 20.4404 32.3453 20.5996 32.062 20.8828C31.7788 21.1661 31.6196 21.5503 31.6196 21.9509C31.6196 22.3515 31.7788 22.7357 32.062 23.019C32.3453 23.3023 32.7295 23.4614 33.1301 23.4614" fill="black"/>
<path d="M34.6421 38.5664H31.6211V41.5874H34.6421V38.5664Z" fill="black"/>
<path d="M34.6421 41.5874H31.6211V44.6084H34.6421V41.5874Z" fill="black"/>
<path d="M34.6421 44.6086H31.6211V47.6296H34.6421V44.6086Z" fill="black"/>
<path d="M34.6406 47.6296H31.6196V49.1401C31.6196 49.5407 31.7788 49.925 32.062 50.2082C32.3453 50.4915 32.7295 50.6506 33.1301 50.6506C33.5307 50.6506 33.9149 50.4915 34.1982 50.2082C34.4815 49.925 34.6406 49.5407 34.6406 49.1401" fill="black"/>
<path d="M31.6211 62.7344H34.6421V61.2239C34.6421 60.8233 34.483 60.4391 34.1997 60.1558C33.9164 59.8725 33.5322 59.7134 33.1316 59.7134C32.731 59.7134 32.3468 59.8725 32.0635 60.1558C31.7802 60.4391 31.6211 60.8233 31.6211 61.2239" fill="black"/>
<path d="M34.6406 65.7554V62.7344H31.6196C31.6196 63.5356 31.9379 64.304 32.5045 64.8705C33.071 65.4371 33.8394 65.7554 34.6406 65.7554Z" fill="black"/>
<path d="M34.6406 77.8394V74.8184H33.1301C32.7295 74.8184 32.3453 74.9775 32.062 75.2608C31.7788 75.544 31.6196 75.9282 31.6196 76.3289C31.6196 76.7295 31.7788 77.1137 32.062 77.3969C32.3453 77.6802 32.7295 77.8394 33.1301 77.8394" fill="black"/>
<path d="M31.6211 80.8604V83.8814H34.6421C34.6421 83.0801 34.3238 82.3117 33.7573 81.7452C33.1907 81.1786 32.4223 80.8604 31.6211 80.8604Z" fill="black"/>
<path d="M34.6421 83.8813H31.6211V86.9023H34.6421V83.8813Z" fill="black"/>
<path d="M33.1316 95.9653C33.9658 95.9653 34.6421 95.2891 34.6421 94.4548C34.6421 93.6206 33.9658 92.9443 33.1316 92.9443C32.2974 92.9443 31.6211 93.6206 31.6211 94.4548C31.6211 95.2891 32.2974 95.9653 33.1316 95.9653Z" fill="black"/>
<path d="M34.6406 105.028V102.007H33.1301C32.7295 102.007 32.3453 102.166 32.062 102.45C31.7788 102.733 31.6196 103.117 31.6196 103.518C31.6196 103.918 31.7788 104.303 32.062 104.586C32.3453 104.869 32.7295 105.028 33.1301 105.028" fill="black"/>
<path d="M34.6406 8.35645H37.6616V6.84595C37.6616 6.44534 37.5025 6.06113 37.2192 5.77786C36.9359 5.49459 36.5517 5.33545 36.1511 5.33545C35.7505 5.33545 35.3663 5.49459 35.083 5.77786C34.7998 6.06113 34.6406 6.44534 34.6406 6.84595" fill="black"/>
<path d="M37.6616 8.35645H34.6406V11.3774H37.6616V8.35645Z" fill="black"/>
<path d="M37.6602 11.3779H34.6392V14.3989C35.4404 14.3989 36.2088 14.0806 36.7753 13.5141C37.3419 12.9476 37.6602 12.1791 37.6602 11.3779Z" fill="black"/>
<path d="M37.6616 20.4404H34.6406V23.4614H37.6616V20.4404Z" fill="black"/>
<path d="M37.6616 23.4614H34.6406V26.4824H37.6616V23.4614Z" fill="black"/>
<path d="M37.6602 26.4827H34.6392V27.9932C34.6392 28.3938 34.7983 28.778 35.0816 29.0613C35.3648 29.3445 35.749 29.5037 36.1497 29.5037C36.5503 29.5037 36.9345 29.3445 37.2177 29.0613C37.501 28.778 37.6602 28.3938 37.6602 27.9932" fill="black"/>
<path d="M34.6406 35.5454H37.6616V32.5244C36.8604 32.5244 36.092 32.8427 35.5255 33.4092C34.9589 33.9758 34.6406 34.7442 34.6406 35.5454Z" fill="black"/>
<path d="M37.6616 35.5454H34.6406V38.5664H37.6616V35.5454Z" fill="black"/>
<path d="M37.6616 38.5664H34.6406V41.5874H37.6616V38.5664Z" fill="black"/>
<path d="M37.6602 41.5874H34.6392V44.6084C35.4404 44.6084 36.2088 44.2901 36.7753 43.7236C37.3419 43.157 37.6602 42.3886 37.6602 41.5874Z" fill="black"/>
<path d="M34.6406 53.6716H37.6616V52.1611C37.6616 51.7605 37.5025 51.3763 37.2192 51.093C36.9359 50.8098 36.5517 50.6506 36.1511 50.6506C35.7505 50.6506 35.3663 50.8098 35.083 51.093C34.7998 51.3763 34.6406 51.7605 34.6406 52.1611" fill="black"/>
<path d="M37.6616 53.6716H34.6406V56.6926H37.6616V53.6716Z" fill="black"/>
<path d="M37.6602 56.6924H34.6392V58.2029C34.6392 58.6035 34.7983 58.9877 35.0816 59.271C35.3648 59.5542 35.749 59.7134 36.1497 59.7134C36.5503 59.7134 36.9345 59.5542 37.2177 59.271C37.501 58.9877 37.6602 58.6035 37.6602 58.2029" fill="black"/>
<path d="M37.6616 62.7344H34.6406V65.7554H37.6616V62.7344Z" fill="black"/>
<path d="M37.6616 65.7554H34.6406V68.7764H37.6616V65.7554Z" fill="black"/>
<path d="M37.6616 68.7764H34.6406V71.7974H37.6616V68.7764Z" fill="black"/>
<path d="M37.6616 71.7976H34.6406V74.8186H37.6616V71.7976Z" fill="black"/>
<path d="M37.6616 74.8186H34.6406V77.8396H37.6616V74.8186Z" fill="black"/>
<path d="M34.6406 83.8813V86.9023H36.1511C36.5517 86.9023 36.9359 86.7432 37.2192 86.4599C37.5025 86.1767 37.6616 85.7925 37.6616 85.3918C37.6616 84.9912 37.5025 84.607 37.2192 84.3238C36.9359 84.0405 36.5517 83.8813 36.1511 83.8813" fill="black"/>
<path d="M34.6406 98.9866H37.6616V97.4761C37.6616 97.0755 37.5025 96.6913 37.2192 96.408C36.9359 96.1247 36.5517 95.9656 36.1511 95.9656C35.7505 95.9656 35.3663 96.1247 35.083 96.408C34.7998 96.6913 34.6406 97.0755 34.6406 97.4761" fill="black"/>
<path d="M37.6616 98.9866H34.6406V102.008H37.6616V98.9866Z" fill="black"/>
<path d="M37.6602 102.007H34.6392V105.028C35.4404 105.028 36.2088 104.71 36.7753 104.143C37.3419 103.577 37.6602 102.809 37.6602 102.007Z" fill="black"/>
<path d="M37.6602 20.4404V23.4614H39.1707C39.5713 23.4614 39.9555 23.3023 40.2387 23.019C40.522 22.7357 40.6812 22.3515 40.6812 21.9509C40.6812 21.5503 40.522 21.1661 40.2387 20.8828C39.9555 20.5996 39.5713 20.4404 39.1707 20.4404" fill="black"/>
<path d="M37.6602 32.5249V35.5459H39.1707C39.5713 35.5459 39.9555 35.3868 40.2387 35.1035C40.522 34.8202 40.6812 34.436 40.6812 34.0354C40.6812 33.6348 40.522 33.2506 40.2387 32.9673C39.9555 32.684 39.5713 32.5249 39.1707 32.5249" fill="black"/>
<path d="M37.6602 47.6296H40.6812V46.1191C40.6812 45.7185 40.522 45.3343 40.2387 45.0511C39.9555 44.7678 39.5713 44.6086 39.1707 44.6086C38.77 44.6086 38.3858 44.7678 38.1026 45.0511C37.8193 45.3343 37.6602 45.7185 37.6602 46.1191" fill="black"/>
<path d="M40.6797 47.6296H37.6587V49.1401C37.6587 49.5407 37.8178 49.925 38.1011 50.2082C38.3844 50.4915 38.7686 50.6506 39.1692 50.6506C39.5698 50.6506 39.954 50.4915 40.2373 50.2082C40.5205 49.925 40.6797 49.5407 40.6797 49.1401" fill="black"/>
<path d="M37.6602 62.7344H40.6812V61.2239C40.6812 60.8233 40.522 60.4391 40.2387 60.1558C39.9555 59.8725 39.5713 59.7134 39.1707 59.7134C38.77 59.7134 38.3858 59.8725 38.1026 60.1558C37.8193 60.4391 37.6602 60.8233 37.6602 61.2239" fill="black"/>
<path d="M40.6812 62.7344H37.6602V65.7554H40.6812V62.7344Z" fill="black"/>
<path d="M40.6812 65.7554H37.6602V68.7764H40.6812V65.7554Z" fill="black"/>
<path d="M40.6812 68.7764H37.6602V71.7974H40.6812V68.7764Z" fill="black"/>
<path d="M40.6812 71.7976H37.6602V74.8186H40.6812V71.7976Z" fill="black"/>
<path d="M40.6812 74.8186H37.6602V77.8396H40.6812V74.8186Z" fill="black"/>
<path d="M40.6797 80.8604V77.8394H37.6587C37.6587 78.6406 37.977 79.409 38.5435 79.9755C39.1101 80.5421 39.8785 80.8604 40.6797 80.8604Z" fill="black"/>
<path d="M37.6602 89.9236H40.6812V86.9026C39.8799 86.9026 39.1115 87.2209 38.545 87.7874C37.9784 88.354 37.6602 89.1224 37.6602 89.9236Z" fill="black"/>
<path d="M40.6812 89.9236H37.6602V92.9446H40.6812V89.9236Z" fill="black"/>
<path d="M40.6797 92.9443H37.6587V94.4548C37.6587 94.8554 37.8178 95.2396 38.1011 95.5229C38.3844 95.8062 38.7686 95.9653 39.1692 95.9653C39.5698 95.9653 39.954 95.8062 40.2373 95.5229C40.5205 95.2396 40.6797 94.8554 40.6797 94.4548" fill="black"/>
<path d="M40.6797 8.35645H43.7007V5.33545C42.8995 5.33545 42.1311 5.65373 41.5645 6.22028C40.998 6.78682 40.6797 7.55523 40.6797 8.35645Z" fill="black"/>
<path d="M43.7031 8.35645H40.6821V9.86695C40.6821 10.2676 40.8413 10.6518 41.1245 10.935C41.4078 11.2183 41.792 11.3774 42.1926 11.3774C42.5932 11.3774 42.9774 11.2183 43.2607 10.935C43.544 10.6518 43.7031 10.2676 43.7031 9.86695" fill="black"/>
<path d="M40.6797 26.4827H43.7007V24.9722C43.7007 24.5716 43.5415 24.1874 43.2583 23.9041C42.975 23.6208 42.5908 23.4617 42.1902 23.4617C41.7896 23.4617 41.4054 23.6208 41.1221 23.9041C40.8388 24.1874 40.6797 24.5716 40.6797 24.9722" fill="black"/>
<path d="M43.7031 26.4827H40.6821V27.9932C40.6821 28.3938 40.8413 28.778 41.1245 29.0613C41.4078 29.3445 41.792 29.5037 42.1926 29.5037C42.5932 29.5037 42.9774 29.3445 43.2607 29.0613C43.544 28.778 43.7031 28.3938 43.7031 27.9932" fill="black"/>
<path d="M42.1902 38.5664C43.0244 38.5664 43.7007 37.8901 43.7007 37.0559C43.7007 36.2217 43.0244 35.5454 42.1902 35.5454C41.356 35.5454 40.6797 36.2217 40.6797 37.0559C40.6797 37.8901 41.356 38.5664 42.1902 38.5664Z" fill="black"/>
<path d="M43.7007 68.7764H40.6797V71.7974H43.7007V68.7764Z" fill="black"/>
<path d="M43.7031 71.7976H40.6821V74.8186C41.4833 74.8186 42.2517 74.5003 42.8183 73.9338C43.3848 73.3672 43.7031 72.5988 43.7031 71.7976Z" fill="black"/>
<path d="M43.7007 77.8394H40.6797V80.8604H43.7007V77.8394Z" fill="black"/>
<path d="M43.7031 83.8813V80.8603H40.6821C40.6821 81.6616 41.0004 82.43 41.567 82.9965C42.1335 83.5631 42.9019 83.8813 43.7031 83.8813Z" fill="black"/>
<path d="M43.7007 86.9023H40.6797V89.9233H43.7007V86.9023Z" fill="black"/>
<path d="M40.6797 102.007H43.7007V100.497C43.7007 100.096 43.5415 99.712 43.2583 99.4287C42.975 99.1455 42.5908 98.9863 42.1902 98.9863C41.7896 98.9863 41.4054 99.1455 41.1221 99.4287C40.8388 99.712 40.6797 100.096 40.6797 100.497" fill="black"/>
<path d="M43.7031 102.007H40.6821V103.518C40.6821 103.918 40.8413 104.303 41.1245 104.586C41.4078 104.869 41.792 105.028 42.1926 105.028C42.5932 105.028 42.9774 104.869 43.2607 104.586C43.544 104.303 43.7031 103.918 43.7031 103.518" fill="black"/>
<path d="M46.7241 5.33594H43.7031V8.35694H46.7241V5.33594Z" fill="black"/>
<path d="M43.7031 17.4197H46.7241V14.3987C45.9229 14.3987 45.1545 14.717 44.588 15.2835C44.0214 15.8501 43.7031 16.6185 43.7031 17.4197Z" fill="black"/>
<path d="M46.7241 17.4197H43.7031V20.4407H46.7241V17.4197Z" fill="black"/>
<path d="M46.7227 23.4614V20.4404H43.7017C43.7017 21.2416 44.0199 22.01 44.5865 22.5766C45.153 23.1431 45.9214 23.4614 46.7227 23.4614Z" fill="black"/>
<path d="M46.7227 32.5249V29.5039H45.2122C44.8115 29.5039 44.4273 29.663 44.1441 29.9463C43.8608 30.2296 43.7017 30.6138 43.7017 31.0144C43.7017 31.415 43.8608 31.7992 44.1441 32.0825C44.4273 32.3658 44.8115 32.5249 45.2122 32.5249" fill="black"/>
<path d="M45.2136 41.5874C46.0479 41.5874 46.7241 40.9111 46.7241 40.0769C46.7241 39.2427 46.0479 38.5664 45.2136 38.5664C44.3794 38.5664 43.7031 39.2427 43.7031 40.0769C43.7031 40.9111 44.3794 41.5874 45.2136 41.5874Z" fill="black"/>
<path d="M46.7241 68.7764H43.7031V71.7974H46.7241V68.7764Z" fill="black"/>
<path d="M43.7031 77.8394V80.8604H46.7241C46.7241 80.0591 46.4058 79.2907 45.8393 78.7242C45.2727 78.1576 44.5043 77.8394 43.7031 77.8394Z" fill="black"/>
<path d="M46.7241 80.8604H43.7031V83.8814H46.7241V80.8604Z" fill="black"/>
<path d="M43.7031 86.9023V89.9233H46.7241C46.7241 89.1221 46.4058 88.3537 45.8393 87.7872C45.2727 87.2206 44.5043 86.9023 43.7031 86.9023Z" fill="black"/>
<path d="M46.7227 89.9236H43.7017V91.4341C43.7017 91.8347 43.8608 92.2189 44.1441 92.5022C44.4273 92.7854 44.8115 92.9446 45.2122 92.9446C45.6128 92.9446 45.997 92.7854 46.2802 92.5022C46.5635 92.2189 46.7227 91.8347 46.7227 91.4341" fill="black"/>
<path d="M46.7227 98.9866V95.9656H45.2122C44.8115 95.9656 44.4273 96.1247 44.1441 96.408C43.8608 96.6913 43.7017 97.0755 43.7017 97.4761C43.7017 97.8767 43.8608 98.2609 44.1441 98.5442C44.4273 98.8274 44.8115 98.9866 45.2122 98.9866" fill="black"/>
<path d="M49.7437 5.33594H46.7227V8.35694H49.7437V5.33594Z" fill="black"/>
<path d="M49.7461 11.3779V8.35693H46.7251C46.7251 9.15815 47.0434 9.92655 47.6099 10.4931C48.1765 11.0596 48.9449 11.3779 49.7461 11.3779Z" fill="black"/>
<path d="M49.7437 14.3982H46.7227V17.4192H49.7437V14.3982Z" fill="black"/>
<path d="M49.7437 20.4404H46.7227V23.4614H49.7437V20.4404Z" fill="black"/>
<path d="M49.7437 23.4614H46.7227V26.4824H49.7437V23.4614Z" fill="black"/>
<path d="M49.7437 26.4827H46.7227V29.5037H49.7437V26.4827Z" fill="black"/>
<path d="M49.7461 29.5034H46.7251V32.5244C47.5263 32.5244 48.2947 32.2061 48.8613 31.6396C49.4278 31.073 49.7461 30.3046 49.7461 29.5034Z" fill="black"/>
<path d="M49.7461 38.5664V35.5454H48.2356C47.835 35.5454 47.4508 35.7045 47.1675 35.9878C46.8842 36.2711 46.7251 36.6553 46.7251 37.0559C46.7251 37.4565 46.8842 37.8407 47.1675 38.124C47.4508 38.4073 47.835 38.5664 48.2356 38.5664" fill="black"/>
<path d="M49.7437 68.7764H46.7227V71.7974H49.7437V68.7764Z" fill="black"/>
<path d="M46.7227 80.8604V83.8814H49.7437C49.7437 83.0801 49.4254 82.3117 48.8588 81.7452C48.2923 81.1786 47.5239 80.8604 46.7227 80.8604Z" fill="black"/>
<path d="M49.7461 86.9023V83.8813H46.7251C46.7251 84.6826 47.0434 85.451 47.6099 86.0175C48.1765 86.5841 48.9449 86.9023 49.7461 86.9023Z" fill="black"/>
<path d="M46.7227 95.9653V98.9863H48.2332C48.6338 98.9863 49.018 98.8272 49.3012 98.5439C49.5845 98.2606 49.7437 97.8764 49.7437 97.4758C49.7437 97.0752 49.5845 96.691 49.3012 96.4077C49.018 96.1245 48.6338 95.9653 48.2332 95.9653" fill="black"/>
<path d="M52.7671 5.33594H49.7461V8.35694H52.7671V5.33594Z" fill="black"/>
<path d="M52.7671 8.35645H49.7461V11.3774H52.7671V8.35645Z" fill="black"/>
<path d="M52.7671 11.3779H49.7461V14.3989H52.7671V11.3779Z" fill="black"/>
<path d="M52.7656 14.3982H49.7446V17.4192C50.5458 17.4192 51.3142 17.1009 51.8808 16.5344C52.4473 15.9678 52.7656 15.1994 52.7656 14.3982Z" fill="black"/>
<path d="M52.7671 20.4404H49.7461V23.4614H52.7671V20.4404Z" fill="black"/>
<path d="M49.7461 26.4827V29.5037H51.2566C51.6572 29.5037 52.0414 29.3445 52.3247 29.0613C52.608 28.778 52.7671 28.3938 52.7671 27.9932C52.7671 27.5926 52.608 27.2084 52.3247 26.9251C52.0414 26.6418 51.6572 26.4827 51.2566 26.4827" fill="black"/>
<path d="M49.7461 35.5454H52.7671V34.0349C52.7671 33.6343 52.608 33.2501 52.3247 32.9668C52.0414 32.6836 51.6572 32.5244 51.2566 32.5244C50.856 32.5244 50.4718 32.6836 50.1885 32.9668C49.9052 33.2501 49.7461 33.6343 49.7461 34.0349" fill="black"/>
<path d="M52.7656 35.5454H49.7446V38.5664C50.5458 38.5664 51.3142 38.2481 51.8808 37.6816C52.4473 37.115 52.7656 36.3466 52.7656 35.5454Z" fill="black"/>
<path d="M52.7671 68.7764H49.7461V71.7974H52.7671V68.7764Z" fill="black"/>
<path d="M52.7671 71.7976H49.7461V74.8186H52.7671V71.7976Z" fill="black"/>
<path d="M52.7656 74.8186H49.7446V76.3291C49.7446 76.7297 49.9038 77.1139 50.187 77.3972C50.4703 77.6805 50.8545 77.8396 51.2551 77.8396C51.6557 77.8396 52.0399 77.6805 52.3232 77.3972C52.6065 77.1139 52.7656 76.7297 52.7656 76.3291" fill="black"/>
<path d="M52.7671 83.8813H49.7461V86.9023H52.7671V83.8813Z" fill="black"/>
<path d="M49.7461 92.9443H52.7671V89.9233C51.9659 89.9233 51.1975 90.2416 50.6309 90.8082C50.0644 91.3747 49.7461 92.1431 49.7461 92.9443Z" fill="black"/>
<path d="M52.7656 95.9653V92.9443H49.7446C49.7446 93.7456 50.0629 94.514 50.6295 95.0805C51.196 95.647 51.9644 95.9653 52.7656 95.9653Z" fill="black"/>
<path d="M51.2566 105.028C52.0908 105.028 52.7671 104.352 52.7671 103.518C52.7671 102.684 52.0908 102.007 51.2566 102.007C50.4224 102.007 49.7461 102.684 49.7461 103.518C49.7461 104.352 50.4224 105.028 51.2566 105.028Z" fill="black"/>
<path d="M52.7656 5.33594V8.35694H54.2761C54.6767 8.35694 55.0609 8.1978 55.3442 7.91452C55.6275 7.63125 55.7866 7.24705 55.7866 6.84644C55.7866 6.44583 55.6275 6.06163 55.3442 5.77835C55.0609 5.49508 54.6767 5.33594 54.2761 5.33594" fill="black"/>
<path d="M55.7866 11.3779H52.7656V14.3989H55.7866V11.3779Z" fill="black"/>
<path d="M52.7656 20.4404H55.7866V18.9299C55.7866 18.5293 55.6275 18.1451 55.3442 17.8618C55.0609 17.5786 54.6767 17.4194 54.2761 17.4194C53.8755 17.4194 53.4913 17.5786 53.208 17.8618C52.9248 18.1451 52.7656 18.5293 52.7656 18.9299" fill="black"/>
<path d="M55.7866 20.4404H52.7656V23.4614H55.7866V20.4404Z" fill="black"/>
<path d="M55.7891 23.4614H52.7681V24.9719C52.7681 25.3725 52.9272 25.7567 53.2105 26.04C53.4938 26.3233 53.878 26.4824 54.2786 26.4824C54.6792 26.4824 55.0634 26.3233 55.3466 26.04C55.6299 25.7567 55.7891 25.3725 55.7891 24.9719" fill="black"/>
<path d="M55.7891 32.5249V29.5039H54.2786C53.878 29.5039 53.4938 29.663 53.2105 29.9463C52.9272 30.2296 52.7681 30.6138 52.7681 31.0144C52.7681 31.415 52.9272 31.7992 53.2105 32.0825C53.4938 32.3658 53.878 32.5249 54.2786 32.5249" fill="black"/>
<path d="M55.7866 68.7764H52.7656V71.7974H55.7866V68.7764Z" fill="black"/>
<path d="M52.7656 80.8604H55.7866V79.3499C55.7866 78.9492 55.6275 78.565 55.3442 78.2818C55.0609 77.9985 54.6767 77.8394 54.2761 77.8394C53.8755 77.8394 53.4913 77.9985 53.208 78.2818C52.9248 78.565 52.7656 78.9492 52.7656 79.3499" fill="black"/>
<path d="M55.7866 80.8604H52.7656V83.8814H55.7866V80.8604Z" fill="black"/>
<path d="M55.7866 83.8813H52.7656V86.9023H55.7866V83.8813Z" fill="black"/>
<path d="M55.7866 89.9236H52.7656V92.9446H55.7866V89.9236Z" fill="black"/>
<path d="M55.7891 92.9443H52.7681V95.9653C53.5693 95.9653 54.3377 95.6471 54.9042 95.0805C55.4708 94.514 55.7891 93.7456 55.7891 92.9443Z" fill="black"/>
<path d="M55.7891 11.3779H58.8101V8.35693C58.0088 8.35693 57.2404 8.67521 56.6739 9.24176C56.1073 9.80831 55.7891 10.5767 55.7891 11.3779Z" fill="black"/>
<path d="M58.8086 11.3779H55.7876V14.3989C56.5888 14.3989 57.3572 14.0806 57.9238 13.5141C58.4903 12.9476 58.8086 12.1791 58.8086 11.3779Z" fill="black"/>
<path d="M55.7891 29.5034H58.8101V27.9929C58.8101 27.5923 58.6509 27.2081 58.3676 26.9248C58.0844 26.6416 57.7002 26.4824 57.2996 26.4824C56.899 26.4824 56.5148 26.6416 56.2315 26.9248C55.9482 27.2081 55.7891 27.5923 55.7891 27.9929" fill="black"/>
<path d="M58.8101 29.5034H55.7891V32.5244H58.8101V29.5034Z" fill="black"/>
<path d="M55.7891 68.7764V71.7974H58.8101C58.8101 70.9961 58.4918 70.2277 57.9252 69.6612C57.3587 69.0946 56.5903 68.7764 55.7891 68.7764Z" fill="black"/>
<path d="M58.8101 71.7976H55.7891V74.8186H58.8101V71.7976Z" fill="black"/>
<path d="M58.8086 74.8186H55.7876V76.3291C55.7876 76.7297 55.9467 77.1139 56.23 77.3972C56.5133 77.6805 56.8975 77.8396 57.2981 77.8396C57.6987 77.8396 58.0829 77.6805 58.3662 77.3972C58.6495 77.1139 58.8086 76.7297 58.8086 76.3291" fill="black"/>
<path d="M55.7891 80.8604V83.8814H58.8101C58.8101 83.0801 58.4918 82.3117 57.9252 81.7452C57.3587 81.1786 56.5903 80.8604 55.7891 80.8604Z" fill="black"/>
<path d="M58.8101 83.8813H55.7891V86.9023H58.8101V83.8813Z" fill="black"/>
<path d="M58.8101 86.9023H55.7891V89.9233H58.8101V86.9023Z" fill="black"/>
<path d="M58.8086 89.9236H55.7876V92.9446C56.5888 92.9446 57.3572 92.6263 57.9238 92.0598C58.4903 91.4932 58.8086 90.7248 58.8086 89.9236Z" fill="black"/>
<path d="M55.7891 98.9866H58.8101V95.9656C58.0088 95.9656 57.2404 96.2839 56.6739 96.8504C56.1073 97.4169 55.7891 98.1854 55.7891 98.9866Z" fill="black"/>
<path d="M58.8086 98.9866H55.7876V100.497C55.7876 100.898 55.9467 101.282 56.23 101.565C56.5133 101.848 56.8975 102.008 57.2981 102.008C57.6987 102.008 58.0829 101.848 58.3662 101.565C58.6495 101.282 58.8086 100.898 58.8086 100.497" fill="black"/>
<path d="M58.8086 8.35645H61.8296V5.33545C61.0284 5.33545 60.26 5.65373 59.6934 6.22027C59.1269 6.78682 58.8086 7.55523 58.8086 8.35645Z" fill="black"/>
<path d="M61.8296 8.35645H58.8086V11.3774H61.8296V8.35645Z" fill="black"/>
<path d="M58.8086 17.4197H61.8296V14.3987C61.0284 14.3987 60.26 14.717 59.6934 15.2835C59.1269 15.8501 58.8086 16.6185 58.8086 17.4197Z" fill="black"/>
<path d="M61.8281 20.4404V17.4194H58.8071C58.8071 18.2206 59.1254 18.9891 59.692 19.5556C60.2585 20.1221 61.0269 20.4404 61.8281 20.4404Z" fill="black"/>
<path d="M60.3191 26.4824C61.1533 26.4824 61.8296 25.8062 61.8296 24.9719C61.8296 24.1377 61.1533 23.4614 60.3191 23.4614C59.4849 23.4614 58.8086 24.1377 58.8086 24.9719C58.8086 25.8062 59.4849 26.4824 60.3191 26.4824Z" fill="black"/>
<path d="M58.8086 29.5034V32.5244H61.8296C61.8296 31.7232 61.5113 30.9548 60.9448 30.3882C60.3782 29.8217 59.6098 29.5034 58.8086 29.5034Z" fill="black"/>
<path d="M61.8281 35.5454V32.5244H58.8071C58.8071 33.3256 59.1254 34.094 59.692 34.6606C60.2585 35.2271 61.0269 35.5454 61.8281 35.5454Z" fill="black"/>
<path d="M61.8281 41.5874V38.5664H60.3176C59.917 38.5664 59.5328 38.7255 59.2495 39.0088C58.9663 39.2921 58.8071 39.6763 58.8071 40.0769C58.8071 40.4775 58.9663 40.8617 59.2495 41.145C59.5328 41.4283 59.917 41.5874 60.3176 41.5874" fill="black"/>
<path d="M61.8296 71.7976H58.8086V74.8186H61.8296V71.7976Z" fill="black"/>
<path d="M58.8086 86.9023V89.9233H60.3191C60.7197 89.9233 61.1039 89.7642 61.3872 89.4809C61.6705 89.1977 61.8296 88.8135 61.8296 88.4128C61.8296 88.0122 61.6705 87.628 61.3872 87.3448C61.1039 87.0615 60.7197 86.9023 60.3191 86.9023" fill="black"/>
<path d="M58.8086 95.9653V98.9863H60.3191C60.7197 98.9863 61.1039 98.8272 61.3872 98.5439C61.6705 98.2606 61.8296 97.8764 61.8296 97.4758C61.8296 97.0752 61.6705 96.691 61.3872 96.4077C61.1039 96.1245 60.7197 95.9653 60.3191 95.9653" fill="black"/>
<path d="M61.8281 5.33594V8.35694H64.8491C64.8491 7.55572 64.5308 6.78732 63.9643 6.22077C63.3977 5.65422 62.6293 5.33594 61.8281 5.33594Z" fill="black"/>
<path d="M64.8491 8.35645H61.8281V11.3774H64.8491V8.35645Z" fill="black"/>
<path d="M64.8491 11.3779H61.8281V14.3989H64.8491V11.3779Z" fill="black"/>
<path d="M64.8491 14.3982H61.8281V17.4192H64.8491V14.3982Z" fill="black"/>
<path d="M64.8491 17.4197H61.8281V20.4407H64.8491V17.4197Z" fill="black"/>
<path d="M64.8477 20.4404H61.8267V21.9509C61.8267 22.3515 61.9858 22.7357 62.2691 23.019C62.5523 23.3023 62.9365 23.4614 63.3372 23.4614C63.7378 23.4614 64.122 23.3023 64.4052 23.019C64.6885 22.7357 64.8477 22.3515 64.8477 21.9509" fill="black"/>
<path d="M63.3386 29.5037C64.1729 29.5037 64.8491 28.8274 64.8491 27.9932C64.8491 27.1589 64.1729 26.4827 63.3386 26.4827C62.5044 26.4827 61.8281 27.1589 61.8281 27.9932C61.8281 28.8274 62.5044 29.5037 63.3386 29.5037Z" fill="black"/>
<path d="M64.8491 32.5249H61.8281V35.5459H64.8491V32.5249Z" fill="black"/>
<path d="M64.8491 38.5664H61.8281V41.5874H64.8491V38.5664Z" fill="black"/>
<path d="M61.8281 71.7976V74.8186H63.3386C63.7392 74.8186 64.1234 74.6595 64.4067 74.3762C64.69 74.0929 64.8491 73.7087 64.8491 73.3081C64.8491 72.9075 64.69 72.5233 64.4067 72.24C64.1234 71.9568 63.7392 71.7976 63.3386 71.7976" fill="black"/>
<path d="M61.8281 83.8813H64.8491V80.8603C64.0479 80.8603 63.2795 81.1786 62.713 81.7452C62.1464 82.3117 61.8281 83.0801 61.8281 83.8813Z" fill="black"/>
<path d="M64.8477 83.8813H61.8267V85.3918C61.8267 85.7925 61.9858 86.1767 62.2691 86.4599C62.5523 86.7432 62.9365 86.9023 63.3372 86.9023C63.7378 86.9023 64.122 86.7432 64.4052 86.4599C64.6885 86.1767 64.8477 85.7925 64.8477 85.3918" fill="black"/>
<path d="M61.8281 102.007H64.8491V98.9863C64.0479 98.9863 63.2795 99.3046 62.713 99.8712C62.1464 100.438 61.8281 101.206 61.8281 102.007Z" fill="black"/>
<path d="M64.8477 102.007H61.8267V103.518C61.8267 103.918 61.9858 104.303 62.2691 104.586C62.5523 104.869 62.9365 105.028 63.3372 105.028C63.7378 105.028 64.122 104.869 64.4052 104.586C64.6885 104.303 64.8477 103.918 64.8477 103.518" fill="black"/>
<path d="M64.8477 8.35645V11.3774H66.3582C66.7588 11.3774 67.143 11.2183 67.4262 10.935C67.7095 10.6518 67.8687 10.2676 67.8687 9.86695C67.8687 9.46634 67.7095 9.08213 67.4262 8.79886C67.143 8.51559 66.7588 8.35645 66.3582 8.35645" fill="black"/>
<path d="M64.8477 14.3982V17.4192H67.8687C67.8687 16.618 67.5504 15.8496 66.9838 15.283C66.4173 14.7165 65.6489 14.3982 64.8477 14.3982Z" fill="black"/>
<path d="M67.8711 17.4197H64.8501V20.4407C65.6513 20.4407 66.4197 20.1224 66.9863 19.5558C67.5528 18.9893 67.8711 18.2209 67.8711 17.4197Z" fill="black"/>
<path d="M66.3582 26.4824C67.1924 26.4824 67.8687 25.8062 67.8687 24.9719C67.8687 24.1377 67.1924 23.4614 66.3582 23.4614C65.5239 23.4614 64.8477 24.1377 64.8477 24.9719C64.8477 25.8062 65.5239 26.4824 66.3582 26.4824Z" fill="black"/>
<path d="M64.8477 32.5249V35.5459H67.8687C67.8687 34.7447 67.5504 33.9763 66.9838 33.4097C66.4173 32.8432 65.6489 32.5249 64.8477 32.5249Z" fill="black"/>
<path d="M67.8687 35.5454H64.8477V38.5664H67.8687V35.5454Z" fill="black"/>
<path d="M67.8687 38.5664H64.8477V41.5874H67.8687V38.5664Z" fill="black"/>
<path d="M67.8711 71.7976V68.7766H66.3606C65.96 68.7766 65.5758 68.9358 65.2925 69.219C65.0092 69.5023 64.8501 69.8865 64.8501 70.2871C64.8501 70.6877 65.0092 71.0719 65.2925 71.3552C65.5758 71.6385 65.96 71.7976 66.3606 71.7976" fill="black"/>
<path d="M67.8687 80.8604H64.8477V83.8814H67.8687V80.8604Z" fill="black"/>
<path d="M66.3582 89.9233C67.1924 89.9233 67.8687 89.2471 67.8687 88.4128C67.8687 87.5786 67.1924 86.9023 66.3582 86.9023C65.5239 86.9023 64.8477 87.5786 64.8477 88.4128C64.8477 89.2471 65.5239 89.9233 66.3582 89.9233Z" fill="black"/>
<path d="M64.8477 95.9653H67.8687V92.9443C67.0674 92.9443 66.299 93.2626 65.7325 93.8292C65.1659 94.3957 64.8477 95.1641 64.8477 95.9653Z" fill="black"/>
<path d="M67.8687 95.9653H64.8477V98.9863H67.8687V95.9653Z" fill="black"/>
<path d="M67.8711 98.9866H64.8501V102.008C65.6513 102.008 66.4197 101.689 66.9863 101.123C67.5528 100.556 67.8711 99.7878 67.8711 98.9866Z" fill="black"/>
<path d="M69.3816 8.35669C70.2158 8.35669 70.8921 7.68042 70.8921 6.84619C70.8921 6.01197 70.2158 5.33569 69.3816 5.33569C68.5474 5.33569 67.8711 6.01197 67.8711 6.84619C67.8711 7.68042 68.5474 8.35669 69.3816 8.35669Z" fill="black"/>
<path d="M70.8921 38.5664H67.8711V41.5874H70.8921V38.5664Z" fill="black"/>
<path d="M70.8906 41.5874H67.8696V43.0979C67.8696 43.4985 68.0288 43.8827 68.312 44.166C68.5953 44.4493 68.9795 44.6084 69.3801 44.6084C69.7807 44.6084 70.1649 44.4493 70.4482 44.166C70.7315 43.8827 70.8906 43.4985 70.8906 43.0979" fill="black"/>
<path d="M67.8711 50.6504H70.8921V47.6294C70.0909 47.6294 69.3225 47.9477 68.7559 48.5142C68.1894 49.0808 67.8711 49.8492 67.8711 50.6504Z" fill="black"/>
<path d="M70.8921 50.6504H67.8711V53.6714H70.8921V50.6504Z" fill="black"/>
<path d="M70.8906 53.6716H67.8696V55.1821C67.8696 55.5827 68.0288 55.9669 68.312 56.2502C68.5953 56.5335 68.9795 56.6926 69.3801 56.6926C69.7807 56.6926 70.1649 56.5335 70.4482 56.2502C70.7315 55.9669 70.8906 55.5827 70.8906 55.1821" fill="black"/>
<path d="M69.3816 65.7554C70.2158 65.7554 70.8921 65.0791 70.8921 64.2449C70.8921 63.4106 70.2158 62.7344 69.3816 62.7344C68.5474 62.7344 67.8711 63.4106 67.8711 64.2449C67.8711 65.0791 68.5474 65.7554 69.3816 65.7554Z" fill="black"/>
<path d="M70.8921 68.7764H67.8711V71.7974H70.8921V68.7764Z" fill="black"/>
<path d="M67.8711 80.8604V83.8814H69.3816C69.7822 83.8814 70.1664 83.7222 70.4497 83.4389C70.733 83.1557 70.8921 82.7715 70.8921 82.3709C70.8921 81.9702 70.733 81.586 70.4497 81.3028C70.1664 81.0195 69.7822 80.8604 69.3816 80.8604" fill="black"/>
<path d="M67.8711 92.9443V95.9653H70.8921C70.8921 95.1641 70.5738 94.3957 70.0073 93.8292C69.4407 93.2626 68.6723 92.9443 67.8711 92.9443Z" fill="black"/>
<path d="M70.8906 95.9653H67.8696V98.9863C68.6708 98.9863 69.4392 98.6681 70.0058 98.1015C70.5723 97.535 70.8906 96.7666 70.8906 95.9653Z" fill="black"/>
<path d="M70.8906 105.028V102.007H69.3801C68.9795 102.007 68.5953 102.166 68.312 102.45C68.0288 102.733 67.8696 103.117 67.8696 103.518C67.8696 103.918 68.0288 104.303 68.312 104.586C68.5953 104.869 68.9795 105.028 69.3801 105.028" fill="black"/>
<path d="M70.8906 14.3982H73.9116V12.8877C73.9116 12.4871 73.7525 12.1029 73.4692 11.8196C73.1859 11.5363 72.8017 11.3772 72.4011 11.3772C72.0005 11.3772 71.6163 11.5363 71.333 11.8196C71.0498 12.1029 70.8906 12.4871 70.8906 12.8877" fill="black"/>
<path d="M73.9116 14.3982H70.8906V17.4192H73.9116V14.3982Z" fill="black"/>
<path d="M73.9116 17.4197H70.8906V20.4407H73.9116V17.4197Z" fill="black"/>
<path d="M73.9116 20.4404H70.8906V23.4614H73.9116V20.4404Z" fill="black"/>
<path d="M73.9141 23.4614H70.8931V24.9719C70.8931 25.3725 71.0522 25.7567 71.3355 26.04C71.6188 26.3233 72.003 26.4824 72.4036 26.4824C72.8042 26.4824 73.1884 26.3233 73.4716 26.04C73.7549 25.7567 73.9141 25.3725 73.9141 24.9719" fill="black"/>
<path d="M73.9141 35.5454V32.5244H72.4036C72.003 32.5244 71.6188 32.6836 71.3355 32.9668C71.0522 33.2501 70.8931 33.6343 70.8931 34.0349C70.8931 34.4355 71.0522 34.8197 71.3355 35.103C71.6188 35.3863 72.003 35.5454 72.4036 35.5454" fill="black"/>
<path d="M70.8906 38.5664V41.5874H72.4011C72.8017 41.5874 73.1859 41.4283 73.4692 41.145C73.7525 40.8617 73.9116 40.4775 73.9116 40.0769C73.9116 39.6763 73.7525 39.2921 73.4692 39.0088C73.1859 38.7255 72.8017 38.5664 72.4011 38.5664" fill="black"/>
<path d="M70.8906 47.6296H73.9116V46.1191C73.9116 45.7185 73.7525 45.3343 73.4692 45.0511C73.1859 44.7678 72.8017 44.6086 72.4011 44.6086C72.0005 44.6086 71.6163 44.7678 71.333 45.0511C71.0498 45.3343 70.8906 45.7185 70.8906 46.1191" fill="black"/>
<path d="M73.9116 47.6296H70.8906V50.6506H73.9116V47.6296Z" fill="black"/>
<path d="M73.9141 50.6504H70.8931V53.6714C71.6943 53.6714 72.4627 53.3531 73.0292 52.7866C73.5958 52.22 73.9141 51.4516 73.9141 50.6504Z" fill="black"/>
<path d="M70.8906 59.7134H73.9116V56.6924C73.1104 56.6924 72.342 57.0107 71.7755 57.5772C71.2089 58.1438 70.8906 58.9122 70.8906 59.7134Z" fill="black"/>
<path d="M73.9141 62.7344V59.7134H70.8931C70.8931 60.5146 71.2113 61.283 71.7779 61.8495C72.3444 62.4161 73.1128 62.7344 73.9141 62.7344Z" fill="black"/>
<path d="M70.8906 68.7764H73.9116V67.2659C73.9116 66.8653 73.7525 66.4811 73.4692 66.1978C73.1859 65.9145 72.8017 65.7554 72.4011 65.7554C72.0005 65.7554 71.6163 65.9145 71.333 66.1978C71.0498 66.4811 70.8906 66.8653 70.8906 67.2659" fill="black"/>
<path d="M73.9141 68.7764H70.8931V71.7974C71.6943 71.7974 72.4627 71.4791 73.0292 70.9125C73.5958 70.346 73.9141 69.5776 73.9141 68.7764Z" fill="black"/>
<path d="M70.8906 86.9023H73.9116V85.3918C73.9116 84.9912 73.7525 84.607 73.4692 84.3238C73.1859 84.0405 72.8017 83.8813 72.4011 83.8813C72.0005 83.8813 71.6163 84.0405 71.333 84.3238C71.0498 84.607 70.8906 84.9912 70.8906 85.3918" fill="black"/>
<path d="M73.9141 89.9236V86.9026H70.8931C70.8931 87.7038 71.2113 88.4722 71.7779 89.0388C72.3444 89.6053 73.1128 89.9236 73.9141 89.9236Z" fill="black"/>
<path d="M70.8906 102.007V105.028H72.4011C72.8017 105.028 73.1859 104.869 73.4692 104.586C73.7525 104.303 73.9116 103.918 73.9116 103.518C73.9116 103.117 73.7525 102.733 73.4692 102.45C73.1859 102.166 72.8017 102.007 72.4011 102.007" fill="black"/>
<path d="M75.4246 11.3774C76.2588 11.3774 76.9351 10.7012 76.9351 9.86695C76.9351 9.03272 76.2588 8.35645 75.4246 8.35645C74.5903 8.35645 73.9141 9.03272 73.9141 9.86695C73.9141 10.7012 74.5903 11.3774 75.4246 11.3774Z" fill="black"/>
<path d="M73.9141 14.3982V17.4192H75.4246C75.8252 17.4192 76.2094 17.2601 76.4926 16.9768C76.7759 16.6935 76.9351 16.3093 76.9351 15.9087C76.9351 15.5081 76.7759 15.1239 76.4926 14.8406C76.2094 14.5573 75.8252 14.3982 75.4246 14.3982" fill="black"/>
<path d="M73.9141 32.5249H76.9351V29.5039C76.1338 29.5039 75.3654 29.8222 74.7989 30.3887C74.2323 30.9553 73.9141 31.7237 73.9141 32.5249Z" fill="black"/>
<path d="M76.9351 32.5249H73.9141V35.5459H76.9351V32.5249Z" fill="black"/>
<path d="M76.9336 35.5454H73.9126V37.0559C73.9126 37.4565 74.0717 37.8407 74.355 38.124C74.6383 38.4073 75.0225 38.5664 75.4231 38.5664C75.8237 38.5664 76.2079 38.4073 76.4912 38.124C76.7745 37.8407 76.9336 37.4565 76.9336 37.0559" fill="black"/>
<path d="M76.9351 47.6296H73.9141V50.6506H76.9351V47.6296Z" fill="black"/>
<path d="M73.9141 56.6924H76.9351V55.1819C76.9351 54.7813 76.7759 54.3971 76.4926 54.1138C76.2094 53.8305 75.8252 53.6714 75.4246 53.6714C75.024 53.6714 74.6398 53.8305 74.3565 54.1138C74.0732 54.3971 73.9141 54.7813 73.9141 55.1819" fill="black"/>
<path d="M76.9351 56.6924H73.9141V59.7134H76.9351V56.6924Z" fill="black"/>
<path d="M76.9351 59.7134H73.9141V62.7344H76.9351V59.7134Z" fill="black"/>
<path d="M76.9336 62.7344H73.9126V64.2449C73.9126 64.6455 74.0717 65.0297 74.355 65.313C74.6383 65.5962 75.0225 65.7554 75.4231 65.7554C75.8237 65.7554 76.2079 65.5962 76.4912 65.313C76.7745 65.0297 76.9336 64.6455 76.9336 64.2449" fill="black"/>
<path d="M73.9141 74.8186H76.9351V71.7976C76.1338 71.7976 75.3654 72.1159 74.7989 72.6824C74.2323 73.249 73.9141 74.0174 73.9141 74.8186Z" fill="black"/>
<path d="M76.9351 74.8186H73.9141V77.8396H76.9351V74.8186Z" fill="black"/>
<path d="M76.9351 77.8394H73.9141V80.8604H76.9351V77.8394Z" fill="black"/>
<path d="M76.9336 83.8813V80.8603H73.9126C73.9126 81.6616 74.2309 82.43 74.7974 82.9965C75.364 83.5631 76.1324 83.8813 76.9336 83.8813Z" fill="black"/>
<path d="M76.9351 86.9023H73.9141V89.9233H76.9351V86.9023Z" fill="black"/>
<path d="M78.4441 8.35694C79.2783 8.35694 79.9546 7.68066 79.9546 6.84644C79.9546 6.01221 79.2783 5.33594 78.4441 5.33594C77.6099 5.33594 76.9336 6.01221 76.9336 6.84644C76.9336 7.68066 77.6099 8.35694 78.4441 8.35694Z" fill="black"/>
<path d="M78.4441 14.3989C79.2783 14.3989 79.9546 13.7227 79.9546 12.8884C79.9546 12.0542 79.2783 11.3779 78.4441 11.3779C77.6099 11.3779 76.9336 12.0542 76.9336 12.8884C76.9336 13.7227 77.6099 14.3989 78.4441 14.3989Z" fill="black"/>
<path d="M76.9336 20.4404H79.9546V18.9299C79.9546 18.5293 79.7955 18.1451 79.5122 17.8618C79.2289 17.5786 78.8447 17.4194 78.4441 17.4194C78.0435 17.4194 77.6593 17.5786 77.376 17.8618C77.0927 18.1451 76.9336 18.5293 76.9336 18.9299" fill="black"/>
<path d="M79.9546 20.4404H76.9336V23.4614H79.9546V20.4404Z" fill="black"/>
<path d="M79.9546 23.4614H76.9336V26.4824H79.9546V23.4614Z" fill="black"/>
<path d="M79.9546 26.4827H76.9336V29.5037H79.9546V26.4827Z" fill="black"/>
<path d="M79.9546 29.5034H76.9336V32.5244H79.9546V29.5034Z" fill="black"/>
<path d="M79.9546 32.5249H76.9336V35.5459H79.9546V32.5249Z" fill="black"/>
<path d="M78.4441 41.5874C79.2783 41.5874 79.9546 40.9111 79.9546 40.0769C79.9546 39.2427 79.2783 38.5664 78.4441 38.5664C77.6099 38.5664 76.9336 39.2427 76.9336 40.0769C76.9336 40.9111 77.6099 41.5874 78.4441 41.5874Z" fill="black"/>
<path d="M76.9336 47.6296H79.9546V46.1191C79.9546 45.7185 79.7955 45.3343 79.5122 45.0511C79.2289 44.7678 78.8447 44.6086 78.4441 44.6086C78.0435 44.6086 77.6593 44.7678 77.376 45.0511C77.0927 45.3343 76.9336 45.7185 76.9336 46.1191" fill="black"/>
<path d="M79.957 47.6296H76.936V50.6506C77.7373 50.6506 78.5057 50.3324 79.0722 49.7658C79.6388 49.1993 79.957 48.4309 79.957 47.6296Z" fill="black"/>
<path d="M76.9336 59.7134V62.7344H78.4441C78.8447 62.7344 79.2289 62.5752 79.5122 62.292C79.7955 62.0087 79.9546 61.6245 79.9546 61.2239C79.9546 60.8233 79.7955 60.4391 79.5122 60.1558C79.2289 59.8725 78.8447 59.7134 78.4441 59.7134" fill="black"/>
<path d="M76.9336 71.7976H79.9546V70.2871C79.9546 69.8865 79.7955 69.5023 79.5122 69.219C79.2289 68.9358 78.8447 68.7766 78.4441 68.7766C78.0435 68.7766 77.6593 68.9358 77.376 69.219C77.0927 69.5023 76.9336 69.8865 76.9336 70.2871" fill="black"/>
<path d="M79.9546 71.7976H76.9336V74.8186H79.9546V71.7976Z" fill="black"/>
<path d="M79.9546 74.8186H76.9336V77.8396H79.9546V74.8186Z" fill="black"/>
<path d="M79.9546 77.8394H76.9336V80.8604H79.9546V77.8394Z" fill="black"/>
<path d="M79.9546 80.8604H76.9336V83.8814H79.9546V80.8604Z" fill="black"/>
<path d="M79.9546 83.8813H76.9336V86.9023H79.9546V83.8813Z" fill="black"/>
<path d="M79.9546 86.9023H76.9336V89.9233H79.9546V86.9023Z" fill="black"/>
<path d="M79.957 92.9443V89.9233H76.936C76.936 90.7246 77.2543 91.493 77.8209 92.0595C78.3874 92.6261 79.1558 92.9443 79.957 92.9443Z" fill="black"/>
<path d="M76.9336 102.007H79.9546V100.497C79.9546 100.096 79.7955 99.712 79.5122 99.4287C79.2289 99.1455 78.8447 98.9863 78.4441 98.9863C78.0435 98.9863 77.6593 99.1455 77.376 99.4287C77.0927 99.712 76.9336 100.096 76.9336 100.497" fill="black"/>
<path d="M79.957 102.007H76.936V103.518C76.936 103.918 77.0952 104.303 77.3784 104.586C77.6617 104.869 78.0459 105.028 78.4465 105.028C78.8471 105.028 79.2313 104.869 79.5146 104.586C79.7979 104.303 79.957 103.918 79.957 103.518" fill="black"/>
<path d="M82.978 29.5034H79.957V32.5244H82.978V29.5034Z" fill="black"/>
<path d="M82.978 32.5249H79.957V35.5459H82.978V32.5249Z" fill="black"/>
<path d="M82.9766 35.5454H79.9556V37.0559C79.9556 37.4565 80.1147 37.8407 80.398 38.124C80.6813 38.4073 81.0655 38.5664 81.4661 38.5664C81.8667 38.5664 82.2509 38.4073 82.5341 38.124C82.8174 37.8407 82.9766 37.4565 82.9766 37.0559" fill="black"/>
<path d="M82.9766 44.6086V41.5876H81.4661C81.0655 41.5876 80.6813 41.7468 80.398 42.0301C80.1147 42.3133 79.9556 42.6975 79.9556 43.0981C79.9556 43.4988 80.1147 43.883 80.398 44.1662C80.6813 44.4495 81.0655 44.6086 81.4661 44.6086" fill="black"/>
<path d="M81.4675 53.6714C82.3018 53.6714 82.978 52.9951 82.978 52.1609C82.978 51.3267 82.3018 50.6504 81.4675 50.6504C80.6333 50.6504 79.957 51.3267 79.957 52.1609C79.957 52.9951 80.6333 53.6714 81.4675 53.6714Z" fill="black"/>
<path d="M82.9766 59.7134V56.6924H81.4661C81.0655 56.6924 80.6813 56.8515 80.398 57.1348C80.1147 57.4181 79.9556 57.8023 79.9556 58.2029C79.9556 58.6035 80.1147 58.9877 80.398 59.271C80.6813 59.5542 81.0655 59.7134 81.4661 59.7134" fill="black"/>
<path d="M81.4675 68.7764C82.3018 68.7764 82.978 68.1001 82.978 67.2659C82.978 66.4316 82.3018 65.7554 81.4675 65.7554C80.6333 65.7554 79.957 66.4316 79.957 67.2659C79.957 68.1001 80.6333 68.7764 81.4675 68.7764Z" fill="black"/>
<path d="M82.978 71.7976H79.957V74.8186H82.978V71.7976Z" fill="black"/>
<path d="M82.978 74.8186H79.957V77.8396H82.978V74.8186Z" fill="black"/>
<path d="M82.978 77.8394H79.957V80.8604H82.978V77.8394Z" fill="black"/>
<path d="M82.978 89.9236H79.957V92.9446H82.978V89.9236Z" fill="black"/>
<path d="M82.978 92.9443H79.957V95.9653H82.978V92.9443Z" fill="black"/>
<path d="M82.9766 95.9653H79.9556V97.4758C79.9556 97.8764 80.1147 98.2606 80.398 98.5439C80.6813 98.8272 81.0655 98.9863 81.4661 98.9863C81.8667 98.9863 82.2509 98.8272 82.5341 98.5439C82.8174 98.2606 82.9766 97.8764 82.9766 97.4758" fill="black"/>
<path d="M82.9766 29.5034V32.5244H85.9976C85.9976 31.7232 85.6793 30.9548 85.1127 30.3882C84.5462 29.8217 83.7778 29.5034 82.9766 29.5034Z" fill="black"/>
<path d="M85.9961 32.5249H82.9751V35.5459C83.7763 35.5459 84.5447 35.2276 85.1113 34.6611C85.6778 34.0945 85.9961 33.3261 85.9961 32.5249Z" fill="black"/>
<path d="M82.9766 41.5874V44.6084H84.4871C84.8877 44.6084 85.2719 44.4493 85.5551 44.166C85.8384 43.8827 85.9976 43.4985 85.9976 43.0979C85.9976 42.6973 85.8384 42.3131 85.5551 42.0298C85.2719 41.7465 84.8877 41.5874 84.4871 41.5874" fill="black"/>
<path d="M84.4871 50.6506C85.3213 50.6506 85.9976 49.9744 85.9976 49.1401C85.9976 48.3059 85.3213 47.6296 84.4871 47.6296C83.6528 47.6296 82.9766 48.3059 82.9766 49.1401C82.9766 49.9744 83.6528 50.6506 84.4871 50.6506Z" fill="black"/>
<path d="M85.9976 56.6924H82.9766V59.7134H85.9976V56.6924Z" fill="black"/>
<path d="M85.9961 65.7554V62.7344H84.4856C84.085 62.7344 83.7008 62.8935 83.4175 63.1768C83.1342 63.4601 82.9751 63.8443 82.9751 64.2449C82.9751 64.6455 83.1342 65.0297 83.4175 65.313C83.7008 65.5962 84.085 65.7554 84.4856 65.7554" fill="black"/>
<path d="M85.9976 71.7976H82.9766V74.8186H85.9976V71.7976Z" fill="black"/>
<path d="M85.9976 74.8186H82.9766V77.8396H85.9976V74.8186Z" fill="black"/>
<path d="M85.9976 77.8394H82.9766V80.8604H85.9976V77.8394Z" fill="black"/>
<path d="M84.4871 86.9023C85.3213 86.9023 85.9976 86.2261 85.9976 85.3918C85.9976 84.5576 85.3213 83.8813 84.4871 83.8813C83.6528 83.8813 82.9766 84.5576 82.9766 85.3918C82.9766 86.2261 83.6528 86.9023 84.4871 86.9023Z" fill="black"/>
<path d="M85.9976 89.9236H82.9766V92.9446H85.9976V89.9236Z" fill="black"/>
<path d="M89.0156 38.5664V35.5454H87.5051C87.1045 35.5454 86.7203 35.7045 86.437 35.9878C86.1538 36.2711 85.9946 36.6553 85.9946 37.0559C85.9946 37.4565 86.1538 37.8407 86.437 38.124C86.7203 38.4073 87.1045 38.5664 87.5051 38.5664" fill="black"/>
<path d="M85.9961 56.6924V59.7134H89.0171C89.0171 58.9122 88.6988 58.1438 88.1323 57.5772C87.5657 57.0107 86.7973 56.6924 85.9961 56.6924Z" fill="black"/>
<path d="M89.0171 59.7134H85.9961V62.7344H89.0171V59.7134Z" fill="black"/>
<path d="M89.0171 62.7344H85.9961V65.7554H89.0171V62.7344Z" fill="black"/>
<path d="M85.9961 71.7976H89.0171V70.2871C89.0171 69.8865 88.858 69.5023 88.5747 69.219C88.2914 68.9358 87.9072 68.7766 87.5066 68.7766C87.106 68.7766 86.7218 68.9358 86.4385 69.219C86.1552 69.5023 85.9961 69.8865 85.9961 70.2871" fill="black"/>
<path d="M89.0171 71.7976H85.9961V74.8186H89.0171V71.7976Z" fill="black"/>
<path d="M89.0171 74.8186H85.9961V77.8396H89.0171V74.8186Z" fill="black"/>
<path d="M89.0171 77.8394H85.9961V80.8604H89.0171V77.8394Z" fill="black"/>
<path d="M89.0171 89.9236H85.9961V92.9446H89.0171V89.9236Z" fill="black"/>
<path d="M89.0171 92.9443H85.9961V95.9653H89.0171V92.9443Z" fill="black"/>
<path d="M89.0171 95.9653H85.9961V98.9863H89.0171V95.9653Z" fill="black"/>
<path d="M89.0171 98.9866H85.9961V102.008H89.0171V98.9866Z" fill="black"/>
<path d="M89.0156 102.007H85.9946V103.518C85.9946 103.918 86.1538 104.303 86.437 104.586C86.7203 104.869 87.1045 105.028 87.5051 105.028C87.9057 105.028 88.2899 104.869 88.5732 104.586C88.8565 104.303 89.0156 103.918 89.0156 103.518" fill="black"/>
<path d="M89.0156 35.5454V38.5664H92.0366C92.0366 37.7652 91.7183 36.9968 91.1518 36.4302C90.5852 35.8637 89.8168 35.5454 89.0156 35.5454Z" fill="black"/>
<path d="M92.0366 38.5664H89.0156V41.5874H92.0366V38.5664Z" fill="black"/>
<path d="M92.0366 41.5874H89.0156V44.6084H92.0366V41.5874Z" fill="black"/>
<path d="M92.0366 44.6086H89.0156V47.6296H92.0366V44.6086Z" fill="black"/>
<path d="M92.0366 47.6296H89.0156V50.6506H92.0366V47.6296Z" fill="black"/>
<path d="M92.0391 50.6504H89.0181V52.1609C89.0181 52.5615 89.1772 52.9457 89.4605 53.229C89.7438 53.5122 90.128 53.6714 90.5286 53.6714C90.9292 53.6714 91.3134 53.5122 91.5966 53.229C91.8799 52.9457 92.0391 52.5615 92.0391 52.1609" fill="black"/>
<path d="M92.0366 59.7134H89.0156V62.7344H92.0366V59.7134Z" fill="black"/>
<path d="M92.0366 62.7344H89.0156V65.7554H92.0366V62.7344Z" fill="black"/>
<path d="M92.0391 65.7554H89.0181V67.2659C89.0181 67.6665 89.1772 68.0507 89.4605 68.334C89.7438 68.6172 90.128 68.7764 90.5286 68.7764C90.9292 68.7764 91.3134 68.6172 91.5966 68.334C91.8799 68.0507 92.0391 67.6665 92.0391 67.2659" fill="black"/>
<path d="M92.0366 74.8186H89.0156V77.8396H92.0366V74.8186Z" fill="black"/>
<path d="M92.0366 77.8394H89.0156V80.8604H92.0366V77.8394Z" fill="black"/>
<path d="M92.0366 80.8604H89.0156V83.8814H92.0366V80.8604Z" fill="black"/>
<path d="M92.0366 83.8813H89.0156V86.9023H92.0366V83.8813Z" fill="black"/>
<path d="M92.0366 86.9023H89.0156V89.9233H92.0366V86.9023Z" fill="black"/>
<path d="M92.0391 89.9236H89.0181V92.9446C89.8193 92.9446 90.5877 92.6263 91.1542 92.0598C91.7208 91.4932 92.0391 90.7248 92.0391 89.9236Z" fill="black"/>
<path d="M89.0156 98.9866V102.008H90.5261C90.9267 102.008 91.3109 101.848 91.5942 101.565C91.8775 101.282 92.0366 100.898 92.0366 100.497C92.0366 100.096 91.8775 99.7123 91.5942 99.429C91.3109 99.1457 90.9267 98.9866 90.5261 98.9866" fill="black"/>
<path d="M95.0586 32.5249V29.5039H93.5481C93.1475 29.5039 92.7633 29.663 92.48 29.9463C92.1967 30.2296 92.0376 30.6138 92.0376 31.0144C92.0376 31.415 92.1967 31.7992 92.48 32.0825C92.7633 32.3658 93.1475 32.5249 93.5481 32.5249" fill="black"/>
<path d="M92.0391 38.5664V41.5874H95.0601C95.0601 40.7862 94.7418 40.0178 94.1752 39.4512C93.6087 38.8847 92.8403 38.5664 92.0391 38.5664Z" fill="black"/>
<path d="M95.0601 41.5874H92.0391V44.6084H95.0601V41.5874Z" fill="black"/>
<path d="M95.0601 44.6086H92.0391V47.6296H95.0601V44.6086Z" fill="black"/>
<path d="M95.0586 47.6296H92.0376V50.6506C92.8388 50.6506 93.6072 50.3324 94.1738 49.7658C94.7403 49.1993 95.0586 48.4309 95.0586 47.6296Z" fill="black"/>
<path d="M92.0391 59.7134H95.0601V58.2029C95.0601 57.8023 94.9009 57.4181 94.6176 57.1348C94.3344 56.8515 93.9502 56.6924 93.5496 56.6924C93.149 56.6924 92.7648 56.8515 92.4815 57.1348C92.1982 57.4181 92.0391 57.8023 92.0391 58.2029" fill="black"/>
<path d="M95.0601 59.7134H92.0391V62.7344H95.0601V59.7134Z" fill="black"/>
<path d="M93.5496 71.7974C94.3838 71.7974 95.0601 71.1211 95.0601 70.2869C95.0601 69.4526 94.3838 68.7764 93.5496 68.7764C92.7153 68.7764 92.0391 69.4526 92.0391 70.2869C92.0391 71.1211 92.7153 71.7974 93.5496 71.7974Z" fill="black"/>
<path d="M95.0601 74.8186H92.0391V77.8396H95.0601V74.8186Z" fill="black"/>
<path d="M95.0586 77.8394H92.0376V80.8604C92.8388 80.8604 93.6072 80.5421 94.1738 79.9755C94.7403 79.409 95.0586 78.6406 95.0586 77.8394Z" fill="black"/>
<path d="M92.0391 86.9023V89.9233H93.5496C93.9502 89.9233 94.3344 89.7642 94.6176 89.4809C94.9009 89.1977 95.0601 88.8135 95.0601 88.4128C95.0601 88.0122 94.9009 87.628 94.6176 87.3448C94.3344 87.0615 93.9502 86.9023 93.5496 86.9023" fill="black"/>
<path d="M95.0586 29.5034V32.5244H96.5691C96.9697 32.5244 97.3539 32.3653 97.6372 32.082C97.9205 31.7987 98.0796 31.4145 98.0796 31.0139C98.0796 30.6133 97.9205 30.2291 97.6372 29.9458C97.3539 29.6626 96.9697 29.5034 96.5691 29.5034" fill="black"/>
<path d="M98.0796 41.5874H95.0586V44.6084H98.0796V41.5874Z" fill="black"/>
<path d="M98.0796 59.7134H95.0586V62.7344H98.0796V59.7134Z" fill="black"/>
<path d="M98.0796 62.7344H95.0586V65.7554H98.0796V62.7344Z" fill="black"/>
<path d="M98.082 68.7764V65.7554H95.061C95.061 66.5566 95.3793 67.325 95.9459 67.8915C96.5124 68.4581 97.2808 68.7764 98.082 68.7764Z" fill="black"/>
<path d="M95.0586 74.8186H98.0796V73.3081C98.0796 72.9075 97.9205 72.5233 97.6372 72.24C97.3539 71.9567 96.9697 71.7976 96.5691 71.7976C96.1685 71.7976 95.7843 71.9567 95.501 72.24C95.2177 72.5233 95.0586 72.9075 95.0586 73.3081" fill="black"/>
<path d="M98.0796 74.8186H95.0586V77.8396H98.0796V74.8186Z" fill="black"/>
<path d="M95.0586 83.8813H98.0796V82.3708C98.0796 81.9702 97.9205 81.586 97.6372 81.3028C97.3539 81.0195 96.9697 80.8603 96.5691 80.8603C96.1685 80.8603 95.7843 81.0195 95.501 81.3028C95.2177 81.586 95.0586 81.9702 95.0586 82.3708" fill="black"/>
<path d="M98.082 86.9023V83.8813H95.061C95.061 84.6826 95.3793 85.451 95.9459 86.0175C96.5124 86.5841 97.2808 86.9023 98.082 86.9023Z" fill="black"/>
<path d="M95.0586 95.9653H98.0796V92.9443C97.2784 92.9443 96.51 93.2626 95.9434 93.8292C95.3769 94.3957 95.0586 95.1641 95.0586 95.9653Z" fill="black"/>
<path d="M98.082 95.9653H95.061V97.4758C95.061 97.8764 95.2202 98.2606 95.5034 98.5439C95.7867 98.8272 96.1709 98.9863 96.5715 98.9863C96.9721 98.9863 97.3563 98.8272 97.6396 98.5439C97.9229 98.2606 98.082 97.8764 98.082 97.4758" fill="black"/>
<path d="M98.082 38.5664H101.103V37.0559C101.103 36.6553 100.944 36.2711 100.661 35.9878C100.377 35.7045 99.9931 35.5454 99.5925 35.5454C99.1919 35.5454 98.8077 35.7045 98.5244 35.9878C98.2412 36.2711 98.082 36.6553 98.082 37.0559" fill="black"/>
<path d="M101.103 38.5664H98.082V41.5874H101.103V38.5664Z" fill="black"/>
<path d="M101.103 41.5874H98.082V44.6084H101.103V41.5874Z" fill="black"/>
<path d="M101.102 44.6086H98.0806V46.1191C98.0806 46.5198 98.2397 46.904 98.523 47.1872C98.8063 47.4705 99.1905 47.6296 99.5911 47.6296C99.9917 47.6296 100.376 47.4705 100.659 47.1872C100.942 46.904 101.102 46.5198 101.102 46.1191" fill="black"/>
<path d="M98.082 53.6716H101.103V50.6506C100.302 50.6506 99.5334 50.9689 98.9669 51.5355C98.4003 52.102 98.082 52.8704 98.082 53.6716Z" fill="black"/>
<path d="M101.102 56.6924V53.6714H98.0806C98.0806 54.4726 98.3988 55.241 98.9654 55.8076C99.5319 56.3741 100.3 56.6924 101.102 56.6924Z" fill="black"/>
<path d="M101.103 59.7134H98.082V62.7344H101.103V59.7134Z" fill="black"/>
<path d="M101.103 62.7344H98.082V65.7554H101.103V62.7344Z" fill="black"/>
<path d="M101.103 65.7554H98.082V68.7764H101.103V65.7554Z" fill="black"/>
<path d="M101.102 68.7764H98.0806V70.2869C98.0806 70.6875 98.2397 71.0717 98.523 71.355C98.8063 71.6382 99.1905 71.7974 99.5911 71.7974C99.9917 71.7974 100.376 71.6382 100.659 71.355C100.942 71.0717 101.102 70.6875 101.102 70.2869" fill="black"/>
<path d="M98.082 74.8186V77.8396H101.103C101.103 77.0384 100.785 76.27 100.218 75.7034C99.6517 75.1369 98.8833 74.8186 98.082 74.8186Z" fill="black"/>
<path d="M101.102 77.8394H98.0806V79.3499C98.0806 79.7505 98.2397 80.1347 98.523 80.4179C98.8063 80.7012 99.1905 80.8604 99.5911 80.8604C99.9917 80.8604 100.376 80.7012 100.659 80.4179C100.942 80.1347 101.102 79.7505 101.102 79.3499" fill="black"/>
<path d="M101.103 83.8813H98.082V86.9023H101.103V83.8813Z" fill="black"/>
<path d="M101.103 92.9443H98.082V95.9653H101.103V92.9443Z" fill="black"/>
<path d="M99.5925 105.028C100.427 105.028 101.103 104.352 101.103 103.518C101.103 102.684 100.427 102.007 99.5925 102.007C98.7583 102.007 98.082 102.684 98.082 103.518C98.082 104.352 98.7583 105.028 99.5925 105.028Z" fill="black"/>
<path d="M101.102 50.6504V53.6714H104.123C104.123 52.8702 103.804 52.1018 103.238 51.5352C102.671 50.9687 101.903 50.6504 101.102 50.6504Z" fill="black"/>
<path d="M104.121 53.6716H101.1V56.6926C101.901 56.6926 102.67 56.3743 103.236 55.8078C103.803 55.2413 104.121 54.4728 104.121 53.6716Z" fill="black"/>
<path d="M101.102 59.7134V62.7344H104.123C104.123 61.9332 103.804 61.1648 103.238 60.5982C102.671 60.0317 101.903 59.7134 101.102 59.7134Z" fill="black"/>
<path d="M104.121 62.7344H101.1V65.7554C101.901 65.7554 102.67 65.4371 103.236 64.8705C103.803 64.304 104.121 63.5356 104.121 62.7344Z" fill="black"/>
<path d="M101.102 83.8813H104.123V82.3708C104.123 81.9702 103.963 81.586 103.68 81.3028C103.397 81.0195 103.013 80.8603 102.612 80.8603C102.211 80.8603 101.827 81.0195 101.544 81.3028C101.261 81.586 101.102 81.9702 101.102 82.3708" fill="black"/>
<path d="M104.123 83.8813H101.102V86.9023H104.123V83.8813Z" fill="black"/>
<path d="M104.123 86.9023H101.102V89.9233H104.123V86.9023Z" fill="black"/>
<path d="M104.123 89.9236H101.102V92.9446H104.123V89.9236Z" fill="black"/>
<path d="M104.121 92.9443H101.1V95.9653C101.901 95.9653 102.67 95.647 103.236 95.0805C103.803 94.514 104.121 93.7456 104.121 92.9443Z" fill="black"/>
<path d="M4.42969 8.35645H7.45069V5.33545C7.05396 5.33545 6.66113 5.41359 6.2946 5.56541C5.92808 5.71722 5.59504 5.93975 5.31452 6.22028C5.03399 6.5008 4.81147 6.83383 4.65965 7.20036C4.50783 7.56688 4.42969 7.95972 4.42969 8.35645Z" fill="black"/>
<path d="M7.45069 8.35645H4.42969V11.3774H7.45069V8.35645Z" fill="black"/>
<path d="M7.45069 11.3779H4.42969V14.3989H7.45069V11.3779Z" fill="black"/>
<path d="M7.45069 14.3982H4.42969V17.4192H7.45069V14.3982Z" fill="black"/>
<path d="M7.45069 17.4197H4.42969V20.4407H7.45069V17.4197Z" fill="black"/>
<path d="M7.45069 20.4404H4.42969V23.4614H7.45069V20.4404Z" fill="black"/>
<path d="M7.45312 26.4827V23.4617H4.43213C4.43213 23.8584 4.51027 24.2512 4.66209 24.6178C4.8139 24.9843 5.03643 25.3173 5.31696 25.5978C5.59748 25.8784 5.93051 26.1009 6.29704 26.2527C6.66356 26.4045 7.0564 26.4827 7.45312 26.4827Z" fill="black"/>
<path d="M10.4741 5.33594H7.45312V8.35694H10.4741V5.33594Z" fill="black"/>
<path d="M10.4741 23.4614H7.45312V26.4824H10.4741V23.4614Z" fill="black"/>
<path d="M13.4937 5.33594H10.4727V8.35694H13.4937V5.33594Z" fill="black"/>
<path d="M13.4937 23.4614H10.4727V26.4824H13.4937V23.4614Z" fill="black"/>
<path d="M16.5132 5.33594H13.4922V8.35694H16.5132V5.33594Z" fill="black"/>
<path d="M16.5132 23.4614H13.4922V26.4824H16.5132V23.4614Z" fill="black"/>
<path d="M19.5327 5.33594H16.5117V8.35694H19.5327V5.33594Z" fill="black"/>
<path d="M19.5327 23.4614H16.5117V26.4824H19.5327V23.4614Z" fill="black"/>
<path d="M22.5562 5.33594H19.5352V8.35694H22.5562V5.33594Z" fill="black"/>
<path d="M22.5562 23.4614H19.5352V26.4824H22.5562V23.4614Z" fill="black"/>
<path d="M22.5547 5.33594V8.35694H25.5757C25.5757 7.55572 25.2574 6.78732 24.6909 6.22077C24.1243 5.65422 23.3559 5.33594 22.5547 5.33594Z" fill="black"/>
<path d="M25.5757 8.35645H22.5547V11.3774H25.5757V8.35645Z" fill="black"/>
<path d="M25.5757 11.3779H22.5547V14.3989H25.5757V11.3779Z" fill="black"/>
<path d="M25.5757 14.3982H22.5547V17.4192H25.5757V14.3982Z" fill="black"/>
<path d="M25.5757 17.4197H22.5547V20.4407H25.5757V17.4197Z" fill="black"/>
<path d="M25.5757 20.4404H22.5547V23.4614H25.5757V20.4404Z" fill="black"/>
<path d="M25.5781 23.4614H22.5571V26.4824C23.3583 26.4824 24.1267 26.1641 24.6933 25.5976C25.2598 25.031 25.5781 24.2626 25.5781 23.4614Z" fill="black"/>
<path d="M10.4727 14.3979H13.4937V11.3769C12.6924 11.3769 11.924 11.6952 11.3575 12.2618C10.7909 12.8283 10.4727 13.5967 10.4727 14.3979Z" fill="black"/>
<path d="M13.4937 14.3979H10.4727V17.4189H13.4937V14.3979Z" fill="black"/>
<path d="M13.4961 20.4399V17.4189H10.4751C10.4751 18.2202 10.7934 18.9886 11.3599 19.5551C11.9265 20.1217 12.6949 20.4399 13.4961 20.4399Z" fill="black"/>
<path d="M16.5171 11.3772H13.4961V14.3982H16.5171V11.3772Z" fill="black"/>
<path d="M16.5171 14.3979H13.4961V17.4189H16.5171V14.3979Z" fill="black"/>
<path d="M16.5171 17.4192H13.4961V20.4402H16.5171V17.4192Z" fill="black"/>
<path d="M16.5156 11.3772V14.3982H19.5366C19.5366 13.597 19.2183 12.8286 18.6518 12.262C18.0852 11.6955 17.3168 11.3772 16.5156 11.3772Z" fill="black"/>
<path d="M19.5366 14.3979H16.5156V17.4189H19.5366V14.3979Z" fill="black"/>
<path d="M19.5352 17.4192H16.5142V20.4402C17.3154 20.4402 18.0838 20.1219 18.6503 19.5554C19.2169 18.9888 19.5352 18.2204 19.5352 17.4192Z" fill="black"/>
<path d="M82.9766 8.35645H85.9976V5.33545C85.1963 5.33545 84.4279 5.65373 83.8614 6.22027C83.2948 6.78682 82.9766 7.55523 82.9766 8.35645Z" fill="black"/>
<path d="M85.9976 8.35645H82.9766V11.3774H85.9976V8.35645Z" fill="black"/>
<path d="M85.9976 11.3779H82.9766V14.3989H85.9976V11.3779Z" fill="black"/>
<path d="M85.9976 14.3984H82.9766V17.4194H85.9976V14.3984Z" fill="black"/>
<path d="M85.9976 17.4199H82.9766V20.4409H85.9976V17.4199Z" fill="black"/>
<path d="M85.9976 20.4409H82.9766V23.4619H85.9976V20.4409Z" fill="black"/>
<path d="M86 26.4829V23.4619H82.979C82.979 24.2631 83.2973 25.0315 83.8638 25.5981C84.4304 26.1646 85.1988 26.4829 86 26.4829Z" fill="black"/>
<path d="M89.021 5.33594H86V8.35694H89.021V5.33594Z" fill="black"/>
<path d="M89.021 23.4617H86V26.4827H89.021V23.4617Z" fill="black"/>
<path d="M92.0405 5.33594H89.0195V8.35694H92.0405V5.33594Z" fill="black"/>
<path d="M92.0405 23.4617H89.0195V26.4827H92.0405V23.4617Z" fill="black"/>
<path d="M95.0601 5.33594H92.0391V8.35694H95.0601V5.33594Z" fill="black"/>
<path d="M95.0601 23.4617H92.0391V26.4827H95.0601V23.4617Z" fill="black"/>
<path d="M98.0796 5.33594H95.0586V8.35694H98.0796V5.33594Z" fill="black"/>
<path d="M98.0796 23.4617H95.0586V26.4827H98.0796V23.4617Z" fill="black"/>
<path d="M101.103 5.33594H98.082V8.35694H101.103V5.33594Z" fill="black"/>
<path d="M101.103 23.4617H98.082V26.4827H101.103V23.4617Z" fill="black"/>
<path d="M101.102 5.33594V8.35694H104.123C104.123 7.55572 103.804 6.78732 103.238 6.22077C102.671 5.65422 101.903 5.33594 101.102 5.33594Z" fill="black"/>
<path d="M104.123 8.35645H101.102V11.3774H104.123V8.35645Z" fill="black"/>
<path d="M104.123 11.3779H101.102V14.3989H104.123V11.3779Z" fill="black"/>
<path d="M104.123 14.3984H101.102V17.4194H104.123V14.3984Z" fill="black"/>
<path d="M104.123 17.4199H101.102V20.4409H104.123V17.4199Z" fill="black"/>
<path d="M104.123 20.4409H101.102V23.4619H104.123V20.4409Z" fill="black"/>
<path d="M104.125 23.4617H101.104V26.4827C101.905 26.4827 102.674 26.1644 103.24 25.5978C103.807 25.0313 104.125 24.2629 104.125 23.4617Z" fill="black"/>
<path d="M89.0156 14.3979H92.0366V11.3769C91.2354 11.3769 90.467 11.6952 89.9005 12.2618C89.3339 12.8283 89.0156 13.5967 89.0156 14.3979Z" fill="black"/>
<path d="M92.0366 14.3979H89.0156V17.4189H92.0366V14.3979Z" fill="black"/>
<path d="M92.0391 20.4399V17.4189H89.0181C89.0181 18.2202 89.3363 18.9886 89.9029 19.5551C90.4694 20.1217 91.2378 20.4399 92.0391 20.4399Z" fill="black"/>
<path d="M95.0601 11.3772H92.0391V14.3982H95.0601V11.3772Z" fill="black"/>
<path d="M95.0601 14.3979H92.0391V17.4189H95.0601V14.3979Z" fill="black"/>
<path d="M95.0601 17.4192H92.0391V20.4402H95.0601V17.4192Z" fill="black"/>
<path d="M95.0586 11.3772V14.3982H98.0796C98.0796 13.597 97.7613 12.8286 97.1948 12.262C96.6282 11.6955 95.8598 11.3772 95.0586 11.3772Z" fill="black"/>
<path d="M98.0796 14.3979H95.0586V17.4189H98.0796V14.3979Z" fill="black"/>
<path d="M98.0781 17.4192H95.0571V20.4402C95.8583 20.4402 96.6267 20.1219 97.1933 19.5554C97.7598 18.9888 98.0781 18.2204 98.0781 17.4192Z" fill="black"/>
<path d="M4.42969 86.9028H7.45069V83.8818C7.05396 83.8818 6.66112 83.96 6.2946 84.1118C5.92808 84.2636 5.59504 84.4861 5.31452 84.7667C5.03399 85.0472 4.81147 85.3802 4.65965 85.7467C4.50783 86.1133 4.42969 86.5061 4.42969 86.9028Z" fill="black"/>
<path d="M7.45069 86.9028H4.42969V89.9238H7.45069V86.9028Z" fill="black"/>
<path d="M7.45069 89.9238H4.42969V92.9448H7.45069V89.9238Z" fill="black"/>
<path d="M7.45069 92.9448H4.42969V95.9658H7.45069V92.9448Z" fill="black"/>
<path d="M7.45069 95.9658H4.42969V98.9868H7.45069V95.9658Z" fill="black"/>
<path d="M7.45069 98.9868H4.42969V102.008H7.45069V98.9868Z" fill="black"/>
<path d="M7.45312 105.029V102.008H4.43213C4.43213 102.405 4.51027 102.797 4.66209 103.164C4.8139 103.53 5.03643 103.863 5.31696 104.144C5.59748 104.425 5.93051 104.647 6.29704 104.799C6.66356 104.951 7.0564 105.029 7.45312 105.029Z" fill="black"/>
<path d="M10.4741 83.8818H7.45312V86.9028H10.4741V83.8818Z" fill="black"/>
<path d="M10.4741 102.008H7.45312V105.029H10.4741V102.008Z" fill="black"/>
<path d="M13.4937 83.8818H10.4727V86.9028H13.4937V83.8818Z" fill="black"/>
<path d="M13.4937 102.008H10.4727V105.029H13.4937V102.008Z" fill="black"/>
<path d="M16.5132 83.8818H13.4922V86.9028H16.5132V83.8818Z" fill="black"/>
<path d="M16.5132 102.008H13.4922V105.029H16.5132V102.008Z" fill="black"/>
<path d="M19.5327 83.8818H16.5117V86.9028H19.5327V83.8818Z" fill="black"/>
<path d="M19.5327 102.008H16.5117V105.029H19.5327V102.008Z" fill="black"/>
<path d="M22.5562 83.8818H19.5352V86.9028H22.5562V83.8818Z" fill="black"/>
<path d="M22.5562 102.008H19.5352V105.029H22.5562V102.008Z" fill="black"/>
<path d="M22.5547 83.8818V86.9028H25.5757C25.5757 86.1016 25.2574 85.3332 24.6909 84.7667C24.1243 84.2001 23.3559 83.8818 22.5547 83.8818Z" fill="black"/>
<path d="M25.5757 86.9028H22.5547V89.9238H25.5757V86.9028Z" fill="black"/>
<path d="M25.5757 89.9238H22.5547V92.9448H25.5757V89.9238Z" fill="black"/>
<path d="M25.5757 92.9448H22.5547V95.9658H25.5757V92.9448Z" fill="black"/>
<path d="M25.5757 95.9658H22.5547V98.9868H25.5757V95.9658Z" fill="black"/>
<path d="M25.5757 98.9868H22.5547V102.008H25.5757V98.9868Z" fill="black"/>
<path d="M25.5781 102.008H22.5571V105.029C23.3583 105.029 24.1267 104.711 24.6933 104.144C25.2598 103.577 25.5781 102.809 25.5781 102.008Z" fill="black"/>
<path d="M10.4727 92.9453H13.4937V89.9243C12.6924 89.9243 11.924 90.2426 11.3575 90.8091C10.7909 91.3757 10.4727 92.1441 10.4727 92.9453Z" fill="black"/>
<path d="M13.4937 92.9453H10.4727V95.9663H13.4937V92.9453Z" fill="black"/>
<path d="M13.4961 98.9871V95.9661H10.4751C10.4751 96.7673 10.7934 97.5357 11.3599 98.1022C11.9265 98.6688 12.6949 98.9871 13.4961 98.9871Z" fill="black"/>
<path d="M16.5171 89.9238H13.4961V92.9448H16.5171V89.9238Z" fill="black"/>
<path d="M16.5171 92.9453H13.4961V95.9663H16.5171V92.9453Z" fill="black"/>
<path d="M16.5171 95.9658H13.4961V98.9868H16.5171V95.9658Z" fill="black"/>
<path d="M16.5156 89.9238V92.9448H19.5366C19.5366 92.1436 19.2183 91.3752 18.6518 90.8087C18.0852 90.2421 17.3168 89.9238 16.5156 89.9238Z" fill="black"/>
<path d="M19.5366 92.9453H16.5156V95.9663H19.5366V92.9453Z" fill="black"/>
<path d="M19.5352 95.9658H16.5142V98.9868C17.3154 98.9868 18.0838 98.6685 18.6503 98.102C19.2169 97.5354 19.5352 96.767 19.5352 95.9658Z" fill="black"/>
<g clip-path="url(#clip1_2061_19552)">
<path d="M59.31 42.5947H49.24C45.0689 42.5947 41.6875 45.9761 41.6875 50.1472V60.2172C41.6875 64.3884 45.0689 67.7697 49.24 67.7697H59.31C63.4811 67.7697 66.8625 64.3884 66.8625 60.2172V50.1472C66.8625 45.9761 63.4811 42.5947 59.31 42.5947Z" fill="black"/>
<path fill-rule="evenodd" clip-rule="evenodd" d="M50.2624 52.9467C50.2624 52.3788 50.7167 51.9055 51.3036 51.9055C51.8905 51.9055 52.3448 52.3598 52.3448 52.9467C52.3448 53.5146 51.8905 53.9879 51.3036 53.9879C50.7167 53.9879 50.2624 53.5335 50.2624 52.9467ZM56.2067 52.9467C56.2067 52.3788 56.661 51.9055 57.2478 51.9055C57.8158 51.9055 58.289 52.3598 58.289 52.9467C58.289 53.5146 57.8347 53.9879 57.2478 53.9879C56.6799 53.9879 56.2067 53.5335 56.2067 52.9467ZM54.2757 51.9244C54.8436 51.9244 55.3169 52.3788 55.3169 52.9656C55.3169 53.5335 54.8626 54.0068 54.2757 54.0068C53.7078 54.0068 53.2345 53.5525 53.2345 52.9656C53.2345 52.3788 53.7078 51.9244 54.2757 51.9244ZM54.2757 54.8965C54.8436 54.8965 55.3169 55.3509 55.3169 55.9377C55.3169 56.5057 54.8626 56.9789 54.2757 56.9789C53.7078 56.9789 53.2345 56.5246 53.2345 55.9377C53.2345 55.3509 53.7078 54.8965 54.2757 54.8965ZM54.2757 57.8687C54.8436 57.8687 55.3169 58.323 55.3169 58.9099C55.3169 59.4778 54.8626 59.9511 54.2757 59.9511C53.7078 59.9511 53.2345 59.4967 53.2345 58.9099C53.2345 58.323 53.7078 57.8687 54.2757 57.8687ZM54.2757 47.2485C58.4973 47.2485 61.9427 50.5425 62.1888 54.7072L62.2077 63.1125H54.2757C49.9027 63.1125 46.3438 59.5535 46.3438 55.1805C46.3438 50.8075 49.8838 47.2485 54.2757 47.2485ZM54.2757 48.8766C57.6265 48.8766 60.3714 51.5079 60.5607 54.8019L60.5797 61.4844H54.2757C50.7925 61.4844 47.9718 58.6638 47.9718 55.1805C47.9718 51.6973 50.7925 48.8766 54.2757 48.8766Z" fill="white"/>
</g>
</g>
<defs>
<clipPath id="clip0_2061_19552">
<rect width="100.7" height="100.7" fill="white" transform="translate(4.09375 5)"/>
</clipPath>
<clipPath id="clip1_2061_19552">
<rect width="25.8463" height="25.175" fill="white" transform="translate(41.3555 42.5947)"/>
</clipPath>
</defs>
</svg>
