<svg width="40" height="32" viewBox="0 0 40 32" fill="none" xmlns="http://www.w3.org/2000/svg">
<path d="M16.9 23C17.7333 23.8333 18.7833 24.2253 20.05 24.176C21.3167 24.1267 22.2333 23.668 22.8 22.8L31.25 10.15C31.55 9.68333 31.5087 9.258 31.126 8.874C30.7433 8.49 30.318 8.44867 29.85 8.75L17.2 17.2C16.3333 17.8 15.8587 18.7087 15.776 19.926C15.6933 21.1433 16.068 22.168 16.9 23ZM6.2 32C5.46667 32 4.792 31.8413 4.176 31.524C3.56 31.2067 3.068 30.732 2.7 30.1C1.83333 28.5333 1.16667 26.9087 0.7 25.226C0.233333 23.5433 0 21.8013 0 20C0 17.2333 0.525334 14.6333 1.576 12.2C2.62667 9.76667 4.05133 7.65 5.85 5.85C7.65 4.05 9.76667 2.62533 12.2 1.576C14.6333 0.526667 17.2333 0.00133333 20 0C22.7333 0 25.3 0.516667 27.7 1.55C30.1 2.58333 32.2 3.992 34 5.776C35.8 7.55867 37.2333 9.642 38.3 12.026C39.3667 14.41 39.9167 16.968 39.95 19.7C39.9833 21.5333 39.7753 23.3253 39.326 25.076C38.8767 26.8267 38.1847 28.5013 37.25 30.1C36.8833 30.7333 36.392 31.2087 35.776 31.526C35.16 31.8433 34.484 32.0013 33.748 32H6.2Z" fill="#9CA3AF"/>
</svg>
