<svg width="20" height="21" viewBox="0 0 20 21" fill="none" xmlns="http://www.w3.org/2000/svg">
<path d="M14.5415 19.6249C13.5998 19.6249 12.6082 19.3999 11.5832 18.9666C10.5832 18.5416 9.57484 17.9583 8.5915 17.2499C7.6165 16.5333 6.67484 15.7333 5.78317 14.8583C4.89984 13.9666 4.09984 13.0249 3.3915 12.0583C2.67484 11.0583 2.09984 10.0583 1.6915 9.09159C1.25817 8.05825 1.0415 7.05825 1.0415 6.11659C1.0415 5.46659 1.15817 4.84992 1.38317 4.27492C1.6165 3.68325 1.9915 3.13325 2.49984 2.65825C3.1415 2.02492 3.87484 1.70825 4.65817 1.70825C4.98317 1.70825 5.3165 1.78325 5.59984 1.91659C5.92484 2.06659 6.19984 2.29159 6.39984 2.59159L8.33317 5.31659C8.50817 5.55825 8.6415 5.79159 8.73317 6.02492C8.8415 6.27492 8.89984 6.52492 8.89984 6.76659C8.89984 7.08325 8.80817 7.39159 8.63317 7.68325C8.50817 7.90825 8.3165 8.14992 8.07484 8.39159L7.50817 8.98325C7.5165 9.00825 7.52484 9.02492 7.53317 9.04159C7.63317 9.21659 7.83317 9.51659 8.2165 9.96659C8.62484 10.4333 9.00817 10.8583 9.3915 11.2499C9.88317 11.7333 10.2915 12.1166 10.6748 12.4333C11.1498 12.8333 11.4582 13.0333 11.6415 13.1249L11.6248 13.1666L12.2332 12.5666C12.4915 12.3083 12.7415 12.1166 12.9832 11.9916C13.4415 11.7083 14.0248 11.6583 14.6082 11.8999C14.8248 11.9916 15.0582 12.1166 15.3082 12.2916L18.0748 14.2583C18.3832 14.4666 18.6082 14.7333 18.7415 15.0499C18.8665 15.3666 18.9248 15.6583 18.9248 15.9499C18.9248 16.3499 18.8332 16.7499 18.6582 17.1249C18.4832 17.4999 18.2665 17.8249 17.9915 18.1249C17.5165 18.6499 16.9998 19.0249 16.3998 19.2666C15.8248 19.4999 15.1998 19.6249 14.5415 19.6249ZM4.65817 2.95825C4.19984 2.95825 3.77484 3.15825 3.3665 3.55825C2.98317 3.91659 2.7165 4.30825 2.54984 4.73325C2.37484 5.16659 2.2915 5.62492 2.2915 6.11659C2.2915 6.89159 2.47484 7.73325 2.8415 8.59992C3.2165 9.48325 3.7415 10.3999 4.40817 11.3166C5.07484 12.2333 5.83317 13.1249 6.6665 13.9666C7.49984 14.7916 8.39984 15.5583 9.32484 16.2333C10.2248 16.8916 11.1498 17.4249 12.0665 17.8083C13.4915 18.4166 14.8248 18.5583 15.9248 18.0999C16.3498 17.9249 16.7248 17.6583 17.0665 17.2749C17.2582 17.0666 17.4082 16.8416 17.5332 16.5749C17.6332 16.3666 17.6832 16.1499 17.6832 15.9333C17.6832 15.7999 17.6582 15.6666 17.5915 15.5166C17.5665 15.4666 17.5165 15.3749 17.3582 15.2666L14.5915 13.2999C14.4248 13.1833 14.2748 13.0999 14.1332 13.0416C13.9498 12.9666 13.8748 12.8916 13.5915 13.0666C13.4248 13.1499 13.2748 13.2749 13.1082 13.4416L12.4748 14.0666C12.1498 14.3833 11.6498 14.4583 11.2665 14.3166L11.0415 14.2166C10.6998 14.0333 10.2998 13.7499 9.85817 13.3749C9.45817 13.0333 9.02484 12.6333 8.49984 12.1166C8.0915 11.6999 7.68317 11.2583 7.25817 10.7666C6.8665 10.3083 6.58317 9.91659 6.40817 9.59159L6.30817 9.34159C6.25817 9.14992 6.2415 9.04159 6.2415 8.92492C6.2415 8.62492 6.34984 8.35825 6.55817 8.14992L7.18317 7.49992C7.34984 7.33325 7.47484 7.17492 7.55817 7.03325C7.62484 6.92492 7.64984 6.83325 7.64984 6.74992C7.64984 6.68325 7.62484 6.58325 7.58317 6.48325C7.52484 6.34992 7.43317 6.19992 7.3165 6.04159L5.38317 3.30825C5.29984 3.19159 5.19984 3.10825 5.07484 3.04992C4.9415 2.99159 4.79984 2.95825 4.65817 2.95825ZM11.6248 13.1749L11.4915 13.7416L11.7165 13.1583C11.6748 13.1499 11.6415 13.1583 11.6248 13.1749Z" fill="#8C8C8C"/>
</svg>
