<svg width="22" height="22" viewBox="0 0 22 22" fill="none" xmlns="http://www.w3.org/2000/svg">
<path d="M18.6815 19.3691C18.4982 19.3691 18.324 19.2958 18.1957 19.1675L12.3473 13.3191C12.0815 13.0533 12.0815 12.6133 12.3473 12.3475L19.4332 5.26164C19.6073 5.08747 19.8732 5.0233 20.1115 5.08747C20.3498 5.1608 20.5331 5.3533 20.5881 5.59164C20.7623 6.3708 20.854 7.24163 20.854 8.24996V13.75C20.854 16.2891 20.3223 18.0033 19.1673 19.1675C19.039 19.2958 18.8465 19.3233 18.6815 19.3691ZM13.8048 12.8333L18.6265 17.655C19.204 16.7658 19.479 15.5008 19.479 13.75V8.24996C19.479 7.87413 19.4698 7.5258 19.4423 7.1958L13.8048 12.8333Z" fill="#8C8C8C"/>
<path d="M5.74765 20.6067C5.69265 20.6067 5.64683 20.5975 5.59184 20.5884C2.55767 19.8917 1.146 17.7192 1.146 13.75V8.25004C1.146 3.27254 3.27266 1.14587 8.25016 1.14587H13.7502C17.7193 1.14587 19.8918 2.55755 20.5885 5.59171C20.6435 5.82088 20.5702 6.06838 20.4052 6.23338L6.23348 20.405C6.10515 20.5334 5.93099 20.6067 5.74765 20.6067ZM8.25016 2.52087C4.02433 2.52087 2.521 4.02421 2.521 8.25004V13.75C2.521 16.9309 3.401 18.5259 5.53684 19.1584L19.1493 5.54588C18.526 3.41004 16.9218 2.53004 13.741 2.53004H8.25016V2.52087Z" fill="#8C8C8C"/>
<path d="M13.7499 20.8541H8.24985C7.24152 20.8541 6.37986 20.7716 5.59153 20.5883C5.34403 20.5333 5.15151 20.3499 5.08734 20.1116C5.01401 19.8733 5.08735 19.6166 5.26151 19.4333L12.3474 12.3474C12.6132 12.0816 13.0532 12.0816 13.319 12.3474L19.1674 18.1958C19.2957 18.3241 19.369 18.4983 19.369 18.6816C19.369 18.865 19.2957 19.0391 19.1674 19.1674C18.0032 20.3224 16.289 20.8541 13.7499 20.8541ZM7.19569 19.4425C7.52569 19.47 7.87402 19.4791 8.24985 19.4791H13.7499C15.5099 19.4791 16.7657 19.2041 17.6549 18.6266L12.8332 13.8049L7.19569 19.4425Z" fill="#8C8C8C"/>
<path d="M8.36003 12.2008C7.78253 12.2008 7.20502 11.99 6.74669 11.5592C5.28919 10.175 4.70254 8.65334 5.05087 7.16834C5.39921 5.64667 6.72836 4.62 8.36003 4.62C9.99169 4.62 11.3209 5.64667 11.6692 7.16834C12.0084 8.66251 11.4217 10.175 9.96419 11.5592C9.51503 11.9808 8.93753 12.2008 8.36003 12.2008ZM6.3892 7.47083C6.09587 8.7175 6.93919 9.83584 7.70003 10.56C8.07586 10.9175 8.65336 10.9175 9.02003 10.56C9.7717 9.84501 10.615 8.72666 10.3309 7.47083C10.0834 6.38 9.11169 5.98583 8.36003 5.98583C7.60836 5.98583 6.64587 6.38 6.3892 7.47083Z" fill="#8C8C8C"/>
<path d="M8.38737 8.69918C7.8832 8.69918 7.4707 8.28668 7.4707 7.78251C7.4707 7.27834 7.87404 6.86584 8.38737 6.86584H8.39655C8.90071 6.86584 9.31321 7.27834 9.31321 7.78251C9.31321 8.28668 8.89154 8.69918 8.38737 8.69918Z" fill="#8C8C8C"/>
</svg>
