<svg width="20" height="21" viewBox="0 0 20 21" fill="none" xmlns="http://www.w3.org/2000/svg">
<path d="M14.1665 18.0415H5.83317C5.4915 18.0415 5.20817 17.7582 5.20817 17.4165C5.20817 17.0749 5.4915 16.7915 5.83317 16.7915H14.1665C16.5498 16.7915 17.7082 15.6332 17.7082 13.2499V7.41654C17.7082 5.03321 16.5498 3.87488 14.1665 3.87488H5.83317C3.44984 3.87488 2.2915 5.03321 2.2915 7.41654C2.2915 7.75821 2.00817 8.04154 1.6665 8.04154C1.32484 8.04154 1.0415 7.75821 1.0415 7.41654C1.0415 4.37488 2.7915 2.62488 5.83317 2.62488H14.1665C17.2082 2.62488 18.9582 4.37488 18.9582 7.41654V13.2499C18.9582 16.2915 17.2082 18.0415 14.1665 18.0415Z" fill="#8C8C8C"/>
<path d="M9.99998 11.0582C9.29998 11.0582 8.59165 10.8416 8.04998 10.3999L5.44164 8.31656C5.17498 8.0999 5.12498 7.70823 5.34165 7.44156C5.55831 7.17489 5.94997 7.1249 6.21664 7.34156L8.82497 9.4249C9.45831 9.93323 10.5333 9.93323 11.1666 9.4249L13.775 7.34156C14.0416 7.1249 14.4416 7.16656 14.65 7.44156C14.8666 7.70823 14.825 8.10823 14.55 8.31656L11.9416 10.3999C11.4083 10.8416 10.7 11.0582 9.99998 11.0582Z" fill="#8C8C8C"/>
<path d="M6.6665 14.7083H1.6665C1.32484 14.7083 1.0415 14.4249 1.0415 14.0833C1.0415 13.7416 1.32484 13.4583 1.6665 13.4583H6.6665C7.00817 13.4583 7.2915 13.7416 7.2915 14.0833C7.2915 14.4249 7.00817 14.7083 6.6665 14.7083Z" fill="#8C8C8C"/>
<path d="M4.1665 11.3749H1.6665C1.32484 11.3749 1.0415 11.0915 1.0415 10.7499C1.0415 10.4082 1.32484 10.1249 1.6665 10.1249H4.1665C4.50817 10.1249 4.7915 10.4082 4.7915 10.7499C4.7915 11.0915 4.50817 11.3749 4.1665 11.3749Z" fill="#8C8C8C"/>
</svg>
