<svg width="20" height="20" viewBox="0 0 20 20" fill="none" xmlns="http://www.w3.org/2000/svg">
<path d="M18.125 7.49936V8.25444C18.125 8.94422 17.7463 9.5783 17.1389 9.90532L11.7411 12.8119M1.875 7.49936V8.25444C1.875 8.94422 2.25373 9.5783 2.86106 9.90532L8.25895 12.8119M15.625 14.9032L11.7411 12.8119M11.7411 12.8119L10.8889 12.353C10.334 12.0542 9.66602 12.0542 9.11106 12.353L8.25895 12.8119M8.25895 12.8119L4.375 14.9032M18.125 16.2494C18.125 17.2849 17.2855 18.1244 16.25 18.1244H3.75C2.71447 18.1244 1.875 17.2849 1.875 16.2494L1.875 7.36929C1.875 6.67951 2.25373 6.04543 2.86106 5.71841L9.11106 2.35302C9.66602 2.0542 10.334 2.0542 10.8889 2.35302L17.1389 5.71841C17.7463 6.04543 18.125 6.67951 18.125 7.36929V16.2494Z" stroke="#9CA3AF" stroke-width="1.5" stroke-linecap="round" stroke-linejoin="round"/>
</svg>
