<svg width="36" height="36" viewBox="0 0 36 36" fill="none" xmlns="http://www.w3.org/2000/svg">
<g clip-path="url(#clip0_814_993)">
<path fill-rule="evenodd" clip-rule="evenodd" d="M8.85071 12.9366C8.85071 11.6434 9.89249 10.5908 11.1819 10.5908C12.4713 10.5908 13.513 11.6391 13.513 12.9366C13.513 14.2299 12.4713 15.2825 11.1819 15.2825C9.89249 15.2825 8.85071 14.2299 8.85071 12.9366ZM22.2656 12.9366C22.2656 11.6434 23.3074 10.5908 24.5967 10.5908C25.8819 10.5908 26.9279 11.6391 26.9279 12.9366C26.9279 14.2299 25.8861 15.2825 24.5967 15.2825C23.3116 15.2825 22.2656 14.2299 22.2656 12.9366ZM17.885 10.5908C19.1702 10.5908 20.2162 11.6391 20.2162 12.9366C20.2162 14.2299 19.1744 15.2825 17.885 15.2825C16.5999 15.2825 15.5539 14.2342 15.5539 12.9366C15.5539 11.6434 16.5956 10.5908 17.885 10.5908ZM17.885 17.3362C19.1702 17.3362 20.2162 18.3845 20.2162 19.6821C20.2162 20.9753 19.1744 22.0279 17.885 22.0279C16.5999 22.0279 15.5539 20.9796 15.5539 19.6821C15.5539 18.3888 16.5956 17.3362 17.885 17.3362ZM17.885 24.0902C19.1702 24.0902 20.2162 25.1386 20.2162 26.4361C20.2162 27.7293 19.1744 28.782 17.885 28.782C16.5999 28.782 15.5539 27.7336 15.5539 26.4361C15.5539 25.1386 16.5956 24.0902 17.885 24.0902ZM17.885 0C27.4103 0 35.1937 7.49305 35.7402 16.9409L35.7701 36H17.885C8.00537 36 1.7061e-06 27.9398 1.7061e-06 18.0021C-0.00426782 8.06017 8.00537 0 17.885 0ZM17.885 3.69065C25.4549 3.69065 31.6457 9.64557 32.0769 17.1558L32.1025 32.305H17.885C10.0334 32.305 3.66752 25.899 3.66752 17.9978C3.66325 10.0966 10.0291 3.69065 17.885 3.69065Z" fill="#821EBE"/>
</g>
<defs>
<clipPath id="clip0_814_993">
<rect width="35.7701" height="36" fill="white"/>
</clipPath>
</defs>
</svg>
