<svg width="48" height="48" viewBox="0 0 48 48" fill="none" xmlns="http://www.w3.org/2000/svg">
<rect width="48" height="48" rx="12" fill="#F0F0F0"/>
<path d="M23.9997 36.5418C17.0813 36.5418 11.458 30.9185 11.458 24.0002C11.458 17.0818 17.0813 11.4585 23.9997 11.4585C30.918 11.4585 36.5413 17.0818 36.5413 24.0002C36.5413 30.9185 30.918 36.5418 23.9997 36.5418ZM23.9997 13.2085C18.0497 13.2085 13.208 18.0502 13.208 24.0002C13.208 29.9502 18.0497 34.7918 23.9997 34.7918C29.9497 34.7918 34.7913 29.9502 34.7913 24.0002C34.7913 18.0502 29.9497 13.2085 23.9997 13.2085Z" fill="#262626"/>
<path d="M20.5003 35.375H19.3336C18.8553 35.375 18.4586 34.9783 18.4586 34.5C18.4586 34.0217 18.8319 33.6367 19.3103 33.625C17.4786 27.3717 17.4786 20.6283 19.3103 14.375C18.8319 14.3633 18.4586 13.9783 18.4586 13.5C18.4586 13.0217 18.8553 12.625 19.3336 12.625H20.5003C20.7803 12.625 21.0486 12.765 21.2119 12.9867C21.3753 13.22 21.4219 13.5117 21.3286 13.78C19.1353 20.3717 19.1353 27.6283 21.3286 34.2317C21.4219 34.5 21.3753 34.7917 21.2119 35.025C21.0486 35.235 20.7803 35.375 20.5003 35.375Z" fill="#262626"/>
<path d="M27.4998 35.3751C27.4065 35.3751 27.3131 35.3635 27.2198 35.3285C26.7648 35.1768 26.5081 34.6751 26.6715 34.2201C28.8648 27.6285 28.8648 20.3718 26.6715 13.7685C26.5198 13.3135 26.7648 12.8118 27.2198 12.6601C27.6865 12.5085 28.1765 12.7535 28.3281 13.2085C30.6498 20.1618 30.6498 27.8151 28.3281 34.7568C28.2115 35.1418 27.8615 35.3751 27.4998 35.3751Z" fill="#262626"/>
<path d="M24 30.0666C20.745 30.0666 17.5017 29.6116 14.375 28.6899C14.3633 29.1566 13.9783 29.5416 13.5 29.5416C13.0217 29.5416 12.625 29.1449 12.625 28.6666V27.4999C12.625 27.2199 12.765 26.9516 12.9867 26.7883C13.22 26.6249 13.5117 26.5783 13.78 26.6716C20.3717 28.8649 27.64 28.8649 34.2317 26.6716C34.5 26.5783 34.7917 26.6249 35.025 26.7883C35.2583 26.9516 35.3867 27.2199 35.3867 27.4999V28.6666C35.3867 29.1449 34.99 29.5416 34.5117 29.5416C34.0333 29.5416 33.6483 29.1683 33.6367 28.6899C30.4983 29.6116 27.255 30.0666 24 30.0666Z" fill="#262626"/>
<path d="M34.5004 21.375C34.4071 21.375 34.3137 21.3633 34.2204 21.3283C27.6287 19.135 20.3604 19.135 13.7687 21.3283C13.3021 21.48 12.8121 21.235 12.6604 20.78C12.5204 20.3133 12.7654 19.8233 13.2204 19.6717C20.1737 17.35 27.8271 17.35 34.7687 19.6717C35.2237 19.8233 35.4804 20.325 35.3171 20.78C35.2121 21.1417 34.8621 21.375 34.5004 21.375Z" fill="#262626"/>
</svg>
