<svg width="48" height="48" viewBox="0 0 48 48" fill="none" xmlns="http://www.w3.org/2000/svg">
<rect width="48" height="48" rx="12" fill="#F0F0F0"/>
<path d="M22.6463 25.7966H20.8963C19.5547 25.7966 18.4697 24.6766 18.4697 23.2882C18.4697 22.8099 18.8663 22.4132 19.3447 22.4132C19.823 22.4132 20.2197 22.8099 20.2197 23.2882C20.2197 23.7082 20.523 24.0466 20.8963 24.0466H22.6463C22.9147 24.0466 23.1247 23.8016 23.1247 23.4982C23.1247 23.0899 23.0547 23.0666 22.7863 22.9732L19.9747 21.9932C18.9597 21.6432 18.458 20.9316 18.458 19.8232C18.458 18.5632 19.4613 17.5249 20.6863 17.5249H22.4363C23.778 17.5249 24.863 18.6449 24.863 20.0332C24.863 20.5116 24.4663 20.9082 23.988 20.9082C23.5097 20.9082 23.113 20.5116 23.113 20.0332C23.113 19.6132 22.8097 19.2749 22.4363 19.2749H20.6863C20.418 19.2749 20.208 19.5199 20.208 19.8232C20.208 20.2316 20.278 20.2549 20.5463 20.3482L23.358 21.3282C24.373 21.6899 24.863 22.4016 24.863 23.4982C24.8747 24.7699 23.8713 25.7966 22.6463 25.7966Z" fill="#262626"/>
<path d="M21.667 26.73C21.1887 26.73 20.792 26.3334 20.792 25.855V24.9917C20.792 24.5134 21.1887 24.1167 21.667 24.1167C22.1453 24.1167 22.542 24.5134 22.542 24.9917V25.855C22.542 26.345 22.1453 26.73 21.667 26.73Z" fill="#262626"/>
<path d="M21.667 19.2633C21.1887 19.2633 20.792 18.8666 20.792 18.3883V17.4783C20.792 16.9999 21.1887 16.6033 21.667 16.6033C22.1453 16.6033 22.542 16.9999 22.542 17.4783V18.3883C22.542 18.8666 22.1453 19.2633 21.667 19.2633Z" fill="#262626"/>
<path d="M21.6547 31.8401C16.0313 31.8401 11.458 27.2668 11.458 21.6434C11.458 16.0201 16.0313 11.4468 21.6547 11.4468C27.278 11.4468 31.8513 16.0201 31.8513 21.6434C31.8513 27.2668 27.2663 31.8401 21.6547 31.8401ZM21.6547 13.2084C16.9997 13.2084 13.208 17.0001 13.208 21.6551C13.208 26.3101 16.9997 30.0901 21.6547 30.0901C26.3097 30.0901 30.1013 26.2984 30.1013 21.6434C30.1013 16.9884 26.3097 13.2084 21.6547 13.2084Z" fill="#262626"/>
<path d="M29.8569 36.5068C27.6985 36.5068 25.6685 35.4568 24.4202 33.6834C24.1402 33.2868 24.2335 32.7384 24.6302 32.4584C25.0269 32.1784 25.5752 32.2718 25.8552 32.6684C26.7769 33.9751 28.2702 34.7451 29.8569 34.7451C32.5635 34.7451 34.7569 32.5518 34.7569 29.8451C34.7569 28.2701 33.9869 26.7768 32.7035 25.8551C32.3069 25.5751 32.2252 25.0268 32.5052 24.6301C32.7852 24.2334 33.3335 24.1518 33.7302 24.4318C35.4685 25.6801 36.5069 27.6984 36.5069 29.8451C36.5069 33.5318 33.5319 36.5068 29.8569 36.5068Z" fill="#262626"/>
</svg>
