<svg width="48" height="48" viewBox="0 0 48 48" fill="none" xmlns="http://www.w3.org/2000/svg">
<rect width="48" height="48" rx="12" fill="#F0F0F0"/>
<path d="M19.3336 35.375C19.2986 35.375 19.2636 35.375 19.2402 35.375C18.7619 35.3166 18.4119 34.885 18.4702 34.4066L20.8036 13.4066C20.8619 12.9283 21.2936 12.59 21.7719 12.6366C22.2502 12.695 22.6002 13.1266 22.5419 13.605L20.2086 34.605C20.1502 35.0483 19.7769 35.375 19.3336 35.375Z" fill="#262626"/>
<path d="M26.3336 35.375C26.2986 35.375 26.2636 35.375 26.2402 35.375C25.7619 35.3166 25.4119 34.885 25.4702 34.4066L27.8036 13.4066C27.8619 12.9283 28.2819 12.59 28.7719 12.6366C29.2502 12.695 29.6002 13.1266 29.5419 13.605L27.2086 34.605C27.1502 35.0483 26.7769 35.375 26.3336 35.375Z" fill="#262626"/>
<path d="M35.083 21.375H14.083C13.6047 21.375 13.208 20.9783 13.208 20.5C13.208 20.0217 13.6047 19.625 14.083 19.625H35.083C35.5613 19.625 35.958 20.0217 35.958 20.5C35.958 20.9783 35.5613 21.375 35.083 21.375Z" fill="#262626"/>
<path d="M33.917 28.375H12.917C12.4387 28.375 12.042 27.9783 12.042 27.5C12.042 27.0217 12.4387 26.625 12.917 26.625H33.917C34.3953 26.625 34.792 27.0217 34.792 27.5C34.792 27.9783 34.3953 28.375 33.917 28.375Z" fill="#262626"/>
</svg>
