<svg width="48" height="48" viewBox="0 0 48 48" fill="none" xmlns="http://www.w3.org/2000/svg">
<rect width="48" height="48" rx="12" fill="#F0F0F0"/>
<path d="M27.7796 36.5416H20.2196C18.0146 36.5416 16.4046 35.6199 15.7863 34.0333C15.1446 32.3766 15.7396 30.3233 17.2796 28.9349L22.693 23.9999L17.2796 19.0649C15.7396 17.6766 15.1446 15.6233 15.7863 13.9666C16.4046 12.3683 18.0146 11.4583 20.2196 11.4583H27.7796C29.9846 11.4583 31.5946 12.3799 32.213 13.9666C32.8546 15.6233 32.2596 17.6766 30.7196 19.0649L25.3063 23.9999L30.7313 28.9349C32.2596 30.3233 32.8663 32.3766 32.2246 34.0333C31.5946 35.6199 29.9846 36.5416 27.7796 36.5416ZM23.9996 25.1783L18.458 30.2183C17.478 31.1166 17.0463 32.4233 17.4196 33.3916C17.7696 34.2899 18.7613 34.7916 20.2196 34.7916H27.7796C29.238 34.7916 30.2296 34.3016 30.5796 33.3916C30.953 32.4233 30.533 31.1166 29.5413 30.2183L23.9996 25.1783ZM20.2196 13.2083C18.7613 13.2083 17.7696 13.6983 17.4196 14.6083C17.0463 15.5766 17.4663 16.8833 18.458 17.7816L23.9996 22.8216L29.5413 17.7816C30.5213 16.8833 30.953 15.5766 30.5796 14.6083C30.2296 13.7099 29.238 13.2083 27.7796 13.2083H20.2196Z" fill="#262626"/>
</svg>
