<svg width="48" height="48" viewBox="0 0 48 48" fill="none" xmlns="http://www.w3.org/2000/svg">
<rect width="48" height="48" rx="12" fill="#F0F0F0"/>
<path d="M32.3297 33.6251C32.108 33.6251 31.8863 33.5434 31.7113 33.3801C31.3613 33.0417 31.3613 32.4934 31.6997 32.1434C33.6947 30.1134 34.7913 27.4301 34.7913 24.5834C34.7913 18.6334 29.9497 13.7917 23.9997 13.7917C18.0497 13.7917 13.208 18.6334 13.208 24.5834C13.208 27.4184 14.293 30.0901 16.2763 32.1201C16.6147 32.4701 16.603 33.0184 16.2647 33.3568C15.9147 33.6951 15.3663 33.6834 15.028 33.3451C12.7297 30.9884 11.458 27.8734 11.458 24.5834C11.458 17.6651 17.0813 12.0417 23.9997 12.0417C30.918 12.0417 36.5413 17.6651 36.5413 24.5834C36.5413 27.8851 35.2697 31.0117 32.948 33.3684C32.7847 33.5434 32.5513 33.6251 32.3297 33.6251Z" fill="#262626"/>
<path d="M24 35.9583C21.3517 35.9583 19.1934 33.7999 19.1934 31.1516C19.1934 28.5033 21.3517 26.3333 24 26.3333C26.6484 26.3333 28.8067 28.4916 28.8067 31.1399C28.8067 33.7883 26.6484 35.9583 24 35.9583ZM24 28.0833C22.3084 28.0833 20.9434 29.4599 20.9434 31.1399C20.9434 32.8199 22.32 34.1966 24 34.1966C25.68 34.1966 27.0567 32.8199 27.0567 31.1399C27.0567 29.4599 25.6917 28.0833 24 28.0833Z" fill="#262626"/>
<path d="M28.667 24.875H27.792C26.8237 24.875 26.042 24.0933 26.042 23.125V22.25C26.042 20.8033 27.2203 19.625 28.667 19.625C30.1137 19.625 31.292 20.8033 31.292 22.25C31.292 23.6967 30.1137 24.875 28.667 24.875ZM28.667 21.375C28.1887 21.375 27.792 21.7717 27.792 22.25V23.125H28.667C29.1453 23.125 29.542 22.7283 29.542 22.25C29.542 21.7717 29.1453 21.375 28.667 21.375Z" fill="#262626"/>
</svg>
