<svg width="28" height="31" viewBox="0 0 28 31" fill="none" xmlns="http://www.w3.org/2000/svg">
<path d="M13.6875 0C17.2679 0 20.7017 1.42232 23.2334 3.95406C25.7652 6.4858 27.1875 9.91958 27.1875 13.5C27.1875 18.111 24.6735 21.885 22.0245 24.5925C20.7008 25.9303 19.2567 27.1435 17.7105 28.2165L17.0715 28.6515L16.7715 28.851L16.206 29.211L15.702 29.5185L15.078 29.8815C14.6543 30.1227 14.1751 30.2495 13.6875 30.2495C13.1999 30.2495 12.7207 30.1227 12.297 29.8815L11.673 29.5185L10.893 29.0385L10.605 28.851L9.99 28.4415C8.32197 27.3125 6.7681 26.0234 5.3505 24.5925C2.7015 21.8835 0.1875 18.111 0.1875 13.5C0.1875 9.91958 1.60982 6.4858 4.14156 3.95406C6.6733 1.42232 10.1071 0 13.6875 0ZM13.6875 9C13.0966 9 12.5114 9.1164 11.9654 9.34254C11.4195 9.56869 10.9234 9.90016 10.5055 10.318C10.0877 10.7359 9.75619 11.232 9.53004 11.7779C9.3039 12.3239 9.1875 12.9091 9.1875 13.5C9.1875 14.0909 9.3039 14.6761 9.53004 15.2221C9.75619 15.768 10.0877 16.2641 10.5055 16.682C10.9234 17.0998 11.4195 17.4313 11.9654 17.6575C12.5114 17.8836 13.0966 18 13.6875 18C14.881 18 16.0256 17.5259 16.8695 16.682C17.7134 15.8381 18.1875 14.6935 18.1875 13.5C18.1875 12.3065 17.7134 11.1619 16.8695 10.318C16.0256 9.4741 14.881 9 13.6875 9Z" fill="#A78BFA"/>
</svg>
