<svg width="31" height="31" viewBox="0 0 31 31" fill="none" xmlns="http://www.w3.org/2000/svg">
<path d="M9.6875 16C9.6875 17.5913 10.3196 19.1174 11.4449 20.2426C12.5701 21.3679 14.0962 22 15.6875 22C17.2788 22 18.8049 21.3679 19.9301 20.2426C21.0554 19.1174 21.6875 17.5913 21.6875 16C21.6875 14.4087 21.0554 12.8826 19.9301 11.7574C18.8049 10.6321 17.2788 10 15.6875 10C14.0962 10 12.5701 10.6321 11.4449 11.7574C10.3196 12.8826 9.6875 14.4087 9.6875 16Z" stroke="#A78BFA" stroke-width="3" stroke-linecap="round" stroke-linejoin="round"/>
<path d="M21.6875 15.9998V18.2498C21.6875 19.2443 22.0826 20.1982 22.7858 20.9014C23.4891 21.6047 24.4429 21.9998 25.4375 21.9998C26.4321 21.9998 27.3859 21.6047 28.0891 20.9014C28.7924 20.1982 29.1875 19.2443 29.1875 18.2498V15.9998C29.1912 13.0989 28.2605 10.274 26.5331 7.94356C24.8057 5.61309 22.3736 3.901 19.5971 3.06092C16.8205 2.22084 13.8472 2.29745 11.1177 3.27941C8.38806 4.26137 6.04737 6.09644 4.44231 8.51279C2.83725 10.9291 2.05321 13.7982 2.20633 16.695C2.35945 19.5918 3.44158 22.3623 5.29243 24.5959C7.14328 26.8296 9.66439 28.4077 12.4823 29.0964C15.3002 29.7851 18.265 29.5479 20.9375 28.4198" stroke="#A78BFA" stroke-width="3" stroke-linecap="round" stroke-linejoin="round"/>
</svg>
