<svg width="37" height="36" viewBox="0 0 37 36" fill="none" xmlns="http://www.w3.org/2000/svg">
<path fill-rule="evenodd" clip-rule="evenodd" d="M28.3304 15.1071C28.3304 15.6397 27.8986 16.0714 27.3661 16.0714H21.5804C21.0478 16.0714 20.6161 15.6397 20.6161 15.1071V9.32143C20.6161 8.78887 21.0478 8.35714 21.5804 8.35714C22.1129 8.35714 22.5446 8.78887 22.5446 9.32143V12.7792L28.6128 6.711C28.9894 6.33443 29.5999 6.33443 29.9765 6.711C30.3531 7.08758 30.3531 7.69813 29.9765 8.07471L23.9083 14.1429L27.3661 14.1429C27.8986 14.1429 28.3304 14.5746 28.3304 15.1071Z" fill="#A78BFA"/>
<path fill-rule="evenodd" clip-rule="evenodd" d="M5.1875 8.35714C5.1875 6.2269 6.9144 4.5 9.04464 4.5H10.8082C11.9144 4.5 12.8786 5.25286 13.1469 6.32603L14.5686 12.013C14.8039 12.954 14.4523 13.9443 13.6763 14.5262L12.0131 15.7737C11.8404 15.9032 11.8028 16.0929 11.8514 16.2253C13.3113 20.2108 16.4767 23.3762 20.4622 24.8361C20.5946 24.8847 20.7843 24.8471 20.9138 24.6744L22.1613 23.0112C22.7432 22.2352 23.7335 21.8836 24.6745 22.1189L30.3615 23.5406C31.4346 23.8089 32.1875 24.7731 32.1875 25.8793V27.6429C32.1875 29.7731 30.4606 31.5 28.3304 31.5H25.4375C14.2537 31.5 5.1875 22.4338 5.1875 11.25V8.35714Z" fill="#A78BFA"/>
</svg>
