<svg width="42" height="42" viewBox="0 0 42 42" fill="none" xmlns="http://www.w3.org/2000/svg">
<rect x="0.998047" y="0.999878" width="40" height="40" rx="20" fill="url(#paint0_linear_2549_13014)" stroke="white" stroke-width="2"/>
<path d="M17.5028 21.0535C17.5028 19.1189 19.0703 17.5501 21.0043 17.5501C22.9384 17.5501 24.5067 19.1189 24.5067 21.0535C24.5067 22.9882 22.9384 24.5569 21.0043 24.5569C19.0703 24.5569 17.5028 22.9882 17.5028 21.0535ZM15.6095 21.0535C15.6095 24.034 18.0248 26.4499 21.0043 26.4499C23.9839 26.4499 26.3992 24.034 26.3992 21.0535C26.3992 18.0731 23.9839 15.6571 21.0043 15.6571C18.0248 15.6571 15.6095 18.0731 15.6095 21.0535ZM25.352 15.4431C25.3519 15.6926 25.4258 15.9364 25.5642 16.1439C25.7027 16.3513 25.8995 16.513 26.1298 16.6086C26.3602 16.7041 26.6137 16.7292 26.8582 16.6806C27.1028 16.6321 27.3275 16.512 27.5039 16.3357C27.6803 16.1594 27.8005 15.9348 27.8492 15.6902C27.898 15.4456 27.8731 15.192 27.7778 14.9615C27.6824 14.731 27.5209 14.534 27.3136 14.3953C27.1064 14.2567 26.8626 14.1826 26.6133 14.1825H26.6128C26.2785 14.1827 25.958 14.3155 25.7216 14.5519C25.4852 14.7883 25.3523 15.1088 25.352 15.4431ZM16.7598 29.6079C15.7355 29.5612 15.1787 29.3905 14.8087 29.2463C14.3182 29.0553 13.9682 28.8278 13.6003 28.4602C13.2323 28.0927 13.0045 27.7429 12.8144 27.2523C12.6702 26.8823 12.4995 26.3253 12.453 25.3006C12.402 24.1929 12.3919 23.8601 12.3919 21.0536C12.3919 18.2471 12.4029 17.9153 12.453 16.8066C12.4996 15.782 12.6715 15.226 12.8144 14.8549C13.0054 14.3643 13.2328 14.0142 13.6003 13.6461C13.9677 13.278 14.3174 13.0502 14.8087 12.86C15.1786 12.7158 15.7355 12.5451 16.7598 12.4985C17.8672 12.4476 18.1999 12.4374 21.0043 12.4374C23.8088 12.4374 24.1418 12.4484 25.2502 12.4985C26.2745 12.5452 26.8303 12.7171 27.2012 12.86C27.6917 13.0502 28.0417 13.2786 28.4097 13.6461C28.7777 14.0137 29.0046 14.3643 29.1956 14.8549C29.3398 15.2249 29.5104 15.782 29.557 16.8066C29.6079 17.9153 29.6181 18.2471 29.6181 21.0536C29.6181 23.8601 29.6079 24.1919 29.557 25.3006C29.5103 26.3253 29.3389 26.8822 29.1956 27.2523C29.0046 27.7429 28.7772 28.093 28.4097 28.4602C28.0422 28.8275 27.6917 29.0553 27.2012 29.2463C26.8314 29.3906 26.2745 29.5613 25.2502 29.6079C24.1427 29.6588 23.81 29.669 21.0043 29.669C18.1987 29.669 17.8669 29.6588 16.7598 29.6079ZM16.6728 10.6078C15.5544 10.6588 14.7901 10.8362 14.1226 11.096C13.4314 11.3643 12.8462 11.7242 12.2615 12.3082C11.6768 12.8921 11.3179 13.4784 11.0497 14.1698C10.79 14.8379 10.6126 15.602 10.5617 16.7207C10.5099 17.8413 10.498 18.1995 10.498 21.0535C10.498 23.9075 10.5099 24.2658 10.5617 25.3863C10.6126 26.5052 10.79 27.2692 11.0497 27.9372C11.3179 28.6282 11.6769 29.2152 12.2615 29.7989C12.8462 30.3826 13.4314 30.742 14.1226 31.0111C14.7913 31.2709 15.5544 31.4483 16.6728 31.4992C17.7936 31.5502 18.1512 31.5629 21.0043 31.5629C23.8575 31.5629 24.2157 31.551 25.3359 31.4992C26.4544 31.4483 27.2182 31.2709 27.8861 31.0111C28.5769 30.742 29.1624 30.3829 29.7472 29.7989C30.3319 29.2149 30.6901 28.6282 30.959 27.9372C31.2187 27.2692 31.3969 26.5051 31.447 25.3863C31.498 24.2649 31.5098 23.9075 31.5098 21.0535C31.5098 18.1995 31.498 17.8413 31.447 16.7207C31.3961 15.6019 31.2187 14.8375 30.959 14.1698C30.6901 13.4788 30.331 12.8931 29.7472 12.3082C29.1634 11.7233 28.5769 11.3643 27.8869 11.096C27.2182 10.8362 26.4543 10.6579 25.3367 10.6078C24.2165 10.5569 23.8584 10.5442 21.0052 10.5442C18.152 10.5442 17.7936 10.556 16.6728 10.6078Z" fill="white"/>
<defs>
<linearGradient id="paint0_linear_2549_13014" x1="41.1908" y1="41.9999" x2="-0.809192" y2="-0.000123201" gradientUnits="userSpaceOnUse">
<stop stop-color="#FBE18A"/>
<stop offset="0.21" stop-color="#FCBB45"/>
<stop offset="0.38" stop-color="#F75274"/>
<stop offset="0.52" stop-color="#D53692"/>
<stop offset="0.74" stop-color="#8F39CE"/>
<stop offset="1" stop-color="#5B4FE9"/>
</linearGradient>
</defs>
</svg>
