<svg width="48" height="48" viewBox="0 0 48 48" fill="none" xmlns="http://www.w3.org/2000/svg">
<path d="M33.3435 27.2C33.8237 27.2 34.2992 27.2931 34.7428 27.474C35.1864 27.655 35.5895 27.9201 35.929 28.2544C36.2686 28.5887 36.5379 28.9856 36.7217 29.4223C36.9054 29.8591 37 30.3272 37 30.8V32.2464C37.0002 33.1113 36.8105 33.966 36.4439 34.752C36.0773 35.5379 35.5425 36.2366 34.876 36.8C32.3327 38.9504 28.6909 40 23.9943 40C19.2978 40 15.6608 38.9504 13.1224 36.8C12.4568 36.2369 11.9227 35.539 11.5564 34.7539C11.1901 33.9689 11.0003 33.1151 11 32.2512V30.7984C11.0004 29.8439 11.3859 28.9286 12.0715 28.2539C12.7572 27.5791 13.687 27.2 14.6565 27.2H33.3435ZM23.9943 8C24.2888 8.00001 24.5734 8.10503 24.7954 8.29563C25.0173 8.48623 25.1617 8.74951 25.2018 9.0368L25.2131 9.2L25.2115 10.3984H30.8994C31.8691 10.3984 32.7992 10.7777 33.4849 11.4528C34.1706 12.1279 34.5558 13.0436 34.5558 13.9984V21.2064C34.5558 22.1612 34.1706 23.0769 33.4849 23.752C32.7992 24.4271 31.8691 24.8064 30.8994 24.8064H17.086C16.1162 24.8064 15.1862 24.4271 14.5005 23.752C13.8148 23.0769 13.4295 22.1612 13.4295 21.2064V14C13.4295 13.5271 13.5242 13.0588 13.708 12.622C13.8919 12.1851 14.1614 11.7882 14.5011 11.4538C14.8408 11.1195 15.244 10.8544 15.6879 10.6736C16.1317 10.4928 16.6073 10.3998 17.0876 10.4L22.7755 10.3984V9.2C22.7756 8.90978 22.8824 8.62942 23.0764 8.41084C23.2703 8.19226 23.5381 8.05028 23.8302 8.0112L23.9943 8ZM20.3362 15.2C20.0628 15.1892 19.79 15.2329 19.5342 15.3285C19.2784 15.4241 19.0449 15.5696 18.8476 15.7562C18.6503 15.9428 18.4933 16.1668 18.3861 16.4146C18.2789 16.6624 18.2236 16.929 18.2236 17.1984C18.2236 17.4678 18.2789 17.7344 18.3861 17.9822C18.4933 18.23 18.6503 18.454 18.8476 18.6406C19.0449 18.8272 19.2784 18.9727 19.5342 19.0683C19.79 19.1639 20.0628 19.2076 20.3362 19.1968C20.8605 19.1761 21.3563 18.9566 21.7198 18.584C22.0833 18.2115 22.2863 17.715 22.2863 17.1984C22.2863 16.6818 22.0833 16.1853 21.7198 15.8128C21.3563 15.4402 20.8605 15.2207 20.3362 15.2ZM27.6378 15.2C27.3644 15.1892 27.0916 15.2329 26.8358 15.3285C26.58 15.4241 26.3465 15.5696 26.1492 15.7562C25.9519 15.9428 25.7949 16.1668 25.6877 16.4146C25.5804 16.6624 25.5252 16.929 25.5252 17.1984C25.5252 17.4678 25.5804 17.7344 25.6877 17.9822C25.7949 18.23 25.9519 18.454 26.1492 18.6406C26.3465 18.8272 26.58 18.9727 26.8358 19.0683C27.0916 19.1639 27.3644 19.2076 27.6378 19.1968C28.1621 19.1761 28.6579 18.9566 29.0214 18.584C29.3849 18.2115 29.5879 17.715 29.5879 17.1984C29.5879 16.6818 29.3849 16.1853 29.0214 15.8128C28.6579 15.4402 28.1621 15.2207 27.6378 15.2Z" fill="#374151"/>
</svg>
