<svg width="42" height="42" viewBox="0 0 42 42" fill="none" xmlns="http://www.w3.org/2000/svg">
<rect x="0.998047" y="1" width="40" height="40" rx="20" fill="#34AADF" stroke="white" stroke-width="2"/>
<path d="M11.6825 20.2558C11.6825 20.2558 20.2273 16.6569 23.1908 15.3897C24.3268 14.8828 28.1793 13.2607 28.1793 13.2607C28.1793 13.2607 29.9575 12.5511 29.8093 14.2745C29.7598 14.9842 29.3647 17.4679 28.9696 20.1545C28.3769 23.9562 27.7348 28.1127 27.7348 28.1127C27.7348 28.1127 27.636 29.2786 26.7964 29.4813C25.9567 29.6841 24.5737 28.7717 24.3268 28.5689C24.1292 28.4169 20.6224 26.1358 19.3382 25.0206C18.9925 24.7165 18.5974 24.1083 19.3876 23.3986C21.1657 21.7258 23.2895 19.6476 24.5737 18.3297C25.1665 17.7214 25.7591 16.3021 23.2895 18.0255C19.7828 20.5093 16.3253 22.841 16.3253 22.841C16.3253 22.841 15.5351 23.3479 14.0533 22.8917C12.5715 22.4355 10.8428 21.8272 10.8428 21.8272C10.8428 21.8272 9.65748 21.0669 11.6825 20.2558Z" fill="white"/>
</svg>
