<svg width="42" height="42" viewBox="0 0 42 42" fill="none" xmlns="http://www.w3.org/2000/svg">
<rect x="0.998047" y="1" width="40" height="40" rx="20" fill="#00D95F" stroke="white" stroke-width="2"/>
<path d="M10.498 30.7223L12.0047 25.12C10.7896 22.9376 10.4036 20.391 10.9174 17.9474C11.4313 15.5038 12.8106 13.3271 14.8022 11.8168C16.7938 10.3066 19.2642 9.56397 21.76 9.72531C24.2557 9.88665 26.6095 10.9411 28.3894 12.6952C30.1693 14.4493 31.2559 16.7854 31.4498 19.2747C31.6437 21.7641 30.9319 24.2398 29.445 26.2474C27.9581 28.2551 25.7959 29.6602 23.3551 30.2048C20.9143 30.7493 18.3586 30.3969 16.1571 29.2122L10.498 30.7223ZM16.4299 27.1157L16.7799 27.323C18.3745 28.2666 20.237 28.6571 22.0771 28.4336C23.9173 28.2101 25.6316 27.3852 26.9531 26.0874C28.2746 24.7896 29.129 23.0919 29.383 21.2587C29.6371 19.4256 29.2767 17.56 28.3578 15.9527C27.439 14.3455 26.0134 13.0868 24.3032 12.3728C22.593 11.6589 20.6943 11.5298 18.903 12.0056C17.1116 12.4815 15.5282 13.5355 14.3996 15.0036C13.271 16.4716 12.6604 18.2712 12.6632 20.1218C12.6617 21.6562 13.0868 23.161 13.8911 24.4686L14.1106 24.8298L13.2682 27.9567L16.4299 27.1157Z" fill="white"/>
<path fill-rule="evenodd" clip-rule="evenodd" d="M24.9264 21.5605C24.7212 21.3953 24.481 21.279 24.224 21.2205C23.967 21.162 23.7001 21.1629 23.4434 21.223C23.0579 21.3828 22.8087 21.9869 22.5596 22.2889C22.507 22.3613 22.4298 22.4121 22.3425 22.4317C22.2551 22.4514 22.1636 22.4385 22.085 22.3955C20.6734 21.8436 19.4902 20.8314 18.7276 19.5233C18.6625 19.4417 18.6317 19.3381 18.6417 19.2342C18.6517 19.1304 18.7016 19.0345 18.781 18.9666C19.0588 18.692 19.2629 18.3519 19.3742 17.9777C19.3989 17.5649 19.3041 17.1538 19.1013 16.7932C18.9445 16.2878 18.646 15.8378 18.2412 15.4963C18.0324 15.4026 17.8008 15.3711 17.5745 15.4058C17.3482 15.4405 17.1368 15.5398 16.9658 15.6917C16.6689 15.9475 16.4332 16.2665 16.2762 16.6252C16.1191 16.9839 16.0446 17.3732 16.0582 17.7645C16.0591 17.9842 16.087 18.203 16.1413 18.4159C16.279 18.9275 16.4908 19.4163 16.77 19.8668C16.9715 20.2119 17.1913 20.546 17.4285 20.8676C18.1994 21.9241 19.1684 22.8211 20.2817 23.5089C20.8404 23.8584 21.4375 24.1425 22.0613 24.3557C22.7093 24.649 23.4247 24.7615 24.1315 24.6814C24.5343 24.6206 24.9159 24.4618 25.2428 24.2192C25.5696 23.9765 25.8317 23.6573 26.006 23.2898C26.1084 23.0677 26.1395 22.8195 26.095 22.5791C25.9882 22.0876 25.3298 21.7974 24.9264 21.5605Z" fill="white"/>
</svg>
