<svg width="62" height="61" viewBox="0 0 62 61" fill="none" xmlns="http://www.w3.org/2000/svg">
<path d="M56.0872 12.2521V42.29C56.0872 44.7405 54.0914 46.989 51.6409 47.2921L50.8577 47.3932C46.7145 47.949 40.8787 49.6669 36.1798 51.6374C34.5377 52.3195 32.7188 51.0816 32.7188 49.2879V14.1469C32.7188 13.2121 33.2493 12.3532 34.083 11.8984C38.7061 9.39739 45.704 7.17423 50.4535 6.77002H50.6051C53.6366 6.77002 56.0872 9.22055 56.0872 12.2521Z" fill="#821EBE"/>
<path d="M27.5607 11.8984C22.9376 9.39739 15.9397 7.17423 11.1902 6.77002H11.0134C7.98178 6.77002 5.53125 9.22055 5.53125 12.2521V42.29C5.53125 44.7405 7.52704 46.989 9.97757 47.2921L10.7607 47.3932C14.9039 47.949 20.7397 49.6669 25.4386 51.6374C27.0807 52.3195 28.8997 51.0816 28.8997 49.2879V14.1469C28.8997 13.1869 28.3944 12.3532 27.5607 11.8984ZM13.1355 19.5532H18.8197C19.8555 19.5532 20.7144 20.4121 20.7144 21.4479C20.7144 22.509 19.8555 23.3426 18.8197 23.3426H13.1355C12.0997 23.3426 11.2407 22.509 11.2407 21.4479C11.2407 20.4121 12.0997 19.5532 13.1355 19.5532ZM20.7144 30.9216H13.1355C12.0997 30.9216 11.2407 30.0879 11.2407 29.0269C11.2407 27.9911 12.0997 27.1321 13.1355 27.1321H20.7144C21.7502 27.1321 22.6091 27.9911 22.6091 29.0269C22.6091 30.0879 21.7502 30.9216 20.7144 30.9216Z" fill="#821EBE"/>
</svg>
