<svg width="49" height="48" viewBox="0 0 49 48" fill="none" xmlns="http://www.w3.org/2000/svg">
<path d="M32.8839 4.00146H16.1239C8.84391 4.00146 4.50391 8.34146 4.50391 15.6215V32.3615C4.50391 39.6615 8.84391 44.0015 16.1239 44.0015H32.8639C40.1439 44.0015 44.4839 39.6615 44.4839 32.3815V15.6215C44.5039 8.34146 40.1639 4.00146 32.8839 4.00146ZM23.5039 34.5015C23.5039 35.2215 22.7839 35.7015 22.1239 35.4215C19.7039 34.3815 16.5439 33.4215 14.3439 33.1415L13.9639 33.1015C12.7439 32.9415 11.7439 31.8015 11.7439 30.5615V15.1615C11.7439 13.6215 12.9839 12.4815 14.5039 12.6015C17.0039 12.8015 20.7039 14.0015 23.0239 15.3215C23.3439 15.5015 23.5039 15.8415 23.5039 16.1815V34.5015ZM37.2639 30.5415C37.2639 31.7815 36.2639 32.9215 35.0439 33.0815L34.6239 33.1215C32.4439 33.4215 29.3039 34.3615 26.8839 35.3815C26.2239 35.6615 25.5039 35.1815 25.5039 34.4615V16.1615C25.5039 15.8015 25.6839 15.4615 26.0039 15.2815C28.3239 13.9815 31.9439 12.8215 34.4039 12.6015H34.4839C36.0239 12.6015 37.2639 13.8415 37.2639 15.3815V30.5415Z" fill="#821EBE"/>
</svg>
