<svg width="49" height="48" viewBox="0 0 49 48" fill="none" xmlns="http://www.w3.org/2000/svg">
<path d="M33.7961 11.4429H15.1961C9.29609 11.4429 4.49609 16.2429 4.49609 22.1429V33.3029C4.49609 39.2029 9.29609 44.0029 15.1961 44.0029H33.7961C39.6961 44.0029 44.4961 39.2029 44.4961 33.3029V22.1429C44.4961 16.2429 39.6961 11.4429 33.7961 11.4429ZM29.4961 24.0429C29.4961 22.9429 30.3961 22.0429 31.4961 22.0429C32.5961 22.0429 33.4961 22.9429 33.4961 24.0429C33.4961 25.1429 32.5961 26.0629 31.4961 26.0629C30.3961 26.0629 29.4961 25.1829 29.4961 24.0829V24.0429ZM20.7561 32.1429C20.4561 32.4429 20.0761 32.5829 19.6961 32.5829C19.3161 32.5829 18.9361 32.4429 18.6361 32.1429L16.5761 30.0829L14.5961 32.0629C14.2961 32.3629 13.9161 32.5029 13.5361 32.5029C13.1561 32.5029 12.7761 32.3629 12.4761 32.0629C11.8961 31.4829 11.8961 30.5229 12.4761 29.9429L14.4561 27.9629L12.5361 26.0429C11.9561 25.4629 11.9561 24.5029 12.5361 23.9229C13.1161 23.3429 14.0761 23.3429 14.6561 23.9229L16.5761 25.8429L18.5561 23.8629C19.1361 23.2829 20.0961 23.2829 20.6761 23.8629C21.2561 24.4429 21.2561 25.4029 20.6761 25.9829L18.6961 27.9629L20.7561 30.0229C21.3361 30.6029 21.3361 31.5629 20.7561 32.1429ZM27.5761 30.0029C26.4761 30.0029 25.5561 29.1029 25.5561 28.0029C25.5561 26.9029 26.4361 26.0029 27.5361 26.0029H27.5761C28.6761 26.0029 29.5761 26.9029 29.5761 28.0029C29.5761 29.1029 28.6961 30.0029 27.5761 30.0029ZM31.4961 33.9429C30.3961 33.9429 29.4961 33.0629 29.4961 31.9629V31.9229C29.4961 30.8229 30.3961 29.9229 31.4961 29.9229C32.5961 29.9229 33.4961 30.8229 33.4961 31.9229C33.4961 33.0229 32.6161 33.9429 31.4961 33.9429ZM35.4561 30.0029C34.3561 30.0029 33.4361 29.1029 33.4361 28.0029C33.4361 26.9029 34.3161 26.0029 35.4161 26.0029H35.4561C36.5561 26.0029 37.4561 26.9029 37.4561 28.0029C37.4561 29.1029 36.5761 30.0029 35.4561 30.0029Z" fill="#821EBE"/>
<path d="M27.7748 5.42244L27.7548 7.30244C27.7348 9.06244 26.2748 10.5224 24.4948 10.5224C24.1948 10.5224 24.0148 10.7224 24.0148 10.9824C24.0148 11.2424 24.2148 11.4424 24.4748 11.4424H21.2548C21.2348 11.3024 21.2148 11.1424 21.2148 10.9824C21.2148 9.18244 22.6748 7.72244 24.4548 7.72244C24.7548 7.72244 24.9548 7.52244 24.9548 7.26244L24.9748 5.38244C24.9948 4.62244 25.6148 4.00244 26.3748 4.00244H26.3948C27.1748 4.00244 27.7748 4.64244 27.7748 5.42244Z" fill="#821EBE"/>
</svg>
