<svg width="49" height="48" viewBox="0 0 49 48" fill="none" xmlns="http://www.w3.org/2000/svg">
<path d="M47.7469 24.0004C47.7472 26.2256 47.0875 28.4009 45.8514 30.2512C44.6152 32.1015 42.8581 33.5437 40.8023 34.3953C38.7465 35.2469 36.4843 35.4697 34.3018 35.0355C32.1193 34.6013 30.1147 33.5296 28.5413 31.956L28.4494 31.8566L17.2257 19.1835C16.2768 18.252 15.0739 17.6215 13.768 17.3711C12.462 17.1207 11.1113 17.2617 9.88512 17.7762C8.65899 18.2907 7.61215 19.1559 6.87596 20.2633C6.13976 21.3706 5.74702 22.6707 5.74702 24.0004C5.74702 25.3301 6.13976 26.6302 6.87596 27.7375C7.61215 28.8448 8.65899 29.71 9.88512 30.2246C11.1113 30.7391 12.462 30.88 13.768 30.6296C15.0739 30.3793 16.2768 29.7488 17.2257 28.8173L17.8032 28.1648C17.9991 27.9431 18.2367 27.7623 18.5024 27.6325C18.7682 27.5027 19.0569 27.4266 19.3521 27.4084C19.6473 27.3902 19.9432 27.4303 20.2229 27.5265C20.5026 27.6226 20.7606 27.7729 20.9822 27.9688C21.2039 28.1647 21.3847 28.4023 21.5145 28.6681C21.6443 28.9338 21.7204 29.2226 21.7386 29.5178C21.7568 29.813 21.7167 30.1089 21.6205 30.3886C21.5244 30.6683 21.3741 30.9263 21.1782 31.1479L20.5501 31.8566L20.4582 31.956C18.8848 33.5292 16.8802 34.6004 14.698 35.0343C12.5157 35.4683 10.2538 35.2454 8.19828 34.3938C6.14272 33.5423 4.38582 32.1004 3.14974 30.2503C1.91366 28.4003 1.25391 26.2253 1.25391 24.0004C1.25391 21.7754 1.91366 19.6004 3.14974 17.7504C4.38582 15.9004 6.14272 14.4585 8.19828 13.6069C10.2538 12.7554 12.5157 12.5325 14.698 12.9664C16.8802 13.4003 18.8848 14.4716 20.4582 16.0448L20.5501 16.1441L31.7738 28.8173C32.7227 29.7488 33.9256 30.3793 35.2315 30.6296C36.5375 30.88 37.8882 30.7391 39.1144 30.2246C40.3405 29.71 41.3873 28.8448 42.1235 27.7375C42.8597 26.6302 43.2525 25.3301 43.2525 24.0004C43.2525 22.6707 42.8597 21.3706 42.1235 20.2633C41.3873 19.1559 40.3405 18.2907 39.1144 17.7762C37.8882 17.2617 36.5375 17.1207 35.2315 17.3711C33.9256 17.6215 32.7227 18.252 31.7738 19.1835L31.1963 19.836C31.0004 20.0576 30.7628 20.2385 30.4971 20.3682C30.2313 20.498 29.9426 20.5742 29.6474 20.5924C29.3522 20.6106 29.0563 20.5704 28.7766 20.4743C28.4969 20.3781 28.2389 20.2278 28.0172 20.0319C27.7956 19.8361 27.6148 19.5985 27.485 19.3327C27.3552 19.0669 27.2791 18.7782 27.2609 18.483C27.2427 18.1878 27.2828 17.8919 27.379 17.6122C27.4751 17.3325 27.6254 17.0745 27.8213 16.8529L28.4494 16.1441L28.5413 16.0448C30.1147 14.4711 32.1193 13.3995 34.3018 12.9653C36.4843 12.5311 38.7465 12.7539 40.8023 13.6055C42.8581 14.4571 44.6152 15.8992 45.8514 17.7495C47.0875 19.5998 47.7472 21.7751 47.7469 24.0004Z" fill="#821EBE"/>
</svg>
