<svg width="49" height="48" viewBox="0 0 49 48" fill="none" xmlns="http://www.w3.org/2000/svg">
<path d="M37.5019 4C39.7352 4.00128 41.8883 4.83286 43.5426 6.33312C45.197 7.83338 46.2344 9.89515 46.4534 12.1177C46.6723 14.3403 46.0571 16.5648 44.7273 18.359C43.3974 20.1533 41.448 21.389 39.2579 21.826C40.1637 23.9887 40.5831 26.324 40.4864 28.6668C40.3897 31.0095 39.7793 33.3023 38.6983 35.383C37.6174 37.4637 36.0924 39.2814 34.2312 40.7075C32.37 42.1336 30.2181 43.1331 27.9278 43.6354C25.6375 44.1378 23.2648 44.1306 20.9776 43.6144C18.6904 43.0982 16.5446 42.0857 14.6921 40.6484C12.8396 39.2111 11.3256 37.3842 10.2572 35.297C9.18892 33.2098 8.5924 30.9133 8.50989 28.57L8.49989 28L8.50989 27.43C8.57864 25.5025 8.99535 23.6033 9.73989 21.824C8.39586 21.5572 7.1305 20.9871 6.04027 20.157C4.95004 19.3269 4.06374 18.2589 3.44894 17.0343C2.83414 15.8097 2.50708 14.4609 2.49268 13.0908C2.47829 11.7206 2.77695 10.3652 3.36589 9.128C4.02941 7.73648 5.03924 6.53873 6.29858 5.64955C7.55792 4.76038 9.02456 4.2096 10.5579 4.05L11.0079 4.014L11.5699 4L12.0579 4.018C14.2599 4.15447 16.335 5.095 17.8892 6.66092C19.4433 8.22683 20.3681 10.309 20.4879 12.512C23.1198 11.8301 25.882 11.8301 28.5139 12.512C28.6387 10.2131 29.6399 8.04936 31.3114 6.46604C32.9828 4.88273 35.1996 4.00019 37.5019 4Z" fill="#821EBE"/>
</svg>
