<svg width="49" height="48" viewBox="0 0 49 48" fill="none" xmlns="http://www.w3.org/2000/svg">
<g clip-path="url(#clip0_2229_22652)">
<path fill-rule="evenodd" clip-rule="evenodd" d="M19.5 4.99951C22.212 4.99951 24.088 6.70351 25.29 9.10551C26.334 11.1955 26.432 13.7055 26.484 15.9995H36.152C36.9821 15.9994 37.8033 16.1715 38.5635 16.5051C39.3237 16.8386 40.0064 17.3262 40.5685 17.9372C41.1305 18.5481 41.5597 19.269 41.8288 20.0543C42.0979 20.8396 42.2012 21.6723 42.132 22.4995L41.41 31.1615C41.1185 34.6613 39.5223 37.9238 36.938 40.3018C34.3536 42.6797 30.9699 43.9996 27.458 43.9995H24.434C21.0112 44.0069 17.7058 42.7523 15.15 40.4755C14.8778 40.2344 14.556 40.0561 14.2073 39.9531C13.8586 39.8501 13.4915 39.825 13.132 39.8795C12.5917 39.9601 12.0462 40.0002 11.5 39.9995C9.284 39.9995 7.444 38.7595 6.252 36.7835C5.092 34.8635 4.5 32.2135 4.5 28.9995C4.5 25.7875 5.094 23.1375 6.252 21.2175C7.444 19.2395 9.284 17.9995 11.5 17.9995C12.062 17.9995 12.658 18.0995 13.254 18.2675C14.17 15.8675 14.822 13.3935 14.514 10.7975C14.17 7.90751 16.532 4.99951 19.5 4.99951Z" fill="#821EBE"/>
</g>
<defs>
<clipPath id="clip0_2229_22652">
<rect width="48" height="48" fill="white" transform="translate(0.5)"/>
</clipPath>
</defs>
</svg>
