<svg width="49" height="48" viewBox="0 0 49 48" fill="none" xmlns="http://www.w3.org/2000/svg">
<path d="M32.98 4H16.02C10.5 4 8.5 6 8.5 11.62V36.38C8.5 42 10.5 44 16.02 44H32.96C38.5 44 40.5 42 40.5 36.38V11.62C40.5 6 38.5 4 32.98 4ZM24.5 38.6C22.58 38.6 21 37.02 21 35.1C21 33.18 22.58 31.6 24.5 31.6C26.42 31.6 28 33.18 28 35.1C28 37.02 26.42 38.6 24.5 38.6ZM28.5 12.5H20.5C19.68 12.5 19 11.82 19 11C19 10.18 19.68 9.5 20.5 9.5H28.5C29.32 9.5 30 10.18 30 11C30 11.82 29.32 12.5 28.5 12.5Z" fill="#821EBE"/>
</svg>
