<svg width="49" height="48" viewBox="0 0 49 48" fill="none" xmlns="http://www.w3.org/2000/svg">
<path d="M24.5039 4.00049C27.1303 4.00049 29.7311 4.5178 32.1576 5.5229C34.5841 6.52799 36.7889 8.00118 38.646 9.85835C40.5032 11.7155 41.9764 13.9203 42.9815 16.3468C43.9866 18.7733 44.5039 21.3741 44.5039 24.0005C44.5039 29.3048 42.3968 34.3919 38.646 38.1426C34.8953 41.8934 29.8082 44.0005 24.5039 44.0005C21.8775 44.0005 19.2767 43.4832 16.8502 42.4781C14.4237 41.473 12.2189 39.9998 10.3618 38.1426C6.61104 34.3919 4.50391 29.3048 4.50391 24.0005C4.50391 18.6962 6.61104 13.6091 10.3618 9.85835C14.1125 6.10763 19.1996 4.00049 24.5039 4.00049ZM24.5039 8.00049C23.1778 8.00049 21.9061 8.52727 20.9684 9.46495C20.0307 10.4026 19.5039 11.6744 19.5039 13.0005C19.5039 14.3266 20.0307 15.5983 20.9684 16.536C21.9061 17.4737 23.1778 18.0005 24.5039 18.0005C25.83 18.0005 27.1018 17.4737 28.0394 16.536C28.9771 15.5983 29.5039 14.3266 29.5039 13.0005C29.5039 11.6744 28.9771 10.4026 28.0394 9.46495C27.1018 8.52727 25.83 8.00049 24.5039 8.00049ZM9.30391 19.0605C8.89379 20.3203 9.00044 21.6913 9.60042 22.8726C10.2004 24.0538 11.2447 24.9486 12.5039 25.3605C15.1439 26.2005 17.9639 24.7805 18.8039 22.1405C19.214 20.8807 19.1074 19.5096 18.5074 18.3284C17.9074 17.1472 16.8631 16.2524 15.6039 15.8405C12.9839 15.0005 10.1439 16.4205 9.30391 19.0605ZM39.7239 19.0005C38.8639 16.4205 36.0439 15.0005 33.4239 15.8405C32.7971 16.0401 32.216 16.3619 31.7142 16.7874C31.2125 17.2128 30.8 17.7335 30.5006 18.3193C30.2012 18.905 30.0208 19.5443 29.9699 20.2002C29.919 20.8561 29.9985 21.5155 30.2039 22.1405C30.6158 23.3997 31.5106 24.444 32.6918 25.044C33.873 25.644 35.2441 25.7506 36.5039 25.3405C39.1239 24.5005 40.5639 21.6605 39.7239 19.0005ZM15.1239 36.9205C17.3439 38.5605 20.5039 38.0605 22.1039 35.8205C23.7239 33.5805 23.2239 30.4605 20.9839 28.8405C19.911 28.0648 18.5749 27.7451 17.2671 27.9512C15.9593 28.1573 14.7862 28.8724 14.0039 29.9405C12.3839 32.1805 12.8839 35.3005 15.1239 36.9205ZM33.9039 36.9205C36.1439 35.3005 36.6439 32.1805 35.0239 29.9405C34.6392 29.4082 34.153 28.9572 33.5934 28.6135C33.0337 28.2699 32.4116 28.0403 31.7628 27.9381C31.114 27.8358 30.4515 27.8629 29.8132 28.0178C29.175 28.1727 28.5737 28.4523 28.0439 28.8405C27.5115 29.2249 27.0602 29.7104 26.7157 30.2694C26.3712 30.8284 26.1404 31.4499 26.0364 32.0982C25.9323 32.7465 25.9572 33.409 26.1095 34.0477C26.2618 34.6864 26.5385 35.2889 26.9239 35.8205C28.5039 38.0605 31.6839 38.5405 33.9039 36.9205ZM24.5039 21.0005C23.7083 21.0005 22.9452 21.3166 22.3826 21.8792C21.82 22.4418 21.5039 23.2048 21.5039 24.0005C21.5039 24.7961 21.82 25.5592 22.3826 26.1218C22.9452 26.6844 23.7083 27.0005 24.5039 27.0005C25.2996 27.0005 26.0626 26.6844 26.6252 26.1218C27.1878 25.5592 27.5039 24.7961 27.5039 24.0005C27.5039 23.2048 27.1878 22.4418 26.6252 21.8792C26.0626 21.3166 25.2996 21.0005 24.5039 21.0005Z" fill="#821EBE"/>
</svg>
