<svg width="49" height="48" viewBox="0 0 49 48" fill="none" xmlns="http://www.w3.org/2000/svg">
<path d="M36.4961 10.5H12.4961C11.6761 10.5 10.9961 9.82 10.9961 9C10.9961 8.18 11.6761 7.5 12.4961 7.5H36.4961C37.3161 7.5 37.9961 8.18 37.9961 9C37.9961 9.82 37.3161 10.5 36.4961 10.5Z" fill="#821EBE"/>
<path d="M30.4961 5.5H18.4961C17.6761 5.5 16.9961 4.82 16.9961 4C16.9961 3.18 17.6761 2.5 18.4961 2.5H30.4961C31.3161 2.5 31.9961 3.18 31.9961 4C31.9961 4.82 31.3161 5.5 30.4961 5.5Z" fill="#821EBE"/>
<path d="M28.3103 32.4204C27.6303 32.4204 27.0703 32.9804 27.0703 33.6604C27.0703 34.3404 27.6303 34.9004 28.3103 34.9004C28.9903 34.9004 29.5503 34.3404 29.5503 33.6604C29.5503 32.9804 28.9903 32.4204 28.3103 32.4204Z" fill="#821EBE"/>
<path d="M19.5152 35.4793C19.5152 34.7993 18.9552 34.2593 18.2752 34.2593C17.5952 34.2593 17.0352 34.8193 17.0352 35.4993C17.0352 36.1793 17.5952 36.7393 18.2752 36.7393C18.9552 36.7193 19.5152 36.1593 19.5152 35.4793Z" fill="#821EBE"/>
<path d="M36.4961 14H12.4961C8.09609 14 4.49609 17.6 4.49609 22V36C4.49609 40.4 8.09609 44 12.4961 44H36.4961C40.8961 44 44.4961 40.4 44.4961 36V22C44.4961 17.6 40.8961 14 36.4961 14ZM32.5561 24.92V33.66C32.5561 33.7 32.5361 33.72 32.5361 33.76C32.4761 36.04 30.6161 37.9 28.3161 37.9C25.9761 37.9 24.0761 36 24.0761 33.66C24.0761 31.32 25.9761 29.42 28.3161 29.42C28.7561 29.42 29.1561 29.5 29.5561 29.62V26.88L22.5161 28.8V35.46V35.48C22.5161 37.82 20.6161 39.72 18.2761 39.72C15.9361 39.72 14.0361 37.82 14.0361 35.48C14.0361 33.14 15.9361 31.24 18.2761 31.24C18.7161 31.24 19.1161 31.32 19.5161 31.44V27.64V24.44C19.5161 22.66 20.6161 21.22 22.3161 20.78L27.7761 19.28C29.5361 18.82 30.6161 19.28 31.2361 19.76C31.8361 20.22 32.5561 21.16 32.5561 22.94V24.92Z" fill="#821EBE"/>
</svg>
