<svg width="49" height="48" viewBox="0 0 49 48" fill="none" xmlns="http://www.w3.org/2000/svg">
<path d="M40.5 8C42.72 8 44.5 9.78 44.5 12V36C44.5 38.22 42.72 40 40.5 40H8.5C6.28 40 4.5 38.22 4.5 36V12C4.5 9.78 6.28 8 8.5 8H40.5ZM17.5 30V18H15V25L10 18H7.5V30H10V23L15.1 30H17.5ZM27.5 20.52V18H19.5V30H27.5V27.5H22.5V25.28H27.5V22.76H22.5V20.52H27.5ZM41.5 28V18H39V27H36.76V20H34.26V27H32V18H29.5V28C29.5 28.5304 29.7107 29.0391 30.0858 29.4142C30.4609 29.7893 30.9696 30 31.5 30H39.5C40.0304 30 40.5391 29.7893 40.9142 29.4142C41.2893 29.0391 41.5 28.5304 41.5 28Z" fill="#821EBE"/>
</svg>
