<svg width="49" height="48" viewBox="0 0 49 48" fill="none" xmlns="http://www.w3.org/2000/svg">
<path d="M34.5 6H14.5C8.98 6 4.5 10.48 4.5 16V18V32C4.5 37.52 8.98 42 14.5 42H32.5H34.5C40.02 42 44.5 37.52 44.5 32V16C44.5 10.48 40.02 6 34.5 6ZM21.48 33.62C21.42 33.62 21.36 33.64 21.28 33.64C20.54 33.64 19.9 33.08 19.8 32.34C19.54 30.3 18.06 28.82 16.02 28.56C15.2 28.46 14.62 27.7 14.72 26.88C14.82 26.06 15.58 25.48 16.4 25.58C19.78 26.02 22.34 28.58 22.78 31.96C22.88 32.76 22.3 33.52 21.48 33.62ZM27.58 32.6C27.52 32.6 27.46 32.62 27.38 32.62C26.64 32.62 26 32.06 25.9 31.32C25.28 26.56 21.82 23.08 17.04 22.46C16.22 22.36 15.64 21.6 15.74 20.78C15.84 19.96 16.6 19.38 17.42 19.48C23.58 20.28 28.08 24.76 28.88 30.94C28.98 31.74 28.4 32.48 27.58 32.6ZM32.98 30.86C32.92 30.86 32.86 30.88 32.78 30.88C32.04 30.88 31.4 30.32 31.3 29.58C30.44 22.82 25.52 17.9 18.76 17.04C17.94 16.94 17.36 16.18 17.46 15.36C17.56 14.54 18.32 13.96 19.14 14.06C27.28 15.1 33.22 21.04 34.28 29.2C34.38 30.02 33.8 30.76 32.98 30.86Z" fill="#821EBE"/>
</svg>
