<svg width="49" height="48" viewBox="0 0 49 48" fill="none" xmlns="http://www.w3.org/2000/svg">
<path d="M39.1838 28.979L37.1838 25.659C36.7638 24.919 36.3838 23.519 36.3838 22.699V17.639C36.3838 12.939 33.6238 8.87902 29.6438 6.97902C28.6038 5.13902 26.6838 3.99902 24.4838 3.99902C22.3038 3.99902 20.3438 5.17902 19.3038 7.03902C15.4038 8.97902 12.7038 12.999 12.7038 17.639V22.699C12.7038 23.519 12.3238 24.919 11.9038 25.639L9.88379 28.979C9.08379 30.319 8.90379 31.799 9.40379 33.159C9.88379 34.499 11.0238 35.539 12.5038 36.039C16.3838 37.359 20.4638 37.999 24.5438 37.999C28.6238 37.999 32.7038 37.359 36.5838 36.059C37.9838 35.599 39.0638 34.539 39.5838 33.159C40.1038 31.779 39.9638 30.259 39.1838 28.979Z" fill="#821EBE"/>
<path d="M30.1594 40.019C29.3194 42.339 27.0994 43.999 24.4994 43.999C22.9194 43.999 21.3594 43.359 20.2594 42.219C19.6194 41.619 19.1394 40.819 18.8594 39.999C19.1194 40.039 19.3794 40.059 19.6594 40.099C20.1194 40.159 20.5994 40.219 21.0794 40.259C22.2194 40.359 23.3794 40.419 24.5394 40.419C25.6794 40.419 26.8194 40.359 27.9394 40.259C28.3594 40.219 28.7794 40.199 29.1794 40.139C29.4994 40.099 29.8194 40.059 30.1594 40.019Z" fill="#821EBE"/>
</svg>
