<svg width="49" height="48" viewBox="0 0 49 48" fill="none" xmlns="http://www.w3.org/2000/svg">
<path d="M9.5 6C9.5 4.4087 10.1321 2.88258 11.2574 1.75736C12.3826 0.632141 13.9087 0 15.5 0L33.5 0C35.0913 0 36.6174 0.632141 37.7426 1.75736C38.8679 2.88258 39.5 4.4087 39.5 6V42C39.5 43.5913 38.8679 45.1174 37.7426 46.2426C36.6174 47.3679 35.0913 48 33.5 48H15.5C13.9087 48 12.3826 47.3679 11.2574 46.2426C10.1321 45.1174 9.5 43.5913 9.5 42V6ZM27.5 39C27.5 38.2044 27.1839 37.4413 26.6213 36.8787C26.0587 36.3161 25.2956 36 24.5 36C23.7044 36 22.9413 36.3161 22.3787 36.8787C21.8161 37.4413 21.5 38.2044 21.5 39C21.5 39.7956 21.8161 40.5587 22.3787 41.1213C22.9413 41.6839 23.7044 42 24.5 42C25.2956 42 26.0587 41.6839 26.6213 41.1213C27.1839 40.5587 27.5 39.7956 27.5 39Z" fill="#821EBE"/>
</svg>
