<svg width="49" height="48" viewBox="0 0 49 48" fill="none" xmlns="http://www.w3.org/2000/svg">
<path d="M24.4414 3.99902C13.4014 3.99902 4.44141 12.959 4.44141 23.999C4.44141 35.039 13.4014 43.999 24.4414 43.999C35.4814 43.999 44.4414 35.039 44.4414 23.999C44.4414 12.959 35.5014 3.99902 24.4414 3.99902ZM30.4414 28.459L24.6414 31.799C23.9214 32.219 23.1214 32.419 22.3414 32.419C21.5414 32.419 20.7614 32.219 20.0414 31.799C18.6014 30.959 17.7414 29.479 17.7414 27.799V21.099C17.7414 19.439 18.6014 17.939 20.0414 17.099C21.4814 16.259 23.2014 16.259 24.6614 17.099L30.4614 20.439C31.9014 21.279 32.7614 22.759 32.7614 24.439C32.7614 26.119 31.9014 27.619 30.4414 28.459Z" fill="#821EBE"/>
</svg>
