<svg width="49" height="48" viewBox="0 0 49 48" fill="none" xmlns="http://www.w3.org/2000/svg">
<path d="M38.7394 18.2397C37.9594 18.2397 37.3394 18.8597 37.3394 19.6397V22.7997C37.3394 29.8797 31.5794 35.6397 24.4994 35.6397C17.4194 35.6397 11.6594 29.8797 11.6594 22.7997V19.6197C11.6594 18.8397 11.0394 18.2197 10.2594 18.2197C9.47938 18.2197 8.85938 18.8397 8.85938 19.6197V22.7797C8.85938 30.9197 15.1194 37.6197 23.0994 38.3397V42.5997C23.0994 43.3797 23.7194 43.9997 24.4994 43.9997C25.2794 43.9997 25.8994 43.3797 25.8994 42.5997V38.3397C33.8594 37.6397 40.1394 30.9197 40.1394 22.7797V19.6197C40.1194 18.8597 39.4994 18.2397 38.7394 18.2397Z" fill="#821EBE"/>
<path d="M24.4963 4C19.6163 4 15.6562 7.96 15.6562 12.84V23.08C15.6562 27.96 19.6163 31.92 24.4963 31.92C29.3763 31.92 33.3363 27.96 33.3363 23.08V12.84C33.3363 7.96 29.3763 4 24.4963 4ZM27.1163 17.9C26.9763 18.42 26.5163 18.76 25.9963 18.76C25.8963 18.76 25.7963 18.74 25.6963 18.72C24.9163 18.5 24.0962 18.5 23.3162 18.72C22.6762 18.9 22.0562 18.52 21.8962 17.9C21.7162 17.28 22.0962 16.64 22.7162 16.48C23.8962 16.16 25.1362 16.16 26.3162 16.48C26.9162 16.64 27.2763 17.28 27.1163 17.9ZM28.1763 14.02C27.9963 14.5 27.5563 14.78 27.0763 14.78C26.9363 14.78 26.8163 14.76 26.6763 14.72C25.2763 14.2 23.7162 14.2 22.3162 14.72C21.7162 14.94 21.0362 14.62 20.8162 14.02C20.5962 13.42 20.9163 12.74 21.5163 12.54C23.4363 11.84 25.5562 11.84 27.4762 12.54C28.0762 12.76 28.3963 13.42 28.1763 14.02Z" fill="#821EBE"/>
</svg>
