<svg width="49" height="48" viewBox="0 0 49 48" fill="none" xmlns="http://www.w3.org/2000/svg">
<path d="M16 4V10H14.5C13.98 10 13.48 10.02 13 10.1V4C13 3.18 13.68 2.5 14.5 2.5C15.32 2.5 16 3.18 16 4Z" fill="#821EBE"/>
<path d="M34.5 10H14.5C13.98 10 13.48 10.02 13 10.1C7.84 10.7 4.5 14.52 4.5 20V34C4.5 40 8.5 44 14.5 44H34.5C40.5 44 44.5 40 44.5 34V20C44.5 14 40.5 10 34.5 10ZM16.26 32C13.5 32 11.26 29.76 11.26 27C11.26 24.24 13.5 22 16.26 22C19.02 22 21.26 24.24 21.26 27C21.26 29.76 19.02 32 16.26 32ZM29.26 32.5H28.26C27.44 32.5 26.76 31.82 26.76 31C26.76 30.18 27.44 29.5 28.26 29.5H29.26C30.08 29.5 30.76 30.18 30.76 31C30.76 31.82 30.08 32.5 29.26 32.5ZM36.26 32.5H35.26C34.44 32.5 33.76 31.82 33.76 31C33.76 30.18 34.44 29.5 35.26 29.5H36.26C37.08 29.5 37.76 30.18 37.76 31C37.76 31.82 37.08 32.5 36.26 32.5ZM36.26 24.5H28.26C27.44 24.5 26.76 23.82 26.76 23C26.76 22.18 27.44 21.5 28.26 21.5H36.26C37.08 21.5 37.76 22.18 37.76 23C37.76 23.82 37.08 24.5 36.26 24.5Z" fill="#821EBE"/>
</svg>
