<svg width="49" height="48" viewBox="0 0 49 48" fill="none" xmlns="http://www.w3.org/2000/svg">
<path d="M32.5 16H16.5V32H32.5V16Z" fill="#821EBE"/>
<path d="M4.5 38C4.5 41.3 7.2 44 10.5 44C13.8 44 16.5 41.3 16.5 38V32H10.5C7.2 32 4.5 34.7 4.5 38Z" fill="#821EBE"/>
<path d="M10.5 4C7.2 4 4.5 6.7 4.5 10C4.5 13.3 7.2 16 10.5 16H16.5V10C16.5 6.7 13.8 4 10.5 4Z" fill="#821EBE"/>
<path d="M44.5 10C44.5 6.7 41.8 4 38.5 4C35.2 4 32.5 6.7 32.5 10V16H38.5C41.8 16 44.5 13.3 44.5 10Z" fill="#821EBE"/>
<path d="M38.5 32H32.5V38C32.5 41.3 35.2 44 38.5 44C41.8 44 44.5 41.3 44.5 38C44.5 34.7 41.8 32 38.5 32Z" fill="#821EBE"/>
</svg>
