<svg width="49" height="48" viewBox="0 0 49 48" fill="none" xmlns="http://www.w3.org/2000/svg">
<path d="M31.2789 10.4196L34.0989 16.0596C34.4789 16.8396 35.4989 17.5796 36.3589 17.7396L41.4589 18.5796C44.7189 19.1196 45.4789 21.4796 43.1389 23.8396L39.1589 27.8196C38.4989 28.4796 38.1189 29.7796 38.3389 30.7196L39.4789 35.6396C40.3789 39.5196 38.2989 41.0396 34.8789 38.9996L30.0989 36.1596C29.2389 35.6396 27.7989 35.6396 26.9389 36.1596L22.1589 38.9996C18.7389 41.0196 16.6589 39.5196 17.5589 35.6396L18.6989 30.7196C18.8789 29.7596 18.4989 28.4596 17.8389 27.7996L13.8589 23.8196C11.5189 21.4796 12.2789 19.1196 15.5389 18.5596L20.6389 17.7196C21.4989 17.5796 22.5189 16.8196 22.8989 16.0396L25.7189 10.3996C27.2589 7.35958 29.7389 7.35958 31.2789 10.4196Z" fill="#821EBE"/>
<path d="M16.5 11.5H4.5C3.68 11.5 3 10.82 3 10C3 9.18 3.68 8.5 4.5 8.5H16.5C17.32 8.5 18 9.18 18 10C18 10.82 17.32 11.5 16.5 11.5Z" fill="#821EBE"/>
<path d="M10.5 39.5H4.5C3.68 39.5 3 38.82 3 38C3 37.18 3.68 36.5 4.5 36.5H10.5C11.32 36.5 12 37.18 12 38C12 38.82 11.32 39.5 10.5 39.5Z" fill="#821EBE"/>
<path d="M6.5 25.5H4.5C3.68 25.5 3 24.82 3 24C3 23.18 3.68 22.5 4.5 22.5H6.5C7.32 22.5 8 23.18 8 24C8 24.82 7.32 25.5 6.5 25.5Z" fill="#821EBE"/>
</svg>
